<mxfile host="app.diagrams.net" modified="2022-06-20T20:38:23.909Z" agent="5.0 (Windows NT 10.0; Win64; x64) AppleWebKit/537.36 (KHTML, like Gecko) Chrome/102.0.0.0 Safari/537.36" etag="cZNV_FBk3omkjQ-0mpaY" version="20.0.1" type="github">
  <diagram id="vsAmrMkyPEu2ImU20cyf" name="Page-1">
    <mxGraphModel dx="2148" dy="1831" grid="1" gridSize="10" guides="1" tooltips="1" connect="1" arrows="1" fold="1" page="1" pageScale="1" pageWidth="850" pageHeight="1100" math="0" shadow="0">
      <root>
        <mxCell id="0" />
        <mxCell id="1" parent="0" />
        <mxCell id="R_uyZLrXPGm5i9p8NuaK-10" style="edgeStyle=orthogonalEdgeStyle;rounded=0;orthogonalLoop=1;jettySize=auto;html=1;exitX=0.5;exitY=1;exitDx=0;exitDy=0;entryX=0.5;entryY=0;entryDx=0;entryDy=0;fontSize=14;fontColor=#000000;" edge="1" parent="1" source="R_uyZLrXPGm5i9p8NuaK-4" target="R_uyZLrXPGm5i9p8NuaK-9">
          <mxGeometry relative="1" as="geometry" />
        </mxCell>
        <mxCell id="R_uyZLrXPGm5i9p8NuaK-27" style="edgeStyle=orthogonalEdgeStyle;rounded=0;orthogonalLoop=1;jettySize=auto;html=1;exitX=1;exitY=0.5;exitDx=0;exitDy=0;fontSize=14;fontColor=#000000;" edge="1" parent="1" source="R_uyZLrXPGm5i9p8NuaK-4">
          <mxGeometry relative="1" as="geometry">
            <mxPoint x="290" y="-280" as="targetPoint" />
          </mxGeometry>
        </mxCell>
        <mxCell id="R_uyZLrXPGm5i9p8NuaK-4" value="&lt;b&gt;&lt;font style=&quot;font-size: 14px;&quot;&gt;&lt;br&gt;&lt;br&gt;&lt;br&gt;&lt;br&gt;&lt;div style=&quot;&quot;&gt;&lt;b style=&quot;background-color: initial; font-size: 12px;&quot;&gt;&lt;font style=&quot;font-size: 14px;&quot;&gt;Collective Public Key Generation (ckgphase)&lt;/font&gt;&lt;/b&gt;&lt;/div&gt;&lt;/font&gt;&lt;/b&gt;&lt;div style=&quot;&quot;&gt;&lt;br&gt;&lt;/div&gt;&lt;font style=&quot;font-size: 14px;&quot;&gt;The public key (pk) is generated by combining ckgShare which each of the P (parties) generates.&lt;br&gt;&lt;/font&gt;&lt;br&gt;&lt;br&gt;&lt;br&gt;&lt;br&gt;" style="rounded=0;whiteSpace=wrap;html=1;align=center;" vertex="1" parent="1">
          <mxGeometry x="-35" y="-360" width="240" height="160" as="geometry" />
        </mxCell>
        <mxCell id="R_uyZLrXPGm5i9p8NuaK-8" style="edgeStyle=orthogonalEdgeStyle;rounded=0;orthogonalLoop=1;jettySize=auto;html=1;fontSize=14;" edge="1" parent="1" source="R_uyZLrXPGm5i9p8NuaK-5" target="R_uyZLrXPGm5i9p8NuaK-4">
          <mxGeometry relative="1" as="geometry" />
        </mxCell>
        <mxCell id="R_uyZLrXPGm5i9p8NuaK-28" style="edgeStyle=orthogonalEdgeStyle;rounded=0;orthogonalLoop=1;jettySize=auto;html=1;fontSize=14;fontColor=#000000;" edge="1" parent="1" source="R_uyZLrXPGm5i9p8NuaK-5">
          <mxGeometry relative="1" as="geometry">
            <mxPoint x="290" y="-490" as="targetPoint" />
          </mxGeometry>
        </mxCell>
        <mxCell id="R_uyZLrXPGm5i9p8NuaK-5" value="&lt;b&gt;Party Generation (genparties)&lt;br&gt;&lt;/b&gt;&lt;br&gt;Takes in user input n and created n parties in the system.&lt;br&gt;Each party has their own secret key." style="rounded=0;whiteSpace=wrap;html=1;fontSize=14;" vertex="1" parent="1">
          <mxGeometry x="-35" y="-570" width="240" height="160" as="geometry" />
        </mxCell>
        <mxCell id="R_uyZLrXPGm5i9p8NuaK-24" style="edgeStyle=orthogonalEdgeStyle;rounded=0;orthogonalLoop=1;jettySize=auto;html=1;exitX=1;exitY=0.5;exitDx=0;exitDy=0;fontSize=14;fontColor=#000000;" edge="1" parent="1" source="R_uyZLrXPGm5i9p8NuaK-9" target="R_uyZLrXPGm5i9p8NuaK-20">
          <mxGeometry relative="1" as="geometry">
            <mxPoint x="250" y="-80" as="targetPoint" />
          </mxGeometry>
        </mxCell>
        <mxCell id="R_uyZLrXPGm5i9p8NuaK-9" value="&lt;b&gt;&lt;font style=&quot;font-size: 14px;&quot;&gt;&lt;br&gt;&lt;/font&gt;&lt;/b&gt;&lt;b style=&quot;background-color: initial;&quot;&gt;&lt;font style=&quot;font-size: 14px;&quot;&gt;&lt;br&gt;Collective Relinearization Key Generation (rkgphase)&lt;/font&gt;&lt;/b&gt;&lt;b&gt;&lt;font style=&quot;font-size: 14px;&quot;&gt;&lt;br&gt;&lt;/font&gt;&lt;/b&gt;&lt;div&gt;&lt;br&gt;&lt;/div&gt;&lt;font style=&quot;font-size: 14px;&quot;&gt;Generation and aggregation of shares is done twice, then the aggregate is returned as rlk after relinearization.&lt;br&gt;&lt;/font&gt;&lt;br&gt;" style="rounded=0;whiteSpace=wrap;html=1;align=center;" vertex="1" parent="1">
          <mxGeometry x="-35" y="-160" width="240" height="160" as="geometry" />
        </mxCell>
        <mxCell id="R_uyZLrXPGm5i9p8NuaK-12" value="Inputs" style="text;html=1;strokeColor=none;fillColor=none;align=center;verticalAlign=middle;whiteSpace=wrap;rounded=0;labelBackgroundColor=#FFFFFF;fontSize=14;fontColor=#000000;" vertex="1" parent="1">
          <mxGeometry x="-270" y="-580" width="150" height="30" as="geometry" />
        </mxCell>
        <mxCell id="R_uyZLrXPGm5i9p8NuaK-13" value="Outputs/Returns" style="text;html=1;strokeColor=none;fillColor=none;align=center;verticalAlign=middle;whiteSpace=wrap;rounded=0;labelBackgroundColor=#FFFFFF;fontSize=14;fontColor=#000000;" vertex="1" parent="1">
          <mxGeometry x="270" y="-580" width="150" height="30" as="geometry" />
        </mxCell>
        <mxCell id="R_uyZLrXPGm5i9p8NuaK-29" style="edgeStyle=orthogonalEdgeStyle;rounded=0;orthogonalLoop=1;jettySize=auto;html=1;exitX=1;exitY=0.5;exitDx=0;exitDy=0;entryX=0;entryY=0.5;entryDx=0;entryDy=0;fontSize=14;fontColor=#000000;" edge="1" parent="1" source="R_uyZLrXPGm5i9p8NuaK-14" target="R_uyZLrXPGm5i9p8NuaK-5">
          <mxGeometry relative="1" as="geometry" />
        </mxCell>
        <mxCell id="R_uyZLrXPGm5i9p8NuaK-14" value="params, N" style="text;html=1;strokeColor=none;fillColor=none;align=center;verticalAlign=middle;whiteSpace=wrap;rounded=0;labelBackgroundColor=#FFFFFF;fontSize=14;fontColor=#000000;" vertex="1" parent="1">
          <mxGeometry x="-237.5" y="-505" width="85" height="30" as="geometry" />
        </mxCell>
        <mxCell id="R_uyZLrXPGm5i9p8NuaK-15" value="P (parties)" style="text;html=1;strokeColor=none;fillColor=none;align=center;verticalAlign=middle;whiteSpace=wrap;rounded=0;labelBackgroundColor=#FFFFFF;fontSize=14;fontColor=#000000;" vertex="1" parent="1">
          <mxGeometry x="290" y="-505" width="85" height="30" as="geometry" />
        </mxCell>
        <mxCell id="R_uyZLrXPGm5i9p8NuaK-25" style="edgeStyle=orthogonalEdgeStyle;rounded=0;orthogonalLoop=1;jettySize=auto;html=1;fontSize=14;fontColor=#000000;" edge="1" parent="1" source="R_uyZLrXPGm5i9p8NuaK-17" target="R_uyZLrXPGm5i9p8NuaK-4">
          <mxGeometry relative="1" as="geometry" />
        </mxCell>
        <mxCell id="R_uyZLrXPGm5i9p8NuaK-17" value="params, crs, P" style="text;html=1;strokeColor=none;fillColor=none;align=center;verticalAlign=middle;whiteSpace=wrap;rounded=0;labelBackgroundColor=#FFFFFF;fontSize=14;fontColor=#000000;" vertex="1" parent="1">
          <mxGeometry x="-237.5" y="-295" width="100" height="30" as="geometry" />
        </mxCell>
        <mxCell id="R_uyZLrXPGm5i9p8NuaK-18" value="pk (Public Key)" style="text;html=1;strokeColor=none;fillColor=none;align=center;verticalAlign=middle;whiteSpace=wrap;rounded=0;labelBackgroundColor=#FFFFFF;fontSize=14;fontColor=#000000;" vertex="1" parent="1">
          <mxGeometry x="297.5" y="-295" width="100" height="30" as="geometry" />
        </mxCell>
        <mxCell id="R_uyZLrXPGm5i9p8NuaK-21" style="edgeStyle=orthogonalEdgeStyle;rounded=0;orthogonalLoop=1;jettySize=auto;html=1;fontSize=14;fontColor=#000000;" edge="1" parent="1" source="R_uyZLrXPGm5i9p8NuaK-19">
          <mxGeometry relative="1" as="geometry">
            <mxPoint x="-40" y="-80" as="targetPoint" />
          </mxGeometry>
        </mxCell>
        <mxCell id="R_uyZLrXPGm5i9p8NuaK-19" value="params, crs, P" style="text;html=1;strokeColor=none;fillColor=none;align=center;verticalAlign=middle;whiteSpace=wrap;rounded=0;labelBackgroundColor=#FFFFFF;fontSize=14;fontColor=#000000;" vertex="1" parent="1">
          <mxGeometry x="-230" y="-95" width="100" height="30" as="geometry" />
        </mxCell>
        <mxCell id="R_uyZLrXPGm5i9p8NuaK-20" value="rlk (Relinearization Key)" style="text;html=1;strokeColor=none;fillColor=none;align=center;verticalAlign=middle;whiteSpace=wrap;rounded=0;labelBackgroundColor=#FFFFFF;fontSize=14;fontColor=#000000;" vertex="1" parent="1">
          <mxGeometry x="280" y="-95" width="155" height="30" as="geometry" />
        </mxCell>
        <mxCell id="R_uyZLrXPGm5i9p8NuaK-31" style="edgeStyle=orthogonalEdgeStyle;rounded=0;orthogonalLoop=1;jettySize=auto;html=1;exitX=1;exitY=0.5;exitDx=0;exitDy=0;fontSize=14;fontColor=#000000;" edge="1" parent="1" source="R_uyZLrXPGm5i9p8NuaK-32" target="R_uyZLrXPGm5i9p8NuaK-35">
          <mxGeometry relative="1" as="geometry">
            <mxPoint x="250" y="120" as="targetPoint" />
          </mxGeometry>
        </mxCell>
        <mxCell id="R_uyZLrXPGm5i9p8NuaK-40" style="edgeStyle=orthogonalEdgeStyle;rounded=0;orthogonalLoop=1;jettySize=auto;html=1;exitX=0.5;exitY=1;exitDx=0;exitDy=0;entryX=0.5;entryY=0;entryDx=0;entryDy=0;fontSize=14;fontColor=#000000;" edge="1" parent="1" source="R_uyZLrXPGm5i9p8NuaK-32" target="R_uyZLrXPGm5i9p8NuaK-36">
          <mxGeometry relative="1" as="geometry" />
        </mxCell>
        <mxCell id="R_uyZLrXPGm5i9p8NuaK-32" value="&lt;b&gt;&lt;font style=&quot;font-size: 14px;&quot;&gt;&lt;br&gt;&lt;/font&gt;&lt;/b&gt;&lt;b style=&quot;background-color: initial;&quot;&gt;&lt;font style=&quot;font-size: 14px;&quot;&gt;&lt;br&gt;Collective Rotation Key Generation (rtkphase)&lt;/font&gt;&lt;/b&gt;&lt;b&gt;&lt;font style=&quot;font-size: 14px;&quot;&gt;&lt;br&gt;&lt;/font&gt;&lt;/b&gt;&lt;div&gt;&lt;br&gt;&lt;/div&gt;Returns (rotKeySet) an allocated set of BFV public rotation keys with zero values for each galois element (i.e., for each supported rotation).&lt;br&gt;" style="rounded=0;whiteSpace=wrap;html=1;align=center;" vertex="1" parent="1">
          <mxGeometry x="-35" y="40" width="240" height="160" as="geometry" />
        </mxCell>
        <mxCell id="R_uyZLrXPGm5i9p8NuaK-33" style="edgeStyle=orthogonalEdgeStyle;rounded=0;orthogonalLoop=1;jettySize=auto;html=1;fontSize=14;fontColor=#000000;" edge="1" parent="1" source="R_uyZLrXPGm5i9p8NuaK-34">
          <mxGeometry relative="1" as="geometry">
            <mxPoint x="-40" y="120" as="targetPoint" />
          </mxGeometry>
        </mxCell>
        <mxCell id="R_uyZLrXPGm5i9p8NuaK-34" value="params, crs, P" style="text;html=1;strokeColor=none;fillColor=none;align=center;verticalAlign=middle;whiteSpace=wrap;rounded=0;labelBackgroundColor=#FFFFFF;fontSize=14;fontColor=#000000;" vertex="1" parent="1">
          <mxGeometry x="-230" y="105" width="100" height="30" as="geometry" />
        </mxCell>
        <mxCell id="R_uyZLrXPGm5i9p8NuaK-35" value="rotKeySet (Rotation Key)" style="text;html=1;strokeColor=none;fillColor=none;align=center;verticalAlign=middle;whiteSpace=wrap;rounded=0;labelBackgroundColor=#FFFFFF;fontSize=14;fontColor=#000000;" vertex="1" parent="1">
          <mxGeometry x="280" y="105" width="170" height="30" as="geometry" />
        </mxCell>
        <mxCell id="R_uyZLrXPGm5i9p8NuaK-41" style="edgeStyle=orthogonalEdgeStyle;rounded=0;orthogonalLoop=1;jettySize=auto;html=1;exitX=0.5;exitY=1;exitDx=0;exitDy=0;entryX=0.5;entryY=0;entryDx=0;entryDy=0;fontSize=14;fontColor=#000000;" edge="1" parent="1" source="R_uyZLrXPGm5i9p8NuaK-36" target="R_uyZLrXPGm5i9p8NuaK-37">
          <mxGeometry relative="1" as="geometry" />
        </mxCell>
        <mxCell id="R_uyZLrXPGm5i9p8NuaK-36" value="&lt;b style=&quot;background-color: initial;&quot;&gt;&lt;font style=&quot;font-size: 14px;&quot;&gt;&lt;br&gt;Memory Alloc Phase&lt;br&gt;&lt;/font&gt;&lt;/b&gt;&lt;br&gt;&lt;font style=&quot;font-size: 14px;&quot;&gt;Pre-Loading of memory. Also, creates and allocates a new plaintext optimized for ciphertext x plaintext multiplication.&lt;br&gt;&lt;/font&gt;" style="rounded=0;whiteSpace=wrap;html=1;align=center;" vertex="1" parent="1">
          <mxGeometry x="-35" y="240" width="240" height="160" as="geometry" />
        </mxCell>
        <mxCell id="R_uyZLrXPGm5i9p8NuaK-42" style="edgeStyle=orthogonalEdgeStyle;rounded=0;orthogonalLoop=1;jettySize=auto;html=1;exitX=0.5;exitY=1;exitDx=0;exitDy=0;entryX=0.5;entryY=0;entryDx=0;entryDy=0;fontSize=14;fontColor=#000000;" edge="1" parent="1" source="R_uyZLrXPGm5i9p8NuaK-37" target="R_uyZLrXPGm5i9p8NuaK-38">
          <mxGeometry relative="1" as="geometry" />
        </mxCell>
        <mxCell id="R_uyZLrXPGm5i9p8NuaK-37" value="&lt;b style=&quot;background-color: initial;&quot;&gt;&lt;font style=&quot;font-size: 14px;&quot;&gt;&lt;br&gt;Encryption Phase&amp;nbsp;&lt;br&gt;&lt;br&gt;&lt;/font&gt;&lt;/b&gt;&lt;span style=&quot;font-size: 14px;&quot;&gt;Ciphertexts encrypted under CKG and stored in the cloud&lt;/span&gt;" style="rounded=0;whiteSpace=wrap;html=1;align=center;" vertex="1" parent="1">
          <mxGeometry x="-35" y="440" width="240" height="160" as="geometry" />
        </mxCell>
        <mxCell id="R_uyZLrXPGm5i9p8NuaK-43" style="edgeStyle=orthogonalEdgeStyle;rounded=0;orthogonalLoop=1;jettySize=auto;html=1;exitX=0.5;exitY=1;exitDx=0;exitDy=0;entryX=0.5;entryY=0;entryDx=0;entryDy=0;fontSize=14;fontColor=#000000;" edge="1" parent="1" source="R_uyZLrXPGm5i9p8NuaK-38">
          <mxGeometry relative="1" as="geometry">
            <mxPoint x="85" y="840" as="targetPoint" />
          </mxGeometry>
        </mxCell>
        <mxCell id="R_uyZLrXPGm5i9p8NuaK-51" style="edgeStyle=orthogonalEdgeStyle;rounded=0;orthogonalLoop=1;jettySize=auto;html=1;fontSize=14;fontColor=#000000;" edge="1" parent="1" source="R_uyZLrXPGm5i9p8NuaK-38" target="R_uyZLrXPGm5i9p8NuaK-52">
          <mxGeometry relative="1" as="geometry">
            <mxPoint x="300" y="720" as="targetPoint" />
          </mxGeometry>
        </mxCell>
        <mxCell id="R_uyZLrXPGm5i9p8NuaK-38" value="&lt;b&gt;&lt;font style=&quot;font-size: 14px;&quot;&gt;&lt;br&gt;&lt;/font&gt;&lt;/b&gt;&lt;b style=&quot;background-color: initial;&quot;&gt;&lt;font style=&quot;font-size: 14px;&quot;&gt;&lt;br&gt;&lt;/font&gt;&lt;/b&gt;&lt;b&gt;&lt;font style=&quot;font-size: 14px;&quot;&gt;Request Phase&lt;br&gt;&lt;/font&gt;&lt;/b&gt;&lt;div style=&quot;font-size: 14px;&quot;&gt;&lt;/div&gt;&lt;br&gt;Using genquery, a query ciphertext (encQuery) is generated.&lt;br&gt;Buffer for the intermediate computation done by the cloud.&lt;br&gt;Summation of all the partial result and relinearization is done, to return final result." style="rounded=0;whiteSpace=wrap;html=1;align=center;" vertex="1" parent="1">
          <mxGeometry x="-35" y="640" width="240" height="160" as="geometry" />
        </mxCell>
        <mxCell id="R_uyZLrXPGm5i9p8NuaK-44" style="edgeStyle=orthogonalEdgeStyle;rounded=0;orthogonalLoop=1;jettySize=auto;html=1;exitX=1;exitY=0.5;exitDx=0;exitDy=0;fontSize=14;fontColor=#000000;" edge="1" parent="1" source="R_uyZLrXPGm5i9p8NuaK-45" target="R_uyZLrXPGm5i9p8NuaK-48">
          <mxGeometry relative="1" as="geometry">
            <mxPoint x="290" y="920" as="targetPoint" />
          </mxGeometry>
        </mxCell>
        <mxCell id="R_uyZLrXPGm5i9p8NuaK-58" style="edgeStyle=orthogonalEdgeStyle;rounded=0;orthogonalLoop=1;jettySize=auto;html=1;exitX=0.5;exitY=1;exitDx=0;exitDy=0;entryX=0.5;entryY=0;entryDx=0;entryDy=0;fontSize=14;fontColor=#000000;" edge="1" parent="1" source="R_uyZLrXPGm5i9p8NuaK-45" target="R_uyZLrXPGm5i9p8NuaK-57">
          <mxGeometry relative="1" as="geometry" />
        </mxCell>
        <mxCell id="R_uyZLrXPGm5i9p8NuaK-45" value="&lt;font style=&quot;&quot;&gt;&lt;br&gt;&lt;br&gt;&lt;span style=&quot;font-size: 14px;&quot;&gt;&lt;b&gt;Collective (partial) decryption (key switch)&lt;/b&gt;&lt;/span&gt;&lt;br&gt;&lt;/font&gt;&lt;div style=&quot;font-size: 14px;&quot;&gt;&lt;font style=&quot;font-size: 14px;&quot;&gt;&lt;br&gt;&lt;/font&gt;&lt;/div&gt;&lt;font style=&quot;font-size: 12px;&quot;&gt;&lt;font style=&quot;font-size: 12px;&quot;&gt;We perform a collective key-switching on a ciphertext encrypted under a collective pk, whose secret-shares are distributed among N parties, re-encrypting the ciphertext under another public-key, whose secret-shares are also known to the parties.&lt;br&gt;&lt;/font&gt;&lt;br&gt;&lt;/font&gt;" style="rounded=0;whiteSpace=wrap;html=1;align=center;" vertex="1" parent="1">
          <mxGeometry x="-35" y="840" width="245" height="160" as="geometry" />
        </mxCell>
        <mxCell id="R_uyZLrXPGm5i9p8NuaK-46" style="edgeStyle=orthogonalEdgeStyle;rounded=0;orthogonalLoop=1;jettySize=auto;html=1;fontSize=14;fontColor=#000000;" edge="1" parent="1" source="R_uyZLrXPGm5i9p8NuaK-47" target="R_uyZLrXPGm5i9p8NuaK-45">
          <mxGeometry relative="1" as="geometry" />
        </mxCell>
        <mxCell id="R_uyZLrXPGm5i9p8NuaK-47" value="params, P, Result" style="text;html=1;strokeColor=none;fillColor=none;align=center;verticalAlign=middle;whiteSpace=wrap;rounded=0;labelBackgroundColor=#FFFFFF;fontSize=14;fontColor=#000000;" vertex="1" parent="1">
          <mxGeometry x="-250" y="905" width="112.5" height="30" as="geometry" />
        </mxCell>
        <mxCell id="R_uyZLrXPGm5i9p8NuaK-48" value="encOut" style="text;html=1;strokeColor=none;fillColor=none;align=center;verticalAlign=middle;whiteSpace=wrap;rounded=0;labelBackgroundColor=#FFFFFF;fontSize=14;fontColor=#000000;" vertex="1" parent="1">
          <mxGeometry x="297.5" y="905" width="100" height="30" as="geometry" />
        </mxCell>
        <mxCell id="R_uyZLrXPGm5i9p8NuaK-50" style="edgeStyle=orthogonalEdgeStyle;rounded=0;orthogonalLoop=1;jettySize=auto;html=1;fontSize=14;fontColor=#000000;" edge="1" parent="1" source="R_uyZLrXPGm5i9p8NuaK-49">
          <mxGeometry relative="1" as="geometry">
            <mxPoint x="-40" y="720" as="targetPoint" />
          </mxGeometry>
        </mxCell>
        <mxCell id="R_uyZLrXPGm5i9p8NuaK-49" value="params, queryIndex, NGoRoutine, encQuery, encInputs, plainMask, rlk, rtk" style="text;html=1;strokeColor=none;fillColor=none;align=center;verticalAlign=middle;whiteSpace=wrap;rounded=0;labelBackgroundColor=#FFFFFF;fontSize=14;fontColor=#000000;" vertex="1" parent="1">
          <mxGeometry x="-350" y="705" width="240" height="30" as="geometry" />
        </mxCell>
        <mxCell id="R_uyZLrXPGm5i9p8NuaK-52" value="Result" style="text;html=1;strokeColor=none;fillColor=none;align=center;verticalAlign=middle;whiteSpace=wrap;rounded=0;labelBackgroundColor=#FFFFFF;fontSize=14;fontColor=#000000;" vertex="1" parent="1">
          <mxGeometry x="302.5" y="705" width="60" height="30" as="geometry" />
        </mxCell>
        <mxCell id="R_uyZLrXPGm5i9p8NuaK-57" value="&lt;font style=&quot;font-size: 12px;&quot;&gt;&lt;br&gt;&lt;br&gt;&lt;span style=&quot;font-size: 14px;&quot;&gt;&lt;b&gt;Decryption Phase&lt;/b&gt;&lt;/span&gt;&lt;br&gt;&lt;div style=&quot;font-size: 14px;&quot;&gt;&lt;br&gt;&lt;/div&gt;Decryption by the external party.&lt;br&gt;(P[0].sk used for decryption)&lt;br&gt;&lt;/font&gt;" style="rounded=0;whiteSpace=wrap;html=1;align=center;" vertex="1" parent="1">
          <mxGeometry x="-35" y="1040" width="245" height="160" as="geometry" />
        </mxCell>
        <mxCell id="R_uyZLrXPGm5i9p8NuaK-59" value="" style="shape=image;verticalLabelPosition=bottom;labelBackgroundColor=default;verticalAlign=top;aspect=fixed;imageAspect=0;image=data:image/png,iVBORw0KGgoAAAANSUhEUgAAAWUAAAEoCAYAAACAQ+AJAAAAAXNSR0IArs4c6QAAAARnQU1BAACxjwv8YQUAAAAJcEhZcwAAEnQAABJ0Ad5mH3gAAD0TSURBVHhe7Z1/bBzneeefXoHEKWPVlSmE9UWyzWVcmE2PucIsfcXJoORemOO5f3BZAj6gSA4F6QIlFSCAjgYObQj2cgWiCghgiQfUIoomKNDgFFF/xKezcieJjYtrFOpy2UtCoY4ou1Gq0BHNunT2LBsX9J7n/THzzsw7uzPL3dUs9/sBRuIshzOz7zzv933e533nfX7m0KFD/0gAAAAKwT8x/wMAACgAEGUAACgQEGUAACgQEGUAACgQEGUAACgQEGUAACgQEGUAACgQEGUAACgQEGUAUphZ3KK/vfgD3rboL542HwLQYlosyjP0yGdfpl/+xBGzD+rzcfrw2RfoI88/ZvaLw/s/8RV68rNLtM/sF4cW2Nnv7tDvP0n0P08coofHeunfXjKfA9Bi4CkD4OHE0FtEG/dDjEHbgSgDkOCndLDX/AhAm2nJgkTSzf3nv/ZBs5fk7W9+nr73MtGHPv08PfrABq3/4SztmN8pHvqP9MvTw0TquCtm/3HaWv4teufoyzTYb457a43+9wt/QO+aXY10ZSepz+yxu5M8fxae+iR95Nhj9Penfp/u/uYLNPCI+fzta7T+O1+i98yu4lOfoY8986jZEV6jG1NfoJ+YPR2SeIY+cO00fX/z30SO3Xrp0/TDLxK97/nP0eAT6YGBqvzt54l6/3SOPnx//PyMut8niNRxr5oPM2LK+36zGy2zeHnGcY791SV68pkP0Wvx5xR7Bvt+m3+3P/bszD1UX/oEvf4t85ki/XlmszO2n9z8lP7iv/wd/frWh+jh33u/+QyA9tDiVeJ0hepJqxyqEpdoM1YRdWVjaePK/cZt/sAVjZvn6Bt/foZ/MJU12GfiYs4oAehvQJiNyPXIz6+/RN/+91/jH7S49gb7jBz3m5v0fbtPj3mE0/yd+jn8XAsx0Q9Z+Le+rn7JOALuE1fTAFgxt/jPlQFPmanPjv6AvmfL1aCfyxvpZWmepyJ4Lkd040uhCGcWZXs+9xnLc/9tfiSRe6tjZ7mBKIN7x70NX3zr27TJ//UNzuh9xRF64DH2fm5e1ILsEqmcZ+hH32Rp6/9YMPC07ygLN3vPN5yKufPn5/gaJTrY6CCQK8D0NfrxNZajR36ZAv/s619yBFl4lbb+8jX+/1F64FP6kwDxsh0P972/fpWqfPf3uU52Pb74Pdri/3o/+nG9r3iM9v0Sl8LrX88nyELffm7sfkJb/8cRs9t/kBDkPIiHGj6nK/TWq/yNH9hP+eSNxfxfxgVZOBMTZAD2Fvc4pnyGtm/yf46w0kNHqfcBos31ZMWLf/buj9/gfz9EH3hI9mZoP3eX3371ciyccYPeeYvo/t4Bs5+Pre+6gstCuvkm//sg3feU3vfy2pssth7e3IyGPUTQp6Ieb32+Rm+9zv+5DcNTT9IvcDcifq+Z2Nymt/lMj05/hT6kynH3VH8c9Vbfffm36Bt5eyo17KDlPH2XPvrzbDkVeMmg/dzzgb6dy2ssCiXa/6t6//3/7HHl7f4oElfMwEOHVKjh/l97np787MvOJnFrfUir+OAfv0AfO+tsNuzRIn7y1Wss+qEn/r5/8Rj1sBf+41zibhCv+A+lNyHCbMusANPejAf/jnSl2sXTVfqOzEv+XaIXxg7R039iPgegjdxzUabbl2mLPVkdwtChi6S3m4HbP1Deqeo6/+EnkluLurwiyAOP7NAPT32avs1er9pOiWi2kK9/g/7+bRvC0KGL6t98I+qF5+IMvW7L6aUN3i/R4L0WZuPBfyB9hLH5XOqhX2ExfpjF+NMszpdYnAFoNy0W5Syhgyv0xl+xEEgIQ3VZY/HNGuwbLBG9dZ3eUrHn3YUpsvLBjz4qMRLaUbHbj9MDMiujkVhuKq/TXRbcnl473cOHiVtLCEOFLnbo7/8654yLNL41a4TZhoVCouGi5qJ6SOZnhWlko+MNaTT52V+6j777D0QDQ7ldAwB2TYtF+Qq9s83/9Y/VjleqAT/2zmSGhW+Az8evLqkpV5t/ZUfwrbhPtu4Nwk99Rk2N2/pLOyVOC2gkviuzI3YVvniV7krY+pGnqLdW3FoN+D1KA3KtXTQKMqPiERM6sqjGjt6gd+LPwcafj2YRynTe3ZKBv8fpAWMT/qltdiA3/jxl9kX8+hntDIAOoA2JU82UKCeu65s/qqeucb1PzFNl3ClxAT8Jp8y55Dm2Fu6UuAAJU8SnnLnT3RiZYfFnRA/z374TTFvzTKWriZ1WZ3YZPU856g3r0Ek417lRbNkHeOd/G9xpb4r4POXkFEcfkWuq6/2AfvGzk0Txv611vQjZ7CwbmBIH7h2FyWZdcz6xbw5rqzGiHApr8dCi7HmRBOwSiDK4d7Q4fJEVM53tm1/JN22qq9Hx7Oq1/wpBbjo/S7dkMjgA94ACiLJ0OyepL/bSB6iFhDeeod63r9Hf5n2lGmTi+3d+jqj0NpbsBG3nHoqyvBpr5hE7r+CCWkhsWuZCz9GHybMGB2gaZxZ66XPfIPr1eaynDNpLYWLKAAAAChNTBgAAIECUAQCgQLRElPv7++m+++4zewAAALICTxkAAAoERBkAAAoERBkAAAoERDmNmVN04cJZWjxq9sG9Q57Flxdp1Ow2wvTpC/w8w+3U7tZUAqBlQJRBQZmmUxdO8b/MxjZVt27RqnzK4np2Ib88L8+N0/g4byfXWrvWdZeiGr1dNpxAA1EGBWWZzl3tozJ7tWfL+3l/iEX6ApX7N+jiosjzHuLoIp11vPi910MbpcUv8/c6rZrYgNGFs/r7xj7vdiDKoLCsLk4p73bpTh/19BNVxNMdP8ZyvYeQ0MzxYaKrJ7Qnr7YloudML2Gvwg3R7EgPVeV7z+2pJ7prWvKatcxTvn37Nt29e9d8UjyklZ5nowi4uRI1DqksE320dnKKFi7rj8K/2aCVvSYOBcSWd/WmZEIh2uwvUWlnjU48u6BCGQrnOd0qiydtPk97RuKVsghunh+nY26GMM/zdpHuebnXvbaEV8oUrvTciE2IBzlPwxT7TqlkvWad4/KUmTrWWc/arSemLFMTOgTPynzPLfu35v7idc5S65rmdyLmU7Eek3pG3JPK/xyKRVd6yrqyExul9UzG6cSdsZqDP4FAKI+msx96ZzBNkyObXMHGaapCXPErdIx/XtkaptlETLmHho9zhSSuvOp5nqC1nRKV88Q4JW7N59nvaEECE9fW4YYy9Tne7cpNvp6Ngedl336qm8gq6zVFtKzgmePGxys0lAgR1C8zsXkt3vY8K7TRXw7DDZcXaMpcY0Wy0osIm321pTQ006f5/uRYjyDXveaZc3yffPePH4k922kaksblZqXj62ZXivLAAW7bd9bpiuMRSVc54jm5sKFbQY63zqBVLLMIO41f70FVCWXAzvcMot3gVbpyvZpN7CyXb5GbOFuJQyB4o3Swl69x54bamy6zd8iisuTcx/Iciwf7pmO5BiFXaeGSTlQrsfNasdVs12SP9GluVRIeKJelRwBrl5k0imLzS07Pgc9zXlKujTUc85ZyVd6sV7CzXNPe5yAdce9hZohLokprK8nv2Wl0pSjfuCMPdZjms3hSh9O7S6BNnDmW6nVZNm9Hf6vj0Xl6NDdomz2wvoe0RaiGm6v5kOo9DdD+ILW39siq16/E7kf/fc+BnMlb5bspL5V/Fo9QDfTFPe6M1zx6hAb5Pjcq2b51zTIzIrf+SqzUs/Qo0uDvJ87NxvmU55LxmquvrKv9wcNh7Z0e4l/GHK1OpStFWRmftL4izHbE2+ulcBdvRFtC3IDBXmNVZRvRAiciuEFrV6uBSAvKBo4epD7+uWdk3gio3eZpOBDuvLDH/KzprotdsjSJ5xyE07Jes7SfLbZK23KKXTL6kLqiCnFErlkrhlwP9uBPcJmWJvyzSzJf8/ICXbzJRwYhDN1obVzKEpcvPt07+0J5KLoiqHiYG7cK4O7QSf370gReOOgKJEwiInizQgu3N3XFV6JoxM6EOfTYgo17OpsnTJALZZcSlmCbe9r05LJeczdebIxV/u7W/n3XTA311UEcopWbIrzJ+Hueay5XxKkyIQzlYW9QpcF7KhrdK8oOEqdUwmzilnGW53T3Mq2FB3sDFdZiBg4PEkn8+EyFNqTiK5HbpFuqa5w/TGHfJmzkpRdNxmsa8S4NpcemM5NT4HVIMFsM38bCEwOxea6pBvx0CEOFLvbAAJ+lC0VZpuf4Y3bB6HoC6V6KIflbeLA3UJ7avmEqj5CJay5TRby6CRlk22ZpVEfpwTnuWWUTWWNbjG/GwCnPuMbowhhLltsdz3pNeeGGxTFxHF+nxiCiFxMiyOqIaC8360DnMh2TNyvj4zq5rqkH/CSkU+7fGwN8li6dpxyfx6m7hpGBPDUfMjZvNZiXKV0s/3xW0GbMvNWN+LzjCMnnHeLMa7XPN5hfy5jzJ2Y0eOfo+u1Cz5/12JjgPU/KXNus17T3HBA7X6Yy09ipoBHc8nFIHBscF5+nbLD3GTtf5mv6ntceoGtfHgEAdDhGlOVtyL00MwoxZQBARzJ6eJB7DXtvLRSIMgCg85jRL3SlznnuYCDKAICOQb9peSFzTLwTQUwZAAAKBDxlAAAoEBBlAAAoEBBlAAAoEBBlAAAoEBBlAAAoEBDlNORtIXf5wJS1l/UUnXauhyGvDO9mcZsWIq/NtiLpp5w3y9rXNbCLAtkNK/6BogJRTiOe6ga0GWl8TGMnq4eZxaJEXBtpkGQlQLUEpCyEYz4DzUM1ertsOIEGotwWtHfremrBlnf1rntI3Nts7b3Limd9arH3s+X9vD+kylBSCe2112oTvbJW9DbuKbIgUdJeghdBOqgOtAOIcjuRlcaM9x1s7qpZhUVXKp0p2Ln3ylBLwyg6PdE4Ld3po55+ooq67h57rVZCM2ZRnaBcx5eIntvjS8RyQzQ7ovNedkYdaB9dKMpOqx3zUJolMIFHmbM7pzwH9TdRzzrtvgJPQ23+Shw9JnYuFQPmvwvKQc5hykf2rQczM6nSDiXWGThzrO7qXOH184uM/dvZA5tUvcm+spwnXqZOHDvqyee8Xp14eLJ7Hu/95P9+/A11otOdaEJUtX7ys77GJ+s16xyXp8zUsc4xrlfr1B9ZmjSSXk22VPvn+5MlN9lJ8dpPrWua3/nqhP4ujTyHYtG9nrKkfzo+SOs29cz5DbVg9m4HgMQwxEDlvfx6yT69KMMuE8nf17gv+Wz+8XWT0t2kh491A+Ve5k2afnWuk2tE/HdRg+6jsef200WVgqhEY1+epcHrJ1QuNeofihi4m68uCyKqsmiMTmOU18OVzMb63qcq/H2pQsf455WtYZpNVEid161Wuvy6ZMl6YZMgKDHKkO4/K1kydmS9phKtMpUivbIKDcVsI0uZqUaxVrr/+LiLrGts9tWWYv/Tp/n+5FiPh1z3mirjiD9hgEomsAcykHRx+EK64s7i4JL6h//LKzwuYlBWkHezUErk740RJlL8RBb21lkYIiLKlXhM3YsjhlyJllhse0YmnYrcQ3T9XHBMD607XlsfHRTP0VYEFvTM8U4WByvIja11u8wi7Ny7SdUlA3a+80W7waY8MqYnUphUShbtpVvBG6WDvXwNSRHFZEv3nwWTUYT/TmLnEY8wRrZrGs9bBDkieFyWHgGsXWZZ0v3nR9cRrntewc5yTXufJj+fxWTC3gsZSLpXlIP0PhYRAX+Fz8JBNja9lGANQZYW3+2Webth8QSQOstyPH9gMt18FLvWbDyZpE7bY8RWEUvp7k2JJd1p9lpUpmXtYaV1IRWH2Vub4CrSsCDHOHOsbq+jZrr8TOg8eLZRHjggmS9KNKR6KAO0P8garT2yuun+syLfTXmp/HNgH3GPO+M1jx6hQQkzVbJ965plljHdfy74+9VcbjPjNVdfWVf7kp/PovL07azTlVjWl04EA31NoUTDbGwicDXTu3sG+poiWh6sqCgPzN0iaYJyogRE7luLiPKcEyECFu0RfY14pS82uvHTAiciuEFr3Ktwe07q+2RN958L0+hJ2aqGTz+3IGSV9Zql/Vz6dWwwI5nT/eeB7V/CYmk5+DJf0+TyC0MYutEKcxp2NhDlpiChEBEqMaiM3fsWozMzx2ZLBNtu8wtqEVFx533DNBmJd0vOOB1jLE104Esa0iMREbxZoQXuVaiKr0TRiF3WdP+Noho+CUtw+T1tGrys19yNFxsjT7r/PIg3viLJaD0JiPNcc7nCJWRDGMrDTvYKOxWIctMQoZLK5De4xknrutYmGaZoL8tz2pvOmg25COiGjHsZhweJJH4s4wxS8ZXIbdIt1ZDlD1PYGQ6p4Z66ZLymEe/E+EMj5BR4VXYZY/g2Fp4YiM1zTTXOoUMYKnSxBwb4LBDlprKsU6f7DK5B1Eg1m3DuFyaM0TajgZDBmaTHqwdlZMDxnNdDaVUj1TpUQ8aef3mETFxzmSri1U3IIJsdg+DvlSndv0U3qoJvxsApj52MLozxM2eNCrrjWa8pL9ywOCaO4+vUGET0kivdv3UCsg50mnoiM43c75/rmnrAT0I65f69McBngSinoEfftYcTn4NZs2LINCGJC6rjY2IUDOQ4W6KyROPA5V6ZZpRnwMqiQwx62pRzPdlyVlDpclaGYuew07NqDsA5jdQ9fUvNmbdr4pMSWtHfw3lGylNjnAEj1U0W3AFQCTGY6YXRMvF9RxF2/VOyt8Pl8yLRbOQc4TTGSIgg4zXVYB3bXzT+PESVBsIqMtPlxFXiRtW9Hm8+h4PvT8JZkevWckzceuIcl+eaesCP2SMDfBakgyoQ0hDoCtmICAPQZcjcbfM2ZKsGzO8F8JQBAB2Jnfa519ZCgSgDADoP83JS6pznDgaiDADoGIKxnolS7Re1OhjElAEAoEDAUwYAgAIBUQYAgAIBUQYAgAIBUQYAgAIBUQYAgAIBUQYAgAIBUQYAgAIBUQYAgAIBUQYAgAIBUQYAgAIBUQYAgAIBUQYAgAIBUQYAgAIBUQYAgAIBUQYAgAIBUQYAgAIBUQYAgAIBUQYAgAIBUQYAgAIBUQYAgAIBUQYAgAIBUQYAgAIBUQYAgAIBUQYAgAIBUQYAgAIBUQYAgAIBUQYAgAIBUQYAgAIBUQYAgAIBUQYAgAIBUU5j5hRduHCWFo+a/TYwunCWr3mKps0+yMf06Qt0dmHU7NVHjr/w5UXK/hcGZRv8t3Y7jSdWj4bLuguBKIPORgTSiOKNO1XavL3KP03TqVY2qGeO0fj4OG8naG3HfAZAk4Aot41RWvyy413xlserAymcOUdrvWUuz7M0eYD3h8SLLVPp5kVauKwP6TqOLtJZx85kOzVjfsd4vVbr/Se8WWngoudK2i1su5lAlNuCGPY8DdManVAelt6WaDZSWUAjrNLCs1KeS7Td20MlqujynVs2v+8uVAjs+DDR1ROBnclW4cYqPcjC9jlRIrq5QuPPLnCJanQ4TRo4/tw5V9RuYdvN5mcOHTr0j+bnptHf30+3b9+mu3fvmk+KiLTubEz7zC5Vae3kVOhdiecw0Rf5TIx0fqSHf9qglfFjFFR7dSwbdQJ93A31dxQ9vwd9/k3+mwoNSWUwn1e5gk0t2qqiEW+n3G92BKk4ESGSylKmPvnb25OR+9s4P07HzpgdhT7WOSL6/QqNfY5V2rgp+5tU6i95yyx8fg47LCaBEOUpM8FceytW9uKpsjBuev/Gfc62jOvYYlbMdUWQ49/dRdlOr/3e5toiqo4gZz2X/i71bTu45otEs3xe+xR85VrXtp26eavsHuuz286z7e70lFX3zhhi0LovEZXTByJshZbKPu4+VCPIYlz6PCv82Bmp7JGH30P7Q8uoQYnKbERkz3d+g3pGZiPxUbmXoYq9Hm8n16jaz114z4BTz8g83x+xIepjT1ytUmnCibeqstBCZM+3clPuoUMGHGcmtSiOT7GPzFW9IvHeFdqMlZlUdC2EYbmtKBFPUrfM6nH5FjcNRH0P1ejC72zTDfWD8TTVd7DXIxo+nj8mPnp4kEugSuuvpItonNGFWW4MWKhcQWamyyKcG3SxhiCHZLTtfcM0f3yQ1k+65Rq1s+y23cNlxIJMttwkvs9264ZfOtS2u1KUlcFFPCSBu8FzUcMMYOG1gpzwWIfYGvlc54LWfpnOsbHRvkE6YirV6uJFJdSlCYm31TeIiPdwpsJ/20ODh8MKvro4FfUuLi/QRRGY/qHkuWONw+or61xtw0pky2LJ+V7Lc9KwlGisE+KCMujmeFFaCJfpGIt04Llx5Rxjb2rjfEYPqU6Z1ecGbbsDgNJwOwOPAwe48di6pWxtdGGMS5pF0fkOq4tLLDAsOuU80jFKRx7n8+6s05WsHraya/Fy4+UySgd7+b+g4Ugnn21HewC6XEs05IQ58ti2cpCCclulK9el3u2nAfNJp9p2F4ryNA1xBa1ev+IX4DiHtSfsE+TAeL1s0q2gcohIaM9Ae8J6MMQfc9ugSqw7lwWZeeDFVP4ANvIpvhdt+GlloUWl54A1785geW7c29XWHmSOcq1ZZllYpVtbYfmNPtTH/9qG1bUZI6Q3KzFR1H9PvQf5iBYhXquy6yVP2GGA9gehFI14sO5AXmi7OWw7T4PhkGbbeqZNiAh62IvtXNvuPlE+epCkisQfqB/2Vka0e+Q/nr3rS+wnsIFPBkY4TZMSt0xUNGs00o3SIQ7lXTQ0x1W6vGEFkS0RK82CKQvVXY+cz41vgkZQQqJEVYSXvdGr3N9xhKB6R3xQI37SPY+Ufyym2gqkN6BCY/MeAY15+kxguxJOMJ+5wLabR/eJcpZ4X4B0t3TsUYzM1/prL8gYoXroZrTa6Y4m0d6Fimn2j+WMHZqBC9XF1nEy2bSnkhNTFjpOHp4r2Gp+B1AX1ZVm4SX2EF/Zpqrqgmsh1o28Eb/Y7IZgi8V5a2O8aydsVpczx0xcNx6/tucKQwHZgW3vli4MX5juy+NHMncNl+f0SwJJ49VeceLBt/KBzwxxJ5Fo41KeCptGZ4Yp8rJ6WzXDdNB9dibO3Cr0NRl5XhIOuXyF1nds/LRK2+JOWvHLE6ZQ8Wlu/D1vxy1X5KTR8Yd6BPHr49F4sD5XNN7bcmDbii4U5TDkMB/pXo3S4um02RcyF1a6ZXHjzfbgp097RtKtKOR9yWGDPS7+rzQU3oWeWdBAF8+WBXef9/RkfzNYGg6csUcm0712GvDAsqKeU4nKMjOnIo20HogqTcj0rHC8YXlljaoJW0xHDSwLPo+YPV/xUKXLHn+e06fTBuGsbcdmJZhzpfUQLbDt5tOFosywwQVTbYJY0yzRSq0WmrtlKp4mxmsNkR/8i/Hz2C001uW5JaLnYr8381hze9Uy6HReG5s919idE4118QRTFpSIvXkqW8dinl1QZmO0fXKclq6bX+dEhEKfx8QnnWcRCJjpPrPSBAOMerYB485qUIOILIoeG/KJofZgmZRBMxns1NMoo89zqFJr5olr26Ew23OFoTne1Bzj8DvBtptPF7880gRkHqQYaSKGbF8G6KSXMAAARaA7PeVmUdrPXgP7Qqp76mJihQAAkBOI8m7wxMAUM6f0lCbPtDgAAKgFwhe7xYYwzK7Fv1YCAADUBqIMAAAFAuELAAAoEBBlAAAoEBBlAAAoEBBlAAAoEBBlAAAoEBBlAAAoEBDlNGLZItqBXkg8beEYUA9ZkyLP4jNqDQvPamt1sSu12a2hdYO7i4bLuguBKIPORgTSiKIsLK/XKZZ1eVvYoMpCN2qZVr2kKwDNBKLcNmSRIse74q3TlhSMpwQqhId45hyt9cqqYmdp8gDvD4kXK4kGci4buReQt0vd52O25DKe/Hnca01dpzmZCSRpt51v20UCotwWxLDnY9mzx2mJZmuuVVscdKWLZoM2y03e8y6prAcs97NE2709VKKKvr9WJhooOGFmdZ21w7e+chS2z4mSzoDiZDvRjbDJpBM897jddrptF48ufM3aLKspKd1XDkbWrYgkRxXPYaIvkn1XjFQvuB1bklMdaxYfj6CPu6H+TrIGOxmWPejzi/BVaEgqg/ncl7RVvJ1IHjepOBEhksqi06tP3Z6M3F9yXQ59rHOE5/tFy0Jh1v0gc3/q/h9fpxPP3qLJOvdf95qZscukVmlDUhDRJpX6/Yluw+fnIKmHAiHKU2aCY0tu2ZtykTWFfeufhM/Zfl/7HdQOE836nBnvdU05O99T2U6v3TfXFlF100/Fnm0a+rvUt+3gmi8SzTp1zleudW3bscdbZfdYnw01y87aR/d6yuLlHR+k9ZOmdU9NIqmxFVqnfooLVsnxTnTiyHiaeknTky1FvSw0Xiay51P3NRuJj8q9DFXs9XizC7h7wglqsfMJYkPUxyZysqkurxYie76Vm+5i51xpn+Yb9y2qrlIc8TXc1FqSRcMsIq/O5yvXutfMwcykFsXxKfaRuapXJN67QpuxMpOKHvX0TR45D3XLrB5Z8kAGC92LaBhhD65HNHy8yTHxeIZuw+jCrF732xVkRqXnZ0u+WEOQQzLattiGU+d0uUafeXbblixALMhky03i+2xDbs+tmXbWRro4fCEtptO6q5RBKRWJhdcKcsJjlfQ8LMDngtZ+mc5JpgQnXc/q4kV1bp3Bob5BRLwHk8rIzbsmmYMj3sXlBbqoElVKYs4YscZBZ78IK5GqfHzMkvO9lud0eqAx1eXViT6TqdoF/7rRG+drl2v9a+ZABt0cL0pfR5J3OvfAlVPSE22cz+gh1Smz+piEqBZpuJ2Bx4ED3HgYkRxdGONvzbbofIcgb16Qvqpxpk9rLzG55jej7Fq83Hi5jNLBXv7PzZCSQj7bjvYAdLlG8wDmsW3lIAXlptNtuclem2pnbaR7RTlhcDoLb6Krdlh7wv4uuDFeL2EeNntundZGWmo9GOL3ysNUO3lQKe19xD0klX7Iiv40DbFYJQU3Z9LJSNbjevffpGt6kPRFvq726OFBltQc5VqzzLKgGyv7XXTGc9uwujYzSkceZ4FOrLvdQEJVBzd9U7lfnA/PvYvXqux6yRN20A2xi3iw9pxR281h2ykprOqRZtt6pk2ICHrYi22dnbUaDPTVhL2VEe0exQ1AY5IzsoFPBkaoM1z7FrjXRiPdKB3iUJWnoRkM0uUNK4hsDSWXPHqQlFxIdz1yPje+mYEMHlVAs65ZcJSQKFEV4WVv9Cr3dxwhqN6REjPi5+Sks1skppoTG0qzQun1CqU3kBqyi3n6TGC7Kpdfkj1r2/cAiHJNpLulY49iZL7WX3tBxgjVQ+fuYmLQLY72LlRMs38sZ+zQGbhRlcCtgDkxsU8dJw/PFWzqO9TyLIzXlxKv9JLpmnsE1YNg4SX2EF/Zpqrqgmsh1o28Eb/Y7IZgi8V586LDICJMk3xdD2eOmbhuPH5tPPVIDygrnWTbxQSinIHlOf2SQNJ4tVecePCtfOAzQ+z7sDd0aXcVVpOlK2didb4KdvQIDbLAeOOVqbS/+7h6Ww270UH3/k2cuVXoazLyvKTRUoOiNn5apW1xJ6345QlTqPg0N/6ZpiKanlyNGGoQvz4ejQfrrNnReG/LabttFxOIciZkLqx0y+LGm+3BT5/2jKRbUcj7koMnL6CeWdBAF89WWu4+15rHqgdz+Ls/5woBezUytYm9vOyxViHbNZuKGSwNB870vdNOAx5YVtRzKlFZZuaoRks3bqUJGXgLxxuWV9aoKvHdjF19NbAsOAPJNZGXa8RG07zlwLZjsxLYi67VQ7R0um0XEYhyZrhbpuJpYrzWEPnBv2im7ETiVrKFxro8t0T0XOz3Zj5pbq9aBp3Oa2Oz5xq7c6KxLp7AlU/ihJSIvbmVTbqk3Fsgme5mf2+mGjXSK8h0zWZinl1QZnrK3tJ18+uciFDo85j4pPMsAgEz3WdWmmCAUc82YNwYvBpEZFH02JBPDLUHy2QeNDPixHabPuPAte1QmGXgVKY0hqE53tQc4/A7db5tFw/k6NsNMg/SeItRA7QvAxR/ojoAoFjAU94Npf3sNbAvlIip+ufvAgBAPSDKu8ETA1PMnNJTmjzT4gAAoBYIX+wWG8Iwuxb/WgkAAFAbiDIAABQIhC8AAKBAQJQBAKBAQJQBAKBAQJQBAKBAQJQBAKBAQJTTiC1M3g70mrX1FgoHacjrz3nWOVCvSzeSY9AuCmS3hpao7C4aLusuBKIMOhsRSCOKsoaxXhJTloBsYYMqayqoFQH16oEANBOIctuQ9TAc74q3zli9Knnfie1eeoqyClqvLGBzliYP8P6QeLGypnXOFcr2AvIik+f5xO3M67WmLgkqDVzt83WubRcTiHJbEMOe79A07LK0Y3jPsmqYXfw/+KyRleKahr2/Jdru7aESVQpwT/eWMImvXiBesm/UFkm2T8ncLQtrOQvr63CaSdpgnzVvUbvtZNsuJl0oyqZVF+8u5lnUa93DPGWxuG88xhhs+jidHJOF7MXo4t2JJJEBUe/Ed1/h8pFmS3ir+hzqb2P3l6ws0es1EteuHTN07sWS8OoajaVbL22W9m9VaYOG1Pl8ZRbPM5dMuZSnzGpgvlva3yTHDuKeZvNCLzaxaSTjeAS5tsn24TZk/B1mbQKHWAPn2m1u2449d18Z1bVt9Wx0GUWP9dnQ7m273XSvpyxrtjrpzr2p8B2kItmM1mFyRkYMRBYyD7wTnaMsnhGZq0XGbMiypm2ZyJ5P3Vc0Xb7cS7Y07LK4+XztdPmqkuw+DbvKSVcnfZDNc6hEya65G7lmA2I0M2nS80+xj9xDVJF47wptxspMKu/8yGZQDvqa5pcx6pZZPcxayt7M6JZgTWURDfY01Xew1yMaPt48YVakpOwaXZjVS8zGUk+pTNBsyRc9iWiTZLRtWczfqXO6XKN2lt22JeEEN6xky03i+2xDrmPQJNtuN10cvpC1jmunwg9g4bWCHM+WrDJBsACfC7yCZToni3I7mSHypWGPLWZksmboTMiahBdyOT0Ne710+c1Kwx6kP1I4vRFBJbG0KZDCFFrud9DXdLODZEQG3RxPTj8/WZTfebZcOSUTxsb5jGtb1ymz+pjcexbHsxMGDnDjYURSe5psi853CFI05S0LD9OnJdMJf3dfyi5l10RrJ+PlYnIvZkiIm8+2JewVPhddrtGUU3lsO+rFm7RljmPQLNtuN90rygmDk4rsSVF/WHvCPkEOjNdLmPLHnltnUJCWWnel/F55jlT4Dmlp2Guny29iGna1jKnNg2ezNJuKZNadVpg8bMns4MtUkcrXYFp9QTJlJJ8RP6XDg3z9HOVas8yyoNfTtuWnk+vahtW1Gcl0zSWTWOK1gdx9Dm6mkHK/OB+eexevVdn1kmdA1Dw/Bx1yCc8b2m4O286cLSVKmm3HbUgEPezFNtG22wwG+mrC3sqIdo+SIiKYVDts4JOBEWpP0LeWsjYa6UbpEIeqPJ6QQ33icbICpGFXXXbjTYrw3lxjb89NVuo2UtZr9tBQBuXioYREiaoIL3ujV7kf4AhB9Y64BLbxCtMf2S0Z786ODaVZofR6hdIbSA3ZxTx9JrBdlTYqyZ627TYDUa6JnmVQK4Gk9oKMEaqHbkarne5oEu1d7MU07BI+kDLZqCywt6e9Q1VGGbrCiqzHdQKqgWHhJfYQX+GehOo5aCHWjbwRv9jshmCLxXnzosMgIkwpSVPPHDNx3Xj82njqDTWQe9e22wVEOQPLc/olgaTxhvHRtj3wwqZht97VgPIMxROWJJ8y6q/ObkMCnhi5Jq27uXt0vNv12hkTZ24VQYxdnpd898tXaH3Hxk9tT6GBMIWKT3Pjn+ntuPpJU4P4dSRLu3528nduvLflFNa22wtEORMyF9YMREWMN9uD74407CaOOlKmYfEM5TuJAO8bprI0XKq7LuiB0PiMEj0glXW0PyemIQgHztgjOz7MXnkDHlhW1HMqUVlm5qhBNj0QVZqQ7xmGcpZX1qgq8d2MXX01sCw4A8k1kZdrxEbTvOXAtmOzEtiLrtVDtHSHbbcXiHJmuFsWpGG3hsgP/kUzZScSt5ItNNZuScNuB2RCb9cM3jFuTF7ij3raV3i9cm90xkNzMc8uKLMx2j45TkvXza9zEs6NNfFJ51kEAma6z6w0wQCjnm3AuCEaNYjIouixIZ8Yag+WyTxoZsSJ7TZ9xoFr26Ewy8CpTMkMQ3O8qdRn4XfqFttuJ0gHtRtkHqQYaSKGLFPCpMLKyHerhAYAsBeBp7wbzFSv5BxQEysEAICcQJR3gycGppg5pac0eabFAQBALRC+2C02hGF2LZG38gAAICMQZQAAKBAIXwAAQIGAKAMAQIGAKAMAQIGAKAMAQIGAKAMAQIGAKAMAQIGAKBcIvZB4vewNIA1ZkyLP4jNqDYtMq63FsCu12a2hdYO7i4bLuguBKNdEL7jdaatMdRUikEYUZUEkvfCRPLcWLjojC92oZVr1kq4ANBOIctuIZyyG2DcFWZqyV1YVO0uTB3h/SLxYSTSQc9nIvYC8XerYl9fO4l5+Yos3ZtoxcY9J2i1su5lAlNuCGPY8DVM0o8ISzdZcqxZkQdYDlvJcou3eHipRRZdvKxMNFJwws7rO2iEpkQKRDLx82YynH8l8EiY21eE0aeCimVGidgvbbjZd+Jq1WVZTUrqvHIysW2GTo4ox1lpYO5FEVbyPCbP4eAS9dOcNdT7JGuxkWPagrytp8Cs0JJXBfJ64HiMxukgeN6k4ESGSyqLTq0/dnozcX3JdDn2sc0QHLTlql0mt0oZau3mTSv3+RLfe5yqph4K0S3nKTHBsyS17sx6KrCnsW/8kfM62jO13UDtMNOtzZrzXNc828j0tKfcvmHORpxxd9Hepb9vKXmXN7BeJZp065yvXurat6lufuuatsnusz247z7a711OWhbSPD9L6SdO6O0kk40kg4+mefIIceif6b+Jp6onNMFuKellovExkz6fuK5qlQyrCUMVejze7gLtnwEkljpwgNkR9bCInm+ryaiGy51u5GctCUWRmJrWosIdXkapeEU9whTYTmU0kg4UIYVhuKo+ch7plVg+zwL3kK0wlWOheRMMIY3A9SQDQ5Jh4PEN3HVR6frbkbJlgMtq2ZFhx6pwu16idZbdtyQLEgky23MTrZ7t1BxM71La7OHwhLabTuquUQXUqkgeVnocF+FzQ2ut0R266ntXFi+rcOoNDfYOIeA+enHbSaES8i8sLdFElqjQp/V1ijYPOfhFWIlX5+Jglp/Itz+n0QOmZKgqEdMcdL0o/P0ne6TxbrpySnmjjfEYPqU6Z1cfmKzSoOG4osgMHuPEwIjm6MMYlzbbofIcgb16QvqpxdJot/u6JNb9rMUoHe/m/DEls89l2tAegyzWaBzCPbStnKSg3nW7LTfbaqbbdvaKcMDidhbdWVy2JMV4vbkp9fW6d1kZaaj0Y4o+5hal28mBTMSWIe0gq/ZAV/bRkpZ2ZdFLSF/me3+jhQZbUHOVas8yyYPIVmvLTGc9tw+razCgdeZwFOrHudgMJVR3c9E3lfnE+8ty7oDNuu4gHa88Ztd0ctp05hVWUNNt2U4wJuodrG9POtW0M9O0Kk/+Mu2WTgRHqDNe+Be7jYRFVeRqa4ypd3rCCyNZQcsmjB0nJRSKHmRvfBI2ghESJqggv0dpV7u84QqATyRrx8+Tni8RUc2JDaVYo83uFMU+fCWxX5fJLAttuHhDlXaK9INc74e5iYtAtjvYuVEyzfyxn7NAZuFGVwK2AOTGxz3jMPNhqfgdQF9WVZuGV7N6vbFNVdcG1EGsvz4hfbHZDsCUG5vKhwyAiTGmZrNMwnroTCsgObHu3QJRrUq+ro73ixINv5QOfGWLfh72hS7ursJrODFPkZfW2Gnajg65AmDhzq9DXZOR5STjk8hVa37Hx0yptiztpxS9PmMLOM870dlyWTNZ+dNbsaLy35cC2FRDlmphKk9riZ3vw06c9I+lWFPK+5ODJC6hnFjTQxbOVlrvPe3qyvxksDQfO2COT6V47DXhgWVHPqURlmZmjBtn0QFRpQgbewvGG5ZU1qsqshIxdfTWwLDgDyTWRl2sa8ZbPHFPervQAa803hm03H4hyHZbnZKqNnn5j41LhQ+YH/6KZsmN+F26hsS7PLRE9F/u9mU+a26uWQafz2tjsucbunGisiydw5ZM4ISVib02eknVP4S61nVqlvtsYbZ8cp6Xr5tc5EaHQ5zHxSedZBAJmus+sNMEAo55twLiDzGoQcYU2PDbkE0PtwTKZB8124S3PsX2yrbkDh2K3Pc53gm03H+To2w0yD1KMNBFDti8DFH+iOgCgWMBT3g2l/ew1sC+UmANqwh4AAJATiPJu8MTAFDOn9JQmz7Q4AACoBcIXu8WGMMyuxb9WAgAA1AaiDAAABQLhCwAAKBAQZQAAKBAQZQAAKBAQZQAAKBAQZQAAKBAQZQAAKBAQ5TRi2SLagV5IvEPSMBUQWZMiz+Izag2LTKutxbArtdmtoXWDu4uGy7oLgSiDzkYE0oiiLCyv1ymWdXlb2KDKQjdqmVaTDRqAJgJRbhuySJHjXfG2p5fLbBeyNGWvrCp2liYP8P6QeLGSaCDnspF7CXnL1LEz2dwV57xea8o6zeGKeGbz9gpg280EotwWxHObp2GKZlRYotmaa9WCLKzSwrNSnku03dtDJaro8m1looECo0Jgx4eJYokXKtxYpQdZ2D4nSjoDSpDtRAutzfEXnKsyFBNc2Haz6eLXrO3ymmaXopl2lecw0Rf5TAxeL7gdW5Izsf5F9Pf67yh6fg/6OEmDX6Eh8fbM55LZJJ4QVDyYSB63xPKhUll0evWp25P8XezZfOty6GOdIzpoyVH7HKu0ISmIaJNK/SVvmYXPz0FSDwVClKfMBHPtrVjZG3uQNYV965+Ez9mWcR1bzIq5rghyrQTAynZ67fc21xZRddNPKfsv1V3DJattB9d8kWjWqSu+89e1badu3iq7x/rstvNsuzs9ZdW9M4YYtO5LROX0gQhboXXqJ+ehOhUh8CZObtNYopuXNUW9ZAQuE7GxqnOd36CekdlIfFTuZahifq+uZxZw93QtVeLICWJD1MfKguGlCSfeqspCC5E938pNuYcOGXCcmdSiOD7FPjJX9YrEe1doM1ZmUtG1EIblpvLIeahbZvUwC9z3PVSjCx8sdG88TfUd7PWIho/nj4nrrN1VWn8lXZDjjC7M6nW/U/IB1vwOARltWzKsHB+k9ZNuuUbtLLtt68QTZbLlJvF9tls3/NKhtt2Vojxd5pY64iEJ3A2e8xumtMxWkBMeiFpTOVYRJIOC07KvLl7k9pkPVRkc6htExHswqYx0enqNZA6OeBd8vYsqUaUk5oyhklCGjYjOfhFWIlsWS873Wp6TjMSNZEG+B8igm1PWWkQkeafjuXHllPREG+czekh1yqw+JiGqRcVrQ5EdOMCNh+Tt459HF8a4pFkUI/YiCU/d9FVZkKzZfN48afyVXYuX6ymXII2UZO1IbyDy2Xa0B6DLNZoHMI9tKwcpKDedbstN9tqptt2FojxNQ1xBq9ev+AU4zmHdjfMKsqDWVJZWu5ZnozP86rQ20lLrwRB/zC1MtZMHldLeh6n8ASr9kBX9tLLozKSTkr7I94y0B5mjXGuWWRZ0kgNbfjrjuW1YR+lgr/qYMUKaWHe7gYSqeRGvVdn1UkrYwcTqJT2Tsu+0Abwctp2nwXBIs2090yZEBD3sxXaubXefKB89SFJF4g/UDxvjiHaPUo9XFVZa39Bw0zwGbTTSjZLjjXfhHc2uh3R57bX01lBySVMW2htyz+fGN0EjKCFRoirCy97oVbYQRwiqdyR4MUD7Yzn+7BaJqbYC6Q2o0Nh87QE56Ykom9XT/5SteOYbw7abR/eJcpZ4X4B0t3TsUYws3Xi1t6CMUnkW9eJW+ngV00zNlJ2GGbhQXWxzTd60p5ITUxY6Th6eK9icLjVoANWVZuEl9hBf4R6V6oJrIdaNvAlzyECWr/xT4rx+jHedNcu1wIKbPV6uPWdlZ+xlT9apC7DtxunC8IXpvjx+JHPXUGe0FmHOYLziWShh7qODuQwyIzNDLPlEG5fyVNg0OjNMkZfV26oZjj4PE2duFfqajDwvCYdcvkLrOzZ+WqVtMRErpHnCFCo+zR6fx1vVma6j4w/1COLXxwsw+AXbVnShKJuU6xJTi3SvRmnxdNrsC/ESbIgiarwyWhz3oKeHxLQ26ZaJn02f9oi5FYW8Lzl48gLqmQUNdPFsWXD3eU9P9jeDpeHAGXtkMmNmpwEPLCvqOXGPSaaVqcS6eiCqNCHTs0LbWF5Zo2rCFtPRtsX4PGJ2CMRDlS57/HlOn04TXWvb0d6dz66l3CbFztiTPWfi67Dt5tOFosyIN2un2gSxplmilVotNHfL5G+U8YaGKLG0ypA9h97UfExn9H55bonouegxMsFf5rHm7kZJDFs8cefex+6caKyLJ5iyoETsLUuXtlMwzy4oszHaPjlOS9fNr3MiQqHPY+KTzrMIhMx0n1lpggFGPduACabDMXZMImKLsXM5aG+YSRk0k8FOPY0y+jyHKrVmnri2rYXZZ9fypqSaXuaEVWDbzQc5+gAAoEB0p6cMAAAFBaIMAAAFAqIMAAAFAqIMAAAFAqIMAAAFAqIMAAAFAqIMAAAFAqIMAAAFAqIMAAAFAqIMAAAFAqIMAAAFAqIMAAAFAqIMAAAFAqIMAAAFAqIMAAAFAqIMAAAFAqIMAAAFAqIMAAAFAqIMAAAFAqIMAAAFAqIMAAAFAqIMAAAFAqIMAAAFAqIMAAAFAqIMAAAFAqIMAAAFAqIMAAAFAqIMAAAFAqIMAAAFAqIMAAAFAqIMAAAFAqIMAAAFAqIMAAAF4mcOHTr0j+bnptHf30+3b9+mu3fvmk+KyfTpC1TuJ6pePUFTi6vm073F7468TFP/1OwIf3eOfuPqGbOjyXJMLp76JH3k2BPUQ6/Rjakv0E/MxwCA+sBTLhzTdOrCBTq7MGr2m8Dba/RHK5+g35DNI7Z/ctX8buXzdPVt82FB+OAfv0Af+9NP0vvMPgB7na4W5eW5cRofH9+zXvI94+tfou9PfZq+3VYv+eP04bMs4MH2Gfqg+U2c9z3/ubrHAHCvgKcMOh4tss8QvSQNgd1SGoSnPkkPP7HP7ABQPLoypmxjyZaN8+N0LNarH104S/OPr9OJZ2/R5IUylczn8fizOhet0PjKQTp7fJh6zOeRcx5dVL/bjF1H/W3vGl9jgUiuN2L/OkmjcW8VL963Rn/03/+ALpvP0jlC/+lfPU8jO/GYsnihz9AHrp2m73/+VfOZFsPBJ94M48ZBLNnw9jVa/50v0Xtm1yIhiQF6ib791b7I8Vssqj/8Iv8QP08c97zm2Hfs39ZBXfvBa3Tjbx6jAffeASgIXekp27DF+Mk1qprPvOwbpvkLY7R90hx/foN6Rubp1Iz5vaW/TBeOD9K6Oe7E1SqVJs7S4lHz+wysLk7pa4yv0Abviwjrfb11RIglCFt8mm68bj5L45Fn6GPHHqQfmePXr+1Q7zOfo96n+Hfx84gIm321OUL/wd9k8ebf/ziDINOnPkMDj+zQD/8s2VAAUBQQvqjDxvkpWrAu5pmKEsy+h+KDcFVaOxket7p4kY/rocHDTRys23OwOJ4KvdT3/vpVLsV9dN+j5oNMPEb3Pcj/vblJ75MBQSem/JHnH9OHBLC3/8yjVL32Jdr6uvkIgAICUa7JBlWSkxWS7KzTlUhs4AZt7xD1HBgw+yDB26/Szq7F8RG673757xl64LuOJ/3Sa9TzxFxEmN/3/FPUS6/Rj5zwCwBFBKIMOp/XX4rGk7/4BRX26PmlJ/VUOjO4t/US4seg+ECUQQfzOt2tO6/6Mer9d09QT1y4ASgoEOVWcPQIDe4j2qgsmw98TNOQMwMkpFNCH4/Rvl9q/dSy97a4MO5/MOXlkVfp7pv834N9sd+Hseb3nnqSfsGEONyY86CaFvcoDah9zFcGxQGi3HRGafG5YerZWaNzNh59+RZt8n+loWm9r97aC6fZRVmlW1v8X/9YrtkbrUV7pEE4QLzPP52jD4vYtZj3NkV1H6VfTAzcaX7y1WtUvf8JejgSP/4k39sO/fCrX4vM5HA3me1B6jVw2UdYAxSHLhRl/RrzBdnMvOLShNm/cIp/2wBq6pw9xzwNb63Q+LMLLK+WZTom0+9k6pw6pkx0Xk+d87E8d4LWdnpo+Lg9Z5Nfu87Nq7T1Oy/RFovfoPIs5+gX/ua0GlBzCd+Ue4EGHuEPguN9syEy8sUvKAGVgTt77shr1yK6p64ROb/Xc6d/H7MsQEfS1QsSNQP3BZAiziRuzssjAIB2gfAFAAAUCIgyAAAUCIhyN3D/MP2H8sv0P2Qbib8jrkMc6nfl52mkDYN3AIB0EFMGAIACAU8ZAAAKBEQZAAAKREvCFwAAABoDnjIAABQIiDIAABQIiDIAABSIForyu3Tp4g/ob2X7z++azwAAANSiDQN9Is5v0MDGh+jh33u/+QwAAICPNoQv3k9f/sbPEfX+P0q+SwYAAMClfTHln/8pfcT8CAAAwA8G+gAAoEBAlAEAoEC0RZTP3PZnWAMAABClPZ7yjZ+lHXqL/vXiT80HAAAAfLRHlC/10K+MHaL/duDv1Lzl70CcAQDAS3sWJHq6St+Zf5N+vHKInv4T8xkAAIAEbfGUZ556h/bRA/S/IMgAAFATzL4AAIACAVEGAIACAVEGAIACAVEGAIAC0QZRfpeeffL/Em28n+bNJwAAAPy0UJTtespv0MA/PEifw7KdAABQFyROBQCAAoGYMgAAFAiIMgAAFAiIMgAAFAiIMgAAFAiIMgAAFAiIMgAAFAiIMgAAFAiIMgAAFAai/w8JTlNZggE6IgAAAABJRU5ErkJggg==;" vertex="1" parent="1">
          <mxGeometry x="-500" y="-565" width="180.91" height="150" as="geometry" />
        </mxCell>
        <mxCell id="R_uyZLrXPGm5i9p8NuaK-60" value="" style="shape=image;verticalLabelPosition=bottom;labelBackgroundColor=default;verticalAlign=top;aspect=fixed;imageAspect=0;image=data:image/png,iVBORw0KGgoAAAANSUhEUgAABPQAAAD3CAYAAACaYgrSAAAAAXNSR0IArs4c6QAAAARnQU1BAACxjwv8YQUAAAAJcEhZcwAADsMAAA7DAcdvqGQAAIgGSURBVHhe7b3LbxzJle9/2m43R6MSKctUs6jXUD0SRaIflgaUG2MDPZQBC7iC0Ju+uBhoNWgDv1UD/gO0mU0vvWvMUpiVFgM0fpuGgKvFSIDh6+kRMdJv5B5JlGzR0IMkRHNEqnRl9tjTvzjxyIyMjMyMzMqqyiK/H6C6VcmszIgTJ06cOPF67ciRI98QAAAAAAAAAAAAAABgKPiW/j8AAAAAAAAAAAAAAGAIQEAPAAAAAAAAAAAAAIAhAgE9AAAAAAAAAAAAAACGCAT0AAAAAAAAAAAAAAAYIhDQAwAAAAAAAAAAAABgiEBADwAAAAAAAAAAAACAIQIBPQAAAAAAAAAAAAAAhggE9AAAAAAAAAAAAAAAGCIQ0AMAAAAAAAAAAAAAYIhAQA8AAAAAAAAAAAAAgCECAT0AAAAAAAAAAAAAAIYIBPQAAAAAAAAAAAAAABgiENADAAAAAAAAAAAAAGCIQEAPAAAAAAAAAAAAAIAhAgE9AAAAAAAAAAAAAACGCAT0AAAAAAAAAAAAAAAYIhDQAwAAAAAAAAAAAABgiHhtZmbmG/1vAAAAAAAAAAAAAABAw8EMPQAAAAAAAAAAAAAAhojXjhw5ghl6AAAAAAAAAAAAAAAMCZihBwAAAAAAAAAAAADAEDE0M/TaF96nuX1LdP2zVeroaykmJ2j+4ynqXPmSFm7qazXSOvs2zZ9+SQufLtGKvpaHTPNRos6NW3T96pa+CnwYWRlWelSGldG61aLV4PKvTPQuzUaB3oPh4tQUnT9HvdcjIOmJbZFlOIG6CSoyQsc/OUknxprU1qk0HVys0V/pZ7sJMoh1zbDtfNIdYo9r71MYuUVsv3qKflh5GiezHveJZN9+eq0BtqMHbXAfCY2RNL6/P6QMyQy9UTokCn/ll/mVrfXuOLVERb8LxRg6Vi5/SV98Kj6XltA5Xl6l6ywL8Vl4qK91CRvQ859MxA0iGAzsmAgHunNjGZ3bPlHGtgx7PUE9L0+dMmOH9vzFKWrr78PFFt0XPlbr9EmaO6UvDRtsXy+KzsKwpr92TDCPAzXaDooPAhtdsh30TAfzOGhj9OKLoQnmjdKckP/82RH9fWez7dv9HvSJIkQ9mD/dKowv9Idt0AYHgP5+bxiKGXphUV828LPUKj2ioH6X54CbUYqyM/RABfRITK9mWQ4b3FAXzkwNoK7nNBp3FE/k9N6lr+j+svqm6m8rNeooZeMbjUw9r9uRJG1rHt6hLy5v6msWBenfKZjySMq6hhlNAbZl2OvJQNJfez3pL3XKbDv4CCoPNJy2J6CO7yi0PKi0Xwxy2QZ6ptrZYZ2RV7W/tz0Zdr+lDLXmNcc+qvqhv0S4PnlO/MCeRejxkZisGZDD2gaX9n/QXtfKEMzQG6HJaVENHq7nK8ipfaJSdejJ7bLGfVMonxmd+pKu3+Dqh9FMAIYKHm3WDbOpt198+oDoo/Rsmdb0XqthVbN/XbhhSj/vS3o8W332TevsYfFbYVt8wbwS6d8ptGdH9b8Ek3vpoLVkDDSDXtQTMFg6Vx/QvY0WnfgIMz23C51n8GGBh41X2z4ABEAW7TNTclXfQlYfn4Nyll+z8FC0ix/bM0Ot+MGVVfGdA376uyfgyAOd5lkca+CZeL5ZpmiDQRWaP0NPTgvfXRCp1rM31jNmvpQgL8Ic/22dDllR+awZP4a82QruvVkR+yD0FPqIxEwgM5KQNcLgXHefldhbI17nf3f8pEy/TPezSf2b+FlSZnJvglc0kyOziICIvSqH2Mx1IzP3WUmZCdyRFd/eDVJWRAuXRB7lvSyrZdqjZxRFz8zIW96IU9FoVGoUyU5/xqhQRCov7miTf/S2UGZlyNWzUHT9p2w5MVJW4p57+8aJPte6zu+ffSWuTcX7Vmi5+UbtqpM3ohyW/piwciq6L7Zn9m/ddFq29dquhD6l652+Nwq8ubYmBGNblqhzehc91mnjtM7RmrgmykXXn7D0W2TZljL1JNfGGlQaOJ1399t1xVNOqXenZRbn07IpjElXaPp12n32UtmRknWvTD1JpTH5LlU379D1tcNKXixXS99MGyplEdCeeO2mToMs/5VAmemv+eXk1jMXO68l6kiBzErpWSqNBXVT60q3s2GjtKfaGqZM+tNtnV3m7t9c3Hyk7nfqcaieGVQdtbTDc1/IPaG4z8psg22dr1KOFkUyCyO0zNV90o5HfqUiUZYB9lilO6dO2L/Jrefl9ayuMnff662XMu3j9ESk98UZ635v3dPPLJjpVKhnUv6qf5Z4p12e8p4A/1ji2sekzFLpcbDvDZKZxr3XLSf5d9E+uT5Q3jMzCZFZhGu3rXtSuupgl3vgO8vILFe3db30/V69I/+9ebZF3lvHDL0C2+h/j9FPT1lZMk61q9536bLNqJ95MgxBlk9AG6bKMce/1F8Zt5yyn5UfI4koKINCf0nKKNS2bH++PTY29vf6342k/eMTdOBbT+nX//ySvtbXUkyO03t/vZfWf/Vbepq0hqV54y/fpKmD/0VPf/E8VcHU3/bRgQ/2SwW8/k9PaLHzHXpnvk3fPHhG6/oHndvi+i/E58Ef6cCpvfT1/SfedMWG7Sv6N75ffP7w/gxNrsXPCoUr0tn5N4Sy36R/ucLPekGjH87SXx1+QYty1uIWPZXpeZMO7DXXOA0nafq7TiXhSnb6BV39h9+qfPxijb75/jF67yffoU0pl9fpez9o0+j3WjT+6D/o/zxt0fS0kMu7/0X//ukj+tYHB2n8j2u09Js/KZm9JT4pmR2j0Y5HLntaNFUgsx++/Z+xzESeps7P0NQu9b4yKOPD05qNzMQ7J0U+R5/F7+68pCVdNpuHD9GBXc9p6V8dXZzcS9PHd9PoW9/Q3Z9z/qfowPdbNLqoZDP19utKbhl5a72b8VxB7t9E+t/63U0lUy2LAz8+Tu+YMnfT/i1hoH9+j36try3az+Qy/9lxekMY3qv/+Dv9mxM096Epc0WQzEIp1LNQlD6Oj23RWs7vpCxpmX79aIzm3t4SMiI6/j/b9PsrD+lF+xBN/fl/Srm1fjhF0we/pof/e7l0Pczk1CT91XHRvnifGZZ+SWA5yYbup6KB4wYtku9/08yFEXqq677f1o1I+/aGKExVn3Ta2vtp+tTr9NCUe6oOs3PyLk0tx+97uutNmjv/ZsI2FqNty++X6LdfH6OZSa7Xu+m9v32dfvuPrB8iLX+wbEth+i2ybEuZerLyXMtSp+XVWmRLY1Qa2seFTrWe6mdp3f7BH+lp9Dwhs7/7Dv279a7Nw2/Rez/em5BZ3O606c9um3IX9v0nuq7/aj0s/SuvZJoPfO8PVhqYUZr5cL/QlUf0b6m8ZBNaT2TbJPRg3dh/mU7W2Tifsm7u20Xjrz2iq7/6b5r+wTgdeOvP6cnl/6Dfv9UWclQ2LbQ98dpNu/zvlyjzwnISbau+/nTXXlFWVvskP7Z+/onW/1VfF+mePv4G/f5mun6EyCyhZ1//Rte7DD0zgYvIFmzRW3+3lzYT+bRY+W8a5We/HvsKpQhpN4PTX+wruT6XLTf+2PW9sN0UxHq2i55k2jyGOxxzNPfW14k2ce0vD9Nf/N/nUbnW57eY99k6pn297xuZcXmfpL/64JCw2XvpDfGrlpDxNH+Xn7Lta5jMwgi1jeq+fQfboo5wB1HllevXO/NWmxJgjzuvcz2boG+5/qZuk+/9v491ORXb4zJ6VqevGtSnkPZN+PenDtHoA087IeQi7crfviX14MB3xW/+TNirSC+4npq0heiZQPq++2hcvPPAc2NfnPIM9Y/F49oXZmjkSlyPTJ0z6fr6N8/UdU6L0A8eTDJ+EH9suYb1w1Rdmbbtvy4nW7dle3KUfaAt0cfJ0MVQQmQm7yvw9Ur592HvLNN3zdXtzPZD+Rp04wH9WpdVWduS1ycqg/Jf/pPu/pPfFvrfI/zOY+L6d1+mYwRSxv723O97KhvXWhZ9Ek8+u22DQ32lQv9Svjusnshntd4Qvz1IX+e8MyLLJ5fwOwv6FCVsy06g4Utum3kYRiJifpOXArfo4LtlN2cdoT37xP+cpcQrl3NGzTMRRvI07w32wPrtJi3wFOCjh+n4pL7EG4vKa7Nqw03R6edo+8oV5518XyKqrTbqJJqgQ9ZGna2xl3TXRN3HxPuvxCMWrfGkPJIyW6Z7G6JRsJfUhSAauBmZXmtkRKR1QU5dnrRGscJojbeINtZI2NOIztWvKo2GiKcRLcYHHbRozZrGvZv2mDKokVRahSzu8oaxR3n5eTl8U89XLt8R+REyt6aE1yqzQD0rJv4db5R8/kK+XnVur1GHZSQag4OinOy8cL2US/ydPHZLe3Yi55nh6Q8rJ+GM/0i8LzU6JWxC5dEq1ZmO7IS0e0If9qt3+pYTR8sGzpSs55qVO6tqeTRvp1C05UITSYxw6jIeG6fJyBaI8nBGQFeu8SbB/vaEbWg8yrlJj7mu79vFlieQLVpeFG9LpEGgt6u4d62MboTWE9M23UrYCKWzjm6MET2J0sD21GrPnHzW0p4EU66cuqeEzBjWs6jemTK25DWp/r1yxy7fdJ6SVNGvihSlv1ZfqVy7mfCNHJsnOTVJJ8bSsx07V5fi73X6LdH77Nkh2tcbm6IZ2W6K72YZmN50nOuLWepV5eCDOn0NSaFt1PB9Vnpl2y00Y6zMS3W5ufYh3SbXWM9r9lVLIdr9rHaCy9HogTxcQMo31o3od0F6FsO2KvY1fHVY/CvAP07VaW3bk9uk1Efkt9jlrssp0XeSJOVRSRctimQW6pOXobicAgjSba13rn3wbI1Vu20JInArrxS6LaphqXr7gprBlmyXbeppg0N9pTz/slQ9kbEAzztFn6RMPsL7FOKpfe57N5VGB/RMgT62K3sK7fwu9isKW5SeULboxbr439HZwgBEIVn7B66w0XEanJuigRAVtX3ufTmdlxv/hDHNQj7LIWEMO7SRaRldmem8lzRUMnDrkX/n2Uvx3/IVt7MmciSck/laTody5L8+mL1JZJ5KowLn6Tq0RRvsTFnB2Xpl5sGnZyEIvf7i01uy4ZB1igNjidMmVUPcWRNlJB0G4ZR8NC4agn7YDe0E5OlEYfqZwHLiQOWYEGWmo1CBlAOjOo3KAchyjqrU8xEaE2mXez6xI0DjNCccgVrz0idS5eSzxy7LWTqStq/ypLDcoEwa0wmxO6j5weYukW2TLs8EHmfVSUP2vl/1tCddkVlONVBGZoJC30enldv8MifnKVvfe5kW+241+koZ+NvNYl8vpO7U6bfI99FLeuG+zxds7DHVfA1FsG1020zRdnMAKshnjdiku7LjaQcIstpSh4r1vG5ftQx1tJVl9cy1VSpwaAcDq/rHuu73BDMolU6LN1hXcxuZL7Nwn7wMxeVUTKhuq2B4cnA+1NfoxraEof1M7g+UgFe0yUD35+X8LoPsd0vf3sw4z7dl3bfBob5Snn9Zsp5kvbNUPsr0KZrR924CDQ7oqQLt3Igjr16k8ys66NYoxrDAFUYewhF14Ksdw97av5v/KzfrNM+Rn4z9FdQoD5OMftvwlOqQZ/UTOTvMzGKyP/YeKiWQjZkecZw3z+pRh6E38JRkSw7ik7e/SCZ6Bgdv0Go/6/xFe+8CRd0yq1fPtuj+Z3q0mdOodcXXiZWzv+wZpkw/AwJeCtIfWk5tvi8vwF43yjmy7Zj5JPZFKQ2PILNlS86+rurMNhFebpKUWbzvSE/Qo9/xjIewWfDdkaOLfQgY1UHfy6lWmXHwXQ0WxB2Kt53ZJ82mLl9JUVO7Kexe4UCNoG6/JW92SO9sY10yGwyq42kFFzL6DXXV89rLfBAMQs94makjs+58iABy6m8/A+QJSvjk/SZYt5ef0xNuc6LZYFm+RoNti93PER+5p569UqUkZqa0Onyz+kzLgdBFPSkfoO1Vn2J709yAnp7ynZp1lsAsLXOjuMODGiHhSq4c7qxTb/JQIyM8HVwHA5xPcgSA98YQTsrGKq1sCKPsmWnFQZa5o87z9NKNQaKMghrVsPOnPhWNrJwZpZ4hlyD0cBZAvXAjyOXoLJmQDUVJ9Ci0nI5vPSv6uEHfmmTWUz2TaVSBa+9Ub/l338ikGU3yLP/pJ770h5ZTyEywWlGjxnKJry9dJWeR2Uj72MXvmwx3HtlxTS6HM4MtvYOD2ZF+646tO9peTE31JKfT2BQGVU6ZVJKZNVggbSwPAA5XUK8OX6nWdtPUgYKBoJ74LRmUnXESRp0yGxBOcEHOFHL6DXXW836W+SDoiZ5xMI8HdB0/QvqYAyJ7lniPKeuT95Fw3dZLes3MWK+v0XDb4qSrLl9ULR3lNqzHy+/7RFE9UVs1lfFbeten2M40NqAXNDW3F0vLBgY73NpRLTv6VaID3zp7TE8ZXqIFuW/JFM0lnGI1ikIPH/XQ6Qhc7uDQ6+UKPAtAOg99naml5V0WvSwrdGaNbIQzZ3ZUn8ZfXWb90DMbPeITgAx4iNzUtz9WWMevmMByMkvsquwppvWqHHXlT6BHpitTKf0x+fWkO5JLVcwyhnr3fg1Kv9zTROm3r2MbSlA9kUu0fPdUawP8hD1LyT9NvszKlVMtbVSvZcbLFnVQL89nKO+E94scX0nbvswZAyXbzSKU7uQHtev0WxLBeBuZr6IB8IrULDMfWcv46kPoDPu7Mrig6lGy31DSHhfoWa991V4zCD1TOiD6JkF7uXa39FThBJwseq+PRZTLXy/9Fpcyut25+ki0ZWpmrNfX6INt8VOH/nSDtkcFs/Tqb4Or+BDd1hP1znJLYWvsUyTgCU16pp9n5daw08yAntl0s6CSm01D+3UYRr2MpmfH6QBl6dEvvYyqfa5gxP3UlByBjA7PuKn202udPmb9Thm6ROXlEzNrXHKrNgOtsExad0RPiLS4hqU8XLH9e5T1bA1+KtCiR6f0t1LovebsoA3PeMuaqq4a4azGwzi7swUzHuqUWZ165qlLArUHZ5izkHCIonqRngHSvlBN9zIdZElo+kPLaVPvGeTeJ95jzaQ0OhEvQ1LH5FdB7pfCyxN6Ors12cjXmX5Dfj3pAtGmzUnba7aQ0HmxdUIuN6poDzRh6VcOGuu3nCFb6jAMi6B6onQx2cbw3yu2AR58z3IDLWb2jY8i21iqnPTgWtWDYBQ1y4zbfSdvpvOcvSy/x21hKcr4SrqjljXzoWS7WYTqsKZ9ktbZqbjs6vRbzLM+suUh5MN2r1eDYzXLLEXKNvYIGSgX7cUF4XOk+g1l7XGBntXqqw6AAeiZssP2QIbqfPuX2OnySh1cUQ4TcLL9or7pYy6hvp6iZ36Lj1K6rfZ9bc9OifbE42v02rZkkh2k6htSjjk2pAdtcFUfopt6Yt5Z9kC+nvQptN/A2Dq3XXjtyJEj3+h/NwblfPNR9XmbdYrGRTS2rRu3rJNZuifv3f6/uelQ3/0VlKcpW79lh8EJYPB0/3Ib/sZ4Oy3CcZGniUXvctIQpZeXPprp0k4e+BmfE82J36vTa7ihPUkn1tUpmuq9pH+vf8tTZaO/ZaRJfy0lM4Faqqm/GPT7ypF+L09xt/XJm35NdK8MJOzOyb+RjfiRU+Zc3nf3i3um1yKZBL2TcQIY/LcFOiZ+m6e/1nPdcvDoo3iqpRdMsczCcZ6V0jN9PQRv2m3dUe/KshdKNo7cPAGi6vUz//3F6bcIKidBKv3p5yV1gv++THtE3T64aNKp6zq5ddZHWjeYUjLTecsqf1n3eR8Tb13xpd+fJoVfvnn1xGt7NHE+Q+WgZRvNHOX0rNMhR09UeiwbUkBe+iOMDvn+VpaAelKUpkS56uepZyT1j9znMBl5SJSVvOcVzQjZkke38tMXVk4RefXOW3c1Tj6Ky9FvU9TvkrYs9awM3Y+QeTBtmr5WgvT7YuL2Ijz9Prll25V0/Uvc65SPr930piEjvWn98LeJ9fktYe+TFNjTYAJkFkaobdT3FcgnzB7HmPv98ipZz4v0TFBPmftlpkjbFresZRqsNtOQdT0mQM8Stlpfc0nYkmS5qnoWt22u3eDnPp7NSmde+gJlJgksRzcNVetWiMwM3vbC4+sJUjbXbi+C3llGZiV029iOVPulMX/X+GxLKm8W/rocQEH5FdcPJkdmdn6z3qXz7s2D/FvNbbCnDNw6mE1xPfHqa4bfUrVuMtF7EzLS92bYFkVsM4Lq35DRwICeEnjcIctAFiSljAxoFqpSlXX6ANh+hDecYLhRjoW/E9gQtONFTU6jB7Qn/UA7vXrADoD6GALbCADYEaigZDpYOXi6b4PhK+08mrfkdocchgEA2FlEy7MSy1gA6D9m75M6lryC7UW0z27VpdgAAABAw5HLOt2lpA0AbTCoQvMCevJ0x6IZLFvqxDaMHgMAhoZNWuDN6Hu+1xwAOZxSe6muXMHILXCIdAOziAEAAGxj+ICoK+F7FfYFtMGgIo095RYAALYdkQMxwM14wY6El2Dw6V7B+/eAHYZa+SD3MIJuAAAA2O7cXKLrfAjV9N4GrJxBGwyq08hDMQAAAAAAAAAAAAAAAH5em5mZQUAPAAAAAAAAAAAAAIAhAUtuAQAAAAAAAAAAAAAYIrDkFgAAAAAAAAAAAACAIQIz9AAAAAAAAAAAAAAAGCIQ0AMAAAAAAAAAAAAAYIhAQA8AAAAAAAAAAAAAgCFiaPbQa194n+b2LdH1z1apo6+lmJyg+Y+nqHPlS1q4qa/VSOvs2zR/+iUtfLpEK/radiRI1jRCxz85SSfG9Fdx571LX9H9Zf0VAF0fW7S67esMnZqi8+cm9BemZJ4jWWk2Muqf+56Hd+iLy5v6C6hOQ+xZj9uwHY2sO7u3bTsl2+2j+gsD2+DFldPKtq5rsV3b3vkEAAAAdi5DMkNvlA4JB2zll3kBJqLWu+PUEh3hu3Ba+sAW3f/sS/riU/G5sqqvDR8cpD1/cYra+ntXcGf8ougsnNLfh41hT/+g0EG2zo1bqj7IT8kA5vIqXde/XXior/m4uaSff4vubehroAa2hz0LY5TmRD2fPzuiv4Nimi0zFaTiILTWYf4gmOdl5bKWz6WlXH+yydTqtwAAAABgqBmKgF7r7GHhuKzS49xA3SjNnG5RZ/F5SSdNOerncz7o+ABQgShItc1ntM7yjLlVunt1S10AAIC+oQY86eEjzJAHDvFABWbnAQAAANuTIQjojdDkdEs4q+v5QYFT+6hNHXpyu2ynepMWzIi2+Fy/weFAXi5nXUNHHQCQx8aroZ3tAQAYfjpr8FMAAAAAAHYazd9DL2jfG71PyHr3e8bk7ZMX/22dDl2cjZY78FK7VNCvpr2u5FIaEr+9tiuxx1ZyPxQr/8596bTxjMQ47b69oqI99D4nmst8p0VhGeXvT2XyeH3tsJAvB2+T+ai094u7J1liTzNXBi7O/mepZ3nSb+9d5OCmX+mR9TS7jOS7xunJpUc09jGnUb3rxRn9DndvtSI9i55nPYOxnlM2/YW48sraD47JLaeSFJSTwZV/t3tNRfUlZ8/JMu8MeV6IzXPL1daz/Heo+tGy7g9Pv65beWUehGsznHpSmnwblKDInhXqbFp+TNx+pO91bVElmyfIK/NUGTq48i0ucyufzyYTdiidfjef/npepp4Ukionxi33fD0rKzNX/vWmP8s2+vWtEoHvdOWSkIN+BnnSo35HyTIo9JVK6Jn7rLz2RKezm/0qZXkX+mdMgD2z7E6irY7y4LcVMXZeS9i7QdRNAAAAANRG4wN6+R1PTQ2OmUE5LXkBPeXQRA6bp/OXdlq1w1TBAYo7CLFDln6+7bxZjpt2bpNpVXt9GUfS5Ml2QJXMO9QRz+NAkP+dFh4ZxKTz7j4ret/6I7p+Z598VmdDvPvzB0QfiXyVDdT6OhR87cwruu48R6Ul76ATkf5PdtFdS/9UmXgc5AA9VL+1HGY3rfL7OJGV/4PizS0hmy+0bMx702Xi0TP9fNbauNwz9DEg/WVRZZtRf928m2ueciomrJx8eszXZp59VSrP6jlW58YhlrWpm3YnScs/I+iVK7MI/Vxv3fA83+iBLvN8vVe/J60HpWSmbUx+B7KY9oW3ac816/ce2xWMyXtC3kJ+F/bS8mWPjHPsmSn3lL1M6JmSX2FAL0v/K9bBlG2R1xw5SvzpiwnVWX1N/ju+N6Uvnnz60lpKz4rQ+pIIrHjKNVzPimTmSatT58qgZJGnZ3ab76NC/cvSR8cep8ou9TudNnJtWNpmpctc61RCZiX0LJFWnx5b6HR3HdAr9M8C9Uxfk0T598tSvSPPb7Hw6H2Ep8x7XjcBAAAAUCsNX3LbzMMwEp2Em7wUuEUH3zX77Om9/G48sJynTVrgjdaPHqbjk/pSKZLOeefqI+edBnbCLKdNpk3IZz/fJxzDHwlnUTiKdoekc/WB3Fy/Lf6WCE9YwTzGvPPEmVF1IRCz/+GC1SFQ73Sexe+7Zu4RKVm05LdvVzJtRbT5fmf5Ne/nZqUhHFF2iU6JKP9rvJm2T/4FCOd5hvX5iuWEi3Qt3BBPOz1pjZC3ZADP5L81Jhz3KO0tGpM3ltSzRLlv0mM+eKGsXOtmAOXUGhc53lij5UhmrI/lOyX8G7MkXx5iwYEO3zL9U5OiQ8n11+546XIam6KZHhxAEtU5Wx5az4xudJ691H9guNP4Pp2/oOvjpCqXDZ3gUjLTNse9vywrl53O581laada03tL62z7jBvMY7bovi+Yl4upc7cSeV+5fKeSbTTpWrDscXVGaM8+8T9na4qUHEMoq7NS9+N7O7fXZL1TdsqfTyUzYQ+t/Wnrqpt2W1f02zr1LJVWUefusm04ytuBlCFEz6xDXD7l6+L94n5jf76w/YBQQuxxUBu2RcuLomaNjdOk3Q5N7qWDop1fuWOeV7INK9CzdNshZCR8RxJ6dqinBz0V+2dl9EyWY5QPI8vetNX9r5sAAAAAqJtGB/R6exhGVQrSk7WX3wrvsWU5n2VIdY63aIOdwXEnoJTax0s4xya4oJ3p9D47GQ5jxjvLBYGy9j/cohfr4n/2s1xn8ZmbzhJoWZ/4+O2KAdQClqvtlyYDzx79UcGV3bTHSmvc6RH49mcrqWeJ5zWFAZRTZ411fYrmP3EC2D1CHZjxkl4k6pIgEWyvE13nPDqT6ABL2RudG6ExnuljAg+yYx9TTmbK5nzhBFe7R9uM0qhBoVraB1nnuL66tqlKgLzGdEm0fI7OxoHZipTW2XVH1ziwInRAdfaz8pluw2qrm6nAURmq6pkfmaey1KpnJQiwx6FtmC+olfptWV8pV88ykM/qMaH+WYJsPXPLXQ0e2cH1uhhA3QQAAABA7TQ4oKc6pp0by/mOjHQKm3PCZGv/bv6vcIqd03J56Y26ZaBkB8qSAaU0VTo6JlAgOpm2LMQnsc9Q3UhHX89miMphSgUrKsBLS5LpN8t/yiFHuWmCUqcqm2U2JWi6ngUxgHKSnSM902je3NdlAKSQnAMz8jt9XeB2fi1kQEYGO3WnmW3owyW6t2HbgDigMxCZ8VIw8y79qWQz5GzDPLtXlnjmYooezaIJZeWyPtTJsreVT2ivS2e1/FunTybK8vzF9HLRodYzCS8NTT4rb1l+PgPQswB7HN6GqeBjPAMt7c/1og3j5aJ1PatWatWzmmh63QQAAABAEM0N6OllP6nR2wRmaY07A2xwqJFqXoJhlr4kP81douCZkZFAL+nKCRSk0bP6eD8Yjyzqn8Vjo2cK8YcdUdkJKR8sUnvHqL2M4rSrJU5lUbM1VuN0JT7llkgNr565DKCcbi5F98jlsjXMaqrKIE6mtINbHNzjjvXKnVV6sa5m1MiOthvQ6afMuPPLHXHHbsj3lkXP0qx/JqSHnCBYv1CzeVhet9SSPtFZrxzUy6CUzmr5J5eDWh93ef2w6pkM5s2qPQatZ6lT82ump3qWb4/LtGFsU6Jlt3LWZNKfq7sNi/cYtJ5zibddGDC16lmNNLluAgAAACCYxgb05LKf1FIGh66W1vSIrOUidVIl38vP6Yno4LVnXQcsa1msQ+aS3Tz0rL5B79XGjqjsnKRnIfqWu8aY5YuB+zMWBA/y31WSXuhZP4MfPnLKKZ+S5WTBs5pk56RHOpro1NpkLTfrGr2E3rNvV3LJmw62S9kJ0YnKz2mNZtTkBO7zZaZnKXWxNEulU3TMoz01u0EvH6uwJ1qK1H6phpDls1pHI/zL8uSeVvrf3cF7rOmgXmpGnf/dhnp1Nv9deVSum147pgf/LMrpWUE+pGxEmgv2+w2iKz2rEY89LtWGyX3i9CABy9r152ptw5Rs6GG89+zAcPyzeu2Zoh5fYgB1EwAAAAC108yA3qTeeLnAOTYb+vbrMIwgltVG2O1zPdoXjDsmH1XJt94g+ugszVkbRLfOHlMboOc6m/E7y27gLg8m4GUafRzJ5dladh6ZzH2hdKfCv6G9DkjanVu5dCZrya12kBMHXFjoDs6Jj6svK43oiZ4VpL9mSpVTLqHlJPT4E1f2uiNYauZpCUyZf2QHuEZpjpeo9ajzqfavmqA5u84JeczJDejNkjcls9bpWTpBuqPNgQRRV+V9UeC+pMx0YMMbEApEdVbtgAanoeoSNW33UjZIPPNC2aDjJt2Vm/8fS9S59gXWM3vbB12PrOWG6RNJTeA13vxf1gc+7Vt9LYnQKTeImjkIo+tL1iFNteps3O7kzxSss27q5Z6WHWtf4JNCk7Itp2cFMtN7tdkDZjxjrNqS21A9q5cge1yqDVM63pqepJnpVtqfq7UNU3UuMZDBp7vyzDj9tT8IHXL8s3rtmSbXbwllEHUTAAAAAHXz2pEjR77R/24Mavlc0ZH8aolL64Z17H8N5L3b/zd/OtS9jispnLzkSYvFqGUk+ouBl24klkOww8UdloDns5Ob2O+Gl884eU3dI3DfaZaR6K8JUvlUMnI7AOa0YJnHffo3+t3qbyXy5ZCSW57sc2Wi0xB1xvlv63QoU/fSeU2ciizILVMt144v/wnZqJ8V6lniefKvkoTM9TVFcfqL8KZJw8t7bJmVKqdcQsspnT83TWXJlqXBTVv6naEy8+qOJllOxeVo3ul7ftGzsmWm761cjgpXHpyex7NFcs4hZa94aZ61RLCEPUuVlTevSZlJeT2bFPWXEvY2UZ7SBpD8HZWscxJPHrLrbpFOFutslMdUe+TBK1+nDErpWRHJ9Mvn3N4r0jCeOL29nJ4VyMRpR/hvC3RMPL/Il/ETpmeMklsdvlCoPfbaIZ8eROXu8TM0qXwyifeG6pmjP/yMz0V9Eu+P27+0jsVkpzGLUDkE6Zmnfc8lz28pYc/6XzcBAAAAUCcNDOgpp/ngYoGzIJ2ZZOdoOyIdxqqdWAAAAAAAUDvwzwAAAAAwaJq35HZID8MAAAAAAAAAAAAAAKAfNC+gJ0/SSp6WloY3/PacwgUAAAAAAAAAAAAAwDansafcAgAAAAAAAAAAAAAA0jTyUAwAAAAAAAAAAAAAAIAfzNADAAAAAAAAAAAAAGCIQEAPAAAAAAAAAAAAAIAhAgE9AAAAAAAAAAAAAACGCAT0AAAAAAAAAAAAAAAYIhDQAwAAAAAAAAAAAABgiEBADwAAAAAAAAAAAACAIeLbY2Njf6//3WjaF96n+b/5Iz3915f0tb6WYnKC5n/2Do13ntDTFX0N9JEROv7JHP3w2AtavL2lrzWEU1N0/qcH6ZsHz2i9o6/tBIatTjShnEJlJtN6gqY/OKQ+h/P1XtqwDw/RgV1rtPSbP+mrvWCU5i6epOmevwdsV4yuGt0eRZsKQDamLfh+gY8KAAAAAFAzQzJDb5QOHSVa+eUq5fXxW++OU2tjie7e1BeAB+7si87a2RH9HQBQiZtL9MWnX4rPLbq3oa8BoGmdfZvOX5yitv4+TKxcZr0Wn0tLuW1uo+HAvGjr5k7p79uUQegZB3zPfzJBLf192BjmugkAAAAAYDMUAb3W2cPC8Vqlx7mBulGaOd2izuLz4e2AAAC2LSZIcv1qw2avNhY1+HAeAxAAgCZjBnc+yx90BgAAAAComyEI6I3Q5HSL6OE65a74ObWP2sKVetK0pZ4AAADKI236Kt270aHW9N6hnQ0EAAAAAAAAAL3gtSNHjnyj/91MeG+Sc7vp3qWv6P6yvpaC9247SSfW79AXlzf1tfLwMoz503G3sXPjVmI2jfz79Bpd/+wVzVycjZZruPcpdJrG9FfqOHng2Sez1OLfPpsUeZzQ14lWrnxJCzfj9JjvMfrZtCTSwiPC6lkk7ru7387DKi18uiQDoW7eXNJ5UM+Ml6TEz7LhpTdzR/UXw8Oy5WDJwpX36Zfxe3kJ1cfj9ETI8cUZ670bRg4W8t4pJwjgloFA6lcs+1TaLf1LvDNDHsW4epGlP2GkytVNv5ZDR+jG49kCmbmySOXRqmfXdiXkm85Dkf5rQsupgLC6WUbPAmUmseTi0Xu3jqTrs0WRPgbhyacl5+T788rJ/M2j6/p51IXuFiHlRkbXVL23dSKszMvh1qfEsyIZOvJIXF+nQ1Za0mTUqZx6EuvnMu2x77X1Uaahqm3MqW/6Xq4LmTpbQLIc4/f66kGqPalgj71tkoV6r27fcuxgbj21KZBRyr6kyjyts8Uyc9tnF1fP3PvL29i03jikZFnDOyWWPcvwlWLcd9pyKCGz0Ha/hL0OsS0+e6p+R0nZ1dJOAAAAAGA70PhDMdo/PkEHvvWUfv3PeYdhjNN7f72X1n/128obd7MD/cO3/1M4a1/Rv/3iCS0++CNNnZ+hKWtj+Tf+8k2aekt8PtglOk436V+uiPs636F35o8lNw1n5+xnM3RgSzi4P79Hv+bn/WKTvvfhOH192+RjhA58sJ/2HWzT9HF29tV7n+7aK573pjwUYOX/26JRcU/7dWezfZ3fr28v0aJMm3pW+/ghmmo91e9co2++f4ze+4HapLnzm2ciDZyOF/KZ7Dhe/cff6WtPkpvny/QfpzesezYPn6C5D79Dm78wS5q5UzJH7+2y88jvbNP4q7WSh2Ko9L8hBGinQ8r74H/RU/POPS2aOvUmHTh1iEYfmLSJ/PzkOL1jH0jAzu7/OkTrwtm//k8qf1xO08ffoN/fjA9bYEf57PwbwlHWZcnP+nCW/sp+1uRe8bt9NC7eeeC5cJr/4bc6n7Fsy2yA3b4wQyNXzPtUulh/qhyUEDv68fOeTop0jT6LdVHKbC/tE7oRp1/JzNZtWeanX9BV+Xd+ls7jT+wyf52+9wNRvu39NH3qdXqYWQe44/QuTS2b97Fev0lz55VeR4ddBJZTCHHd3C871vJ5qXSV0bPX6Y0336KpV0mZJfQsQsslQ+87t3XehE05IMri6/smPUnYBs3/QAXwI3m8Pklzk8+992fj5NN0xLnDLerqUvSsonL6E63/F5fHBH3LORSh9cMpmj74NT3838s9OrxklGY+FGXJNv3+H+k73z9CB19P1pFgexxIYRvQeUlLUj8naDSqO8IO/p2w9X9mOvpbQo9U2bEtnzpoPU9+7C0hwuqJ0s99okzb9Ge3M+xeqG3kd/7dd+jfI5vNtv0teu/He/0H0Wj7kaWzIbTeFbbnaNJm2O2ceSfbs7d+dzPWfa4vP3bSH2CP1536lrAv4qPysUWbXD5v/TltOfmWPsd3V+nuP9lllUPn2zQu6lvrud+Gy/JrbdKibitC2oBYZlv07x7fYL1TVs9mqc1BH61ni7/Yorf+bi9tlmm/WP/18zcPi/R9y277xcd+Ftv2n6oAlfEhlG6/VaFuFvtKsvwK/ZYSMgtt91ee69/m+z7FtoVtXJsOfO8Pjk8xQn/xP47Q+PJv6F9+pZ4b5LcAAAAAYMfQ8CW3fToMQziCM/yeK9bI67LooPFSr9OTqRHdlSvWSOlNtRS4tT/e46l9RneeE6PVW3T/sicffJ814tu5vSbuadGYfOkmPX4o/neUl57FyPyS6HC4s1AS7xTvE3KjsXGanJQXgjHpX7Cev3L5jkijkJPZy+rUJJ0Y69C9z/PLpieIjkk8iq1ltG+XnjkgOtg/mpD35M+u0Hsu3nhgzRjYpIUrQmZHD9NxR2Y8mh6PgG/R8qLI9Zh5Zzgrl50ZCjeX5YEKVZYUtsbFLzbWaNl6XufqV/58J0bwlcwS7xT6fj0xwq/1R5T5odSm8hy8yK4DZs/LBet5nasPRD5bdOLMqL4SWk7lSMzY0LJtz5p3lqFFrcSMu026K+yBTzdqIbJBzoyTm6IediUf0Zk3wTxnJlJQOemyTcrQbIPwKKnLdaKX26p9U7foxbqjrxZF9jiI0DZAlMd1ee2Y1IPW2WPKDl6yfhdIWD2JkYHeTLunybWNjLBxjh6sXOODL1p08N1e7lOYnJ3VufpIyCv5zpTtEvK/62n/mDrssWlrk/lWPkfnxnKJ8tyiDftQHA5mXXw7shPSTq+/imQe3gYk9SrpG5RgUsll5U6sZz49qI/YttuzzZRuC1si/lamnCJyfaVAv6UktbT7QbbFPNvx1yb30sExu+zK+S0AAAAA2P40OqDXr8MwTIDMfU/n2Uvx3920J+EkFadHdghC02M5+hIOrHwad+pX7rhBlew9BVPvXOFnl+0AZKVfdVpa48oxbs8Kh90JJvWLZMfEIeUAZ5C152KGzDrPkvdx5/MLe+lNZVSwogqdNVFCY1M0H3DaYKE8fEhZeNhwr4sORXTYQ5Z+6nya4EJoOZXCrZvOO0vipk3Zgwod6gCybFB37FUzczzBvOByMkEhO6jSk7JLIu2LlTZpB72DE/XIrEwbEAXdPn5fLqFLdq5DCZW/oUMbjrGRh6y4wbkqZbKcUc/rJNVWJNuTLKSN81CLPV5+Tk/cQFqlvXhVmZm8tPbv5v/qQOEI7dknL+egy9ylrvZVl2/73Pv9OfFX24fOmivD6gNhklxfKcxvKUsdehZqW3xB7tRvS/otAAAAANj+NDigpzo8hSPleiZHarZaCeQIOk2Izq86UTH62HuUhKJHw11HsDLuLCPpLHfo3rUedaZ1+lunTyZlcTG558+wYzpd3ClP5DNvj6A64GVB9vvEJ2+/pzxk54JH5jmoZ553ocpsNAUvC7LTVU0WIzTGenJ0Nvks8amaz8aQFeCsATXbMuT5vNQ9KVcpW09HvXV6SgXh3I6wJLyc1AyueFBBdjI3upgRXYjunNsBATnzzj9zrQ7KtQFbdP9zlonAmREUzuDqCS/ZS74zb1+xfsJLQ+10qYBp70jPYleB5PIzT2XgUQZh2W8hundjNRFESuhyjW1AGDzgckv5EefMO+MZhL0i2wdyB0lroMF+S7htcWfOp33ggfktAAAAAGgszQ3o6SWd+SPlZmmHO8uhHGoWwKqcZfRF6uMsjylCj4aXXvKViR7V1jNkVGe6hzPjdPrlUhOfPKzlYcOMGh3nJU2ePIpPd8scM+COHDvevPzVfhfPgKrKzaXkczhAUCGox8G8uaOOPC7poEUp9PIzJ4/Rp2fLvPpAmzuN6ZlSdaBmW6pOaT5bdP+ztFx9+irrsFyK5dOJEuWkZzKpQQXdyexiRnQhcpBG2LpE51wHnTzLL+ugXBuglzE/XKUVDqZXCqIPpp6ofTfVPo3x+3hZ4qDR+7zxbFJLDry8uafoQLGaFaUCyZVnnsr6O0JjJNrn26IdlbqqArdRcKsXbUAQlt2Qdp2DQr0P6vl5SS/q9l8a7LeUsS2Jmch68Nb2gQfitwAAAACg0TQ2oBe0pLOmpV++ZVXV0Us8MvZ7qoJaisEzZMp1pv1LPYqWoBT9XeENQMggrP5316i8lsYbUNWBX5sBLFFR5dG72ZW8BE92DEsvMVUd2Xr2RAtc5hpaTl2RtQzLJlzPpE3qRWdUoGyQb7/CLtF7vnFQbz6xj1RgOUn0TCYOUHg6mQmi2Ud6dmAFlO1PBnbkh4OTvZCRoEwb0L7AwUXe+25J76s4650hmf/MMvKvC63rPZ1dGYjbdusgbtF+uaUIGlzblGUo22s927/KEm5V1gJ+Bs+IlUFwo6vxIEAv2oDS/gsvVdVBvartX+4ARGIAwEbrX5cDsH7C/BZDaZl1Qal3yRUZKsDsHbzF0loAAAAAODQzoCc6hXIT4QLn3myC3HXnRDtRJz6u3gmNMct43JkbI3T8QsXNoPVSjPY5Xj4SuLxYyHBO7u/kLlnWHcnMDZRN590NACRRG1Jbm01zR/7cbuoIp7o8bhCUlxVWXSqjl61YG9m3L4hnidQmdElvuN4+179ZCsqxt/fI4XxWXW7Fv3X1VQfmvEss81DyT8x+4o3dKy7jkUs0C2cuBZZTF5jAS1xfutAzIQ8up8TG5nVilta7+sjv7TKAJQ8bkLI+mXhWWDlp5EwmYVPk7KLswK8KWDBVA285QVjvAR01EdgG8Aw3Ww+ijf7PeX6nO99Zy4RLyb8WtO239yKUAdh+L7kV9e4jp+3Wy9ntspWnPne15FbXd8/BVjayLeNyODfhaS8DkekX9UM8QwUp1cz69jmWbTwIUG8boCnQM7YhbltuAotVZxurfGQdNhH7ELa9iQ6Q6cmAVpjfElEkszop5V8qvWlNT9LMdCvtAw/AbwEAAABAs3ntyJEj3+h/Nwa1LOglLeRuPqyW6LRu3EqcpNYNatmh/mLgpTF6uYY/XRnp4I5SIiDCyyTs5RV6iZH1/Fw4wMJ7rnjv18/S3wypEzMj0oEMXqqSn37GyYNJk4SXlCwRsQwpME8JknmQ6Xk2KZ5Psbx1mjpOvmS57bM3/k/mTz7r9l7x23F6kigDU6ZOp5FnB5ln6Txmy7Ic7vv4uY9n3fSHki73rHIslpnzLJbB5yQDOPFvtVwpJK0hOhleTkUUlmNEgJ556oe406m/GfZCE+fTLweFqjO2jUs9M9Q+JFDvTNqkOE9JHQkpJ4VJW25diOxGOm9ByPq2OyVrg0qDenanjD0OxFumpgyMvXP1Ki/PCRvJuPcUy1/pNmXKRFLRNqr0rNOhhMzK6WwRuTK1cWTFerpAx5JlXNoep/OS/q2RSbqOh2PeY8nH6IWjLyFtQLrcBBllLCnQs7R9LF+OLqlnuvWiUPdD0bINsYVRXbTJKNe89AXqmVe3Ne5vg+tBnj3RhLd3AAAAANjuNDCgp5zrg4sFHTLpcNmd8G1OroOpHN46g5sADBOqg1M0CAC6QXVIuw8EgJ2FNzjVKHRAL2igAgAAAAAAgObQvCW3fTwMY5gw+0oNfO8jAMAORC+FrbokEYCmYvbzc5c3AgAAAAAA0HCaF9CTp3YWLXvZUie2lV6KNpzw7CN5Aunn6HAAAPoNz2CalSeQLmAGMNhWjOp9Ie/kLq0EAAAAAACgiTT2lFugliqdv8gbgxfsnwQAALXDS/nZBmE5Ithm8D5lUrcD92YDAAAAAACggTTyUAwAAAAAAAAAAAAAAIAfzNADAAAAAAAAAAAAAGCIQEAPAAAAAAAAAAAAAIAhAgE9AAAAAAAAAAAAAACGCAT0AAAAAAAAAAAAAAAYIhDQAwAAAAAAAAAAAABgiBiaU27bF96nuX1LdP2zVeroaykmJ2j+4ynqXPmSFm7qazXSOvs2zZ9+SQufLtGKvtYUpHyO6i+ClTpkcGqKzp+bINookDsA3WJ0LWK1kfWsL2g71tJfSdS8e5e+ovvL+mtNNNmeKUbo+Ccn6cRYN/ZslOYuzlLrxi26fnVLXwP9JKjttjBtWcdXZm7dQNsUTiS7IbOtPfbrCunaHsd2TJHx+0HqNnw9AAAAYGgZkhl6o3RIOPgrv8x3NFrvjlNLOCR3Kzp93JE4/8mE5bgNDyuXv6QvPhWfS0sNdMa4U/0+zZ8d0d/7ADvH4p1zp/T3oWMHyUx3JrgDL3VYfnZ4MO/hHUsW1YJ5w2zPtgMcMD1/cYra+ns/2PZlvrxK13W9WHior4GhZhD1JJha7PEW3f9M//bKqr7mAboNAAAAgAoMRUCvdfawcPZW6XFuoG6UZk63qLP4HKOLdXFzSTmhGLEFPaQ9yzPzVukuZlCpQQlR2+5d29RXdjJxR3ggM3PAQDCDU5hRWTNRwGiHDpZUYMfYY/h6AAAAwNAyBAG9EZqcbhE9XM93Qk/to7ZwRZ7cRicAgKFj4xU6EhEv6UXNy2sBAABUAfYYAAAAAM2l+XvoyeV4uwv2LNF7lKzfoS8ulxxJdfctcbH2FIn3nFqnQxdnoyUi3r1+3D3BeMlG2bQJ5H5CJH57bVcinZl7Sun8ZO43k8qvZz+XkLTL54zTE/HbF2fUnkeSlLyyF3+l5Fbw3qy9lezrd8dPJvYSdKm8F1ewTGzZOnsVDUBmIe808suimszU3mXxMqrsfYfk+0vssZVN0TvV30nk5+5+W87+PaXcsvDW80BS5ZphD2IbU3EWTUoHHQZszwz5sg3bc0o+Y3pN5OcVzWSmX5U576G3QMesd1Yr81hmy7THTmMkV1cHXdz3FuQ1Kk+fLdHXL4n8B5a5IrxuZiL1Ibtdtut0y/z7c6I5K52uXXHtUJHdKbYbbj79ZR5GkU6Wsy1uXl098+ZNl3nctlt+j+MfJJ7n2oSUPijkO4N8DVcWMW4+silRT6x8P5615ObNR51lbtf3nGe48s17Z0G9MRTptmunEva4RN3sBNn1ErqdkoWhgo0BAAAAQBCND+gVOTaSlKNbjTJOVOTkepwndR9Z17STWaETLNMkHdjYIUo/3yJXFiIdn+yiu1b+1POznC2rw+Cm23LcYic+K5/qet7G9GEyMx0Jy5HUDmmqI1GTTjCmDBIdG/HeOVqKvhvdsO9JyXYQMivzzrpk5ikTVz7mexap8iwi4J1RvvmfUd61TomytOu9Krt0p5LKpsunsyYdpkOq055JSjfCkHlomD2L5ZG0Oa2zUzR5eyn6HuFJjyE7/RP+Mo8CAH67FlLm9juL6pO6Ny8YkP5dWtaClG77dEpRVOb+tIprTrtQSIGtkOng4JB4h5IrX3XbsAzZBNqh3Lx6yi5VvsGElJO+h/8Z3RdoW+S1t2nPtbjMvXlLycXoAf/bqk+pOhCTJzOVLv5XnLZ0PtN5Uvck274y5OoCo/Mta10kWyXvRPtYV5lr+WWS0oOCdt8mx57ZZJeTr+5r3TP2raD+yGfruhmjn+sdFA/U7ZT8fWkFAAAAQN00fMltfw7DKEvCcb3JS4FbdPBdc3iB3svvxgPLYdukBd4M+ehhOj6pL5Ui6Rx2rj5y3hmKSIfjIK5c40M0qjxLIxy8yKEWz3/Mmznv26Wc72BCZcZ7at0ReZ+guQuj4rtwNNnxTqShZoSTOuMG85ibcTAvTv+txD0rlzmtLTpxhtNq0VeZaWp5ZwjCif9Rukw6Vx/QvQ3RmRB/43d2rn6l9uzh/dE4LdwZ0d/L758V9s4IflfUadmi5UVRI8YsWURlbnVClkWn5IaoKacnrdkfAZya1MEru0Ojy2lsimb4ABKzfxHnW7xDdahjWaQ7WPXSV3sWySPZoe1c9QTzAkmmf1mV+axT56JgHqPL/Chv06ApWeb8zm7rk9kbdsEqX6Wzjs0Q+sF60Tp9TMq7dfaYR6cCmVRpXLlj61S6XShkOblEngMb8cEGI7Rnn8jLml2HnTbs9pq4MkGHenQAT/vMlPQJFix7oOyxKOeSBw0FlxNTZFu0bNwtRFYu5wd48mF7Yf1e1mGR7v1V2vSkXqlyatGYqQCTe+ngmEiv5ZMpf8RT5+pG2PfYFqo615reG8m2tjIPtscl2/06CGlPStfNQAp0W+03aO+FK/w1oSfUw3oOAAAAgIYH9Jp5GEZBerL28lthJ8tyjMuwsUbLCWd/izZEp7U1XjEIZ+M4f2VJdgwrUkpmJpgwK5xUHjVOdrTqxjipxWUunORnrpPs7+j3X2Y1vTME3eFLdxh8nduaKPnOIluRVeadZy/Ff3fTnhJBLHXgh2cPpq463XXSX3sm5ZGyZ93gpn+LXqyL/zl1rt4y79BG3JuWyIMcSgXFsvaGzUi/CSB9/L6cEZQMsJZA2/v2ufe7PM1at0Faf1vjnFrTcR+hMXc5Zq1lXoQaCEyXeZV2s2Q5Ffoh+nfcfslBqRpI7T8q2kgORlmBrWCKyqmdbb8rBYlKkN+G1VnmgZRs9+sgrD0pWTcDKbSh8j0+0vYSAAAAAPXR4ICecqQ7N5YdR9pBOlXNOSGztX83/1d2vM5ftD5myciAUaO1dtr0UooBUlpmPDuOHWZBYkZND5BOatCBDTlOaw+CWE3Xs3Qnx1AuIFaGut5pOkBztlz5k7cMK48c/elJR7NG6tUzPTtpPaQ+9Zfay7wQ3bGWAxPJd0Z7hCXYovuf82xqgTMLqRwc7LmlZjGeM+98u8LMcRWYUvrLwZRVusezCK0AdXZ97DF6FmLr9MmEXM9f5OV/6pZwypZTMRz8lTO/rGfOl5w1ODDMDFhr1rMaeB3wgWS1lnkZ+tvuSwrbk8HUTbXaw54NqWfO9zWYDwAAAOw8mhvQ00sL8p1Es9TOHT0fHGpGBy+JsJZoWB97aUa/sfd7idPEy0MGS1mZcT54j5qVhx3RKa3SGQ2nsyZc524d8x6c4NpkPctnECcGlnunLHNylllFn26WxqXp9ayWbqlXz/yzmppAP8tcoWbRyGWEvnemZvuNqgMlHq7SytgUzXc1u4u3LtDvuaS2XDjxcUU7ymXJwRTRBt8XuiKXQMrgygBn5ehZiLwUMiVX/pSa0V22nMKItxxQwVUORA1HUE8HOFkHTTDS3fNxENRa5jXRg3a/iER70u+6qWdvxkFVZ489AAAAAPSExgb0gpZmmf1calpOWEvwppultaFUyrdeOrTRv70GYwqWvZSR2eQEzeklZwuX1V6CJz5y9khjtINvj0pXQQU0CvaASe07ZshaBhRCjTILpQ6ZLT+nJyLd6f2Uspau1UDN71RlXs9MwpU7vLfROE26z8paylojTbRnKk0eedRGtTpXZ5kb8p9ZLrjZvmC2FxD2W8/u8i2ZLV3my6t0XQf1ypaxCoIKe/HuOBEHEtgOctnK5wwicG8osJ2l6HUQmoOrOqhXkF61LHywRPsJJgJm3QXz6ql7dZZ5ID1p9/MJbU/6XzfjfWwTgVQE8wAAAICe08yAntmgvOAwDLMJcl0BKhO8KbtpdgLRQbr7UKStZzPHhOP0UZV8646J7QwKOc/3ZcmtfnfWJvrBMtOzVKIlZ/Fm0HOpMtMOftlDDFzMEiM3bafEO6MO9absZJtN6w2mE15tOXhdMitDHTLTG2E7AYdoI/9rvZgpUfM7ZZnzrCWzkXgXmGclgs7mMJdHPZ3V0kR7Zg70cWXLp9zW8fzKda7OMjfoYGjW5vhyiVrAbDs1I1ncr7cXiA57OZdOa2GZC7vlzgRTgaLys3bku9j2niYdSOC9w0R+RbpaA5idFBPbgzpmvYWWUxii7n/iDEB59gB1A99mdv2gqSf45lBQT8Kot8zD6EW7X0Bge9L/utnrwDcAAAAAsnjtyJEj3+h/NwblvL6k/KPuhRNzcZZa0RH59ZBynDfiJQP+dPnT4XXArWeF0r7g2asncdobo9Lg74jyaLpJ7wgd/8TeU4b/tk6HnPR736mJTpTkYKDo/HbsEyYF8rf7fPl03y2czlIyi3+fONVSYNLrPs8nF/e3oaRkkiqDfN2R9F1mgtLvrElmp6ac/cdsPUySnZaSFL4zr66m7U2qzBlPuRdTXI6GrLRUJU8n/e/qrT1TFMhD66zzNkUq/UVpqrfM1e9KLDEM1EnXdkd1zvzezVcko3S9SsnF+W1abtl1MxeTBvv5Jr2WzLz1O2WX/HJQxOnzlrkmVae8esTLx6vMKCsopzJ65kmXz8YmdFHK+BXNiHdQdK+uRwXLGkNlFlZOGXWEqWQbNXn1xJMGJi+99ZR5Rvk5pOSbWVc9WPeG63ZAe2LeGVI3fWUpKK/b2XW4kg8BAAAAgCAaGNBTzsrBRcdBcZHOCeU6WtsBr9MKAAA7nJDONgCgPlQAyBMg08GiVGAJ7BB0MM8NZgoydQYAAAAAtdC8JbdDehgGAAAAAMD2RJ9S7dvbWC6bBTsWfcqwb99As58fAAAAAHpD8wJ6N5cCNlnmjaS/rL68AwAAAAAABOLZh1cyovb1pd4e8gMajDlQi0/SVVcUk+oQs8ID7gAAAABQmUbuoQdisOQWAADSYMktAP3Hu++aZ6kl2Gn499DDMmwAAACgtyCgBwAAAAAAAAAAAADAENG8JbcAAAAAAAAAAAAAAIBMENADAAAAAAAAAAAAAGCIQEAPAAAAAAAAAAAAAIAhAgE9AAAAAAAAAAAAAACGCAT0AAAAAAAAAAAAAAAYIhDQAwAAAAAAAAAAAABgiPj22NjY3+t/N5r2hfdp/m/+SE//9SV9ra+lmJyg+Z+9Q+OdJ/R0RV/bYUg5fXiIDuxao6Xf/ElfBWAA6Pr4zgffoc1fPKeOvlydETr+yRz98CeHaPoD9dl2el67zJpFkB1vMMOe/tbZt+ns3+4enG6dmqLzPz0R1d/pbaPnozR38SRNo90FIAY+OQAAANBzhmSG3igdOkq08svVXMe/9e44tTaW6O5NfQF44I6H6JSeHdHfQW2w8ypkO3dKfwc1wsG8k3RibJUWPv2SvtCf61e39N+bDQdSzl+corb+vj0ZftvCAbvzn0xQS38fNhqdfg7mnZugzo1bUf394tMl6lk/v1Z7PADdRnsyYOArgQxQNwEAADSIoQjotc4eFh3hVXqcG6gbpZnTLeosbr9ZLWVYuTxcgQ6wjVlepet1ddon99LBMaLOjeXeBQCaQJ0yA6BBtGcnxH9X6S7aJgAAAAAAAGphCAJ6IzQ53SJ6uJ7fwT21j9rUoSe30VkAYLvSeYb6DcDQsvFqRw+4AQAAAAAAUCevHTly5Bv972Yil+nspnuXvqL7y/paCr0cb/0OfXF5U18rDy9Xmjuqvwh4aVB6pptZ+qe/iu6JP20F9/GU/Y+nqHPlS1qwZh7KNOxbouufqeXFvFRv/vRLWvh0mfbYz9uI72HctK84z1XPyV6IZfJq7nN/H+WHku8tQj5vek385hXNXJyNlhwmZWuV37VdUi4mpb4yKCon+XdKPyudJ4FeBhbx0NEhS/9enLHfy0s/1SwqNz0u6r28fEfk3yk3iU5DOn05vwlF6tk4PXHT73um1slYS+I8lsJ9Tkb6S5VTRn1JouWlv6XqXJCeqXsOLt6iu+Mnpbzk355Naj1xnunqT0JmbnpcrHsDZSYpKif598AyDyRlP6x6EmpbGFnmbN8+J5orKHP3uSlbEFA3g0jJ08GSW5n0p+yCY1vCbGMAJdKvZMrtyTodKnpnkW0sSSS7HB0skllETtpSz3Dw2pcMwnVb1fWW+L5Ax6zf+HTR9Q08daSm9EekdCTLbykizmdsExXpdLn59L/TK2PbVum0F/lKCtfm+m1B6p0V7Vkhlo3yyTqVh8Byykt/MDJtRAuXhP2R72RZWX6m88ywuulv81K6UYdtCU6/pbNWuSkZsi209cNNf1L+PambAAAAQJc0PqDnd9ocMhy+MqiGOun8tS+8TXuu2c6Ubuwt50M5BZR0uoxTluhAC+f2wl5avlzOSbUdN7fzYKcjolAWfucmJuPZ+rlUxpkV2OmPnB3tzMXOj+34Ww5U6j6dNo+z37LSGztd8bN85ZS+5sm77XhG13V63eBmgey9uiLw6Z4kerffqQ/CyEf8M09/TDnZDqlKVxfvFrj6bBOXU5z3pIx0OvkWL5bMtKzszlY6TyF6pu45yKldfKA659Pi7rGXdFcHQaK6w7I984quR/XEPD9dliotbufBT57MgsopsMzD8OXJUw8l6nq2bbHL3K2bSdmo+6x36jwl7E+ZuhlInuyZ0PTztZlnX8V2wJSJp85l66K8rRRF6Y/f6drjZNBB3VdgGwOw3+fDra9FMmNMGSRkJPIwJ8o8ITP9+278gpgi3dby4X9G9ULrojPQmPIrdJnbspDUln6Rtk920V1LJ5QMLb0Lxspnpt3mv6X1JX2PSUfSXqZ0OEMOWffZNsL3fF86UronKSrzAArKUKaPB7WkjMLKKTz9Beh639kQbdtnum3bEG827Z5l01LP1/lK1E2P/H35T6c/rStBBKffX44qHbbd9qUjXSaSgnIFAAAA+knDl9z26zCMEdqzT/zPWda7cjl2mBizl9+C5XR0rj6gexstOnFmVF8RTtgZ4eikOrtbdN8E8yrAnZfYGdmkxw/F//btskZy60I/+ygvYY6RMhZ5r7r/UaLzdXNZyEzIaTaWmYIdb0vmN1V5tParTakj+dtyXRbfb4hvRw/T8Ul9TZJ0gjtXH4lntejgu2aDa73n4o0HVhlv0sKVVc+zVMczdvK2aHlRvHOsnPw7t9dEquw0MErHvXvD6fzTxhotW3pYCeGkZuuPkcWthHO6cvmOlJmt2/XD5RR3toyMxqTyifIwm+eLe7jMWY/SG+qLjvOPJpw8imfJuin0TPwtWU75esa0OIBnnjUmZHMlTmNrXN/H+90lOiCijgtbRTRBh3qyWXbJcsot80BOTdKJsWQZRfVkbIpmKuXTqZuyzC2Zic7SjAzYWO/U9bx1ejJhl5g66mY5CtIv6Fx1Otci/Xc9dpVZuZKvi70gaY/5ndVtYx4sB1NfFzj/3C5G9Te512uQzCLdcDrSN51g3qBItPtaF50yd/0K0x62pvf2SGdF2TkBiZVrbE/dtqgEshyz7LbIS4iv5KvnXWD8rgVLp5RtFO+xDrZojQspO21qSvfqYjm5xJyDSPHhSMrv7KzFNjqknOpNv3jWYux7tGjNkt9u2qPrekjd9Mk/TX22RRGW/iAmVZuxcsdu09NlAgAAADSNRgf0+ncYxha9WBf/OzpL5y9kBS+y9vLTv7WCIzJAU+vhHB3acDxeefhFjxyNlTtuUCJwH8NM3DJ0ZaZJ7a8knKmo06fT4NmDye1MSFJBsC3a4E6TCcZk7bm4ws93niVw925THdWSHZHl5/TE7bjl7v2o8l9HOSedVAeZhnQe+f29Cxxr6ghWmgMzoo6RISO4k6tnmoSup+tfJlJ/ekTJcsot80DUQQYv6YVbRt0EngrK3AweuHa/8+yl+G+6k1ZL3SxDRZ3trPk0o6h96wUF7yxpG3uJK7Ms3WgK1dp93R72EyfQVJp15/c8uCFsqAr6hPlK9ZZllt/ltPsCqVNjUzTfl9Og9fvNoCQH4yLfaoTG5GzxHDzlVG/6nXrulmsOyboZ6PfWbluqpz+FlnX73Ps4vRYAAMBQ0eCAnnIKC0+1lA5C9yfncYDsupzpNUvnL74vP/PWqG7kfFl/Nx+1BEujR/mGevN+dwadDJh06N617gMEXZPjsJUJLrT27+b/0omPk2V5npeRqFt6gJ7BNTZOkzooIQMmDx8lZ2wMhJygVU9nO9VHdp0rOVJfAl4S1T/9YQZQTjkHGdgd5bownd45W678MctrhwJevpVMf97S0yYxGNvIFMtMzU7qotPeBHi5npPPhA/RA9TMMPudZtlsLwj0lepE+12t0yedd5otFmJkwF/PMI7KIXMgt1tUEFPZSQ56rdI9nmls+Sp2uxVSTv1Nv6EeezY42xICD+zdUr7vOZO2tyvMGgQAAAD6S3MDenqpl3/mksEstas6cyyJmtnBS4FUo87OYRzUUyOtcq8meY/zMbOo9Chfr5dM9ZbkUiG1pLmGmVQ9pkwQVc324aVznrIUn54t30osb1Oj2nXMpOopw96B9s0wq4F4fyNLd/TS4IEwgHJKz4rsHjXzg5dFW3KNPs5yxUai92Jyl5fygNEQMBjbGCYzNTtpOAYYvOi9t+TeY1Y+5XLkHqH2ClP7bsbv5KWovSLQV6oT7XfJ5fe+dya2RhDcXIr+JmWfuzqjBnhWIgcdha96X9QvOUtfBiHjAZpS5dTX9NdnzwbmdwWzRfc/0+mRbTkHHxHUAwAA0GwaG9CTM5eKgkh6qV39ARFu1HVQL5qBkrFMNIVeYlFpPxwV4Okt6SUoPtSec7w0RM+UrHUJceDyjAT+/YiYoKU7rq70YvlYUDB3k+7yCD3rh55dmp1uPSre66VBqT20DFXKaQDopczpPRm7XSqeh66rgbMrs5aLlmIA5SSX31szSiO8S6fCbEsRtciqIrUEjKRshOwK9n7tBbWkfwBLa0NlpnQjuV9hJrUOrtWj26qtCpztXkv6zVYV3ewxXJYwX8lbz/W+esW4vlL18uHVGTIolkpvTfZML03lsiceAGE7zjZV1i8z2FS9nLLTXxNBddMvK7mvnv63ZBC2xYuWdx68jFwH9VLp3RYD9wAAALYLzQzomc2SC5x7swlv947qKM25QRPPvlxyg2Je5pA7EmqWVbr3jdDxC9Y7tEMQByH0KKj+1ju0s124AbHal6t9Tp1w2e2SZpv2Bc5n+WeaIOOcLVehK3Oni5ZmC9l/5OiK3tS5fa7O0Vft1Ho27reRe/6xfsiTDXPSrR1pb0ClVnSQ8fSxhCyqllP/0XXu6Gxi75vW2WPqQIeeLBVXZZ0IMPOpe1lLh3RHprsDRgZQTnL5vUj3R7Z9FLaKl7+mgpmhtqUA804hy97bwyQmYGRvol8aWdaiXKwAM8/m7MeS21rS3xPbWECozMx2EG7a+JTbVJAvzB6HUY9uq/Kxg/J8Em7WUtQ60q/Tbbchcslvb32NIF9JD1DENlHYFVHniU8qtQnyleI2ILlVigvL27UrOjiY2s6jxjIXspg7TXoAhH0rke9z7JOYd4aWU5n010RQ3TQDrrGseMbh3L5OMk2DsC0ibbIeRYPsLMP0Umy2Ia7umAB8epuLOm0LAAAA0B2vHTly5Bv978aglh7Yx8n7UE6dexR9Zdh5cjrjqZP0JP7AW+re1PN4mYGzXMy5h59xd7/I+/RadFKekoV9xL8Pf5oUvHTNlWPaoeGlKik5coBCdtztY/zLYZaRJOClG4llNzo95F73kc6rK3u1FFJ/MWTkoTB9WgZ+XfBRnL5Y/h6dSKCflZJXCbSOdXwy2pd8bkoWFd/rlanG1jNfGrLSm3ndxuhrhKv7IXqm71lX+pKsf7o8Il1yyprl9TnJTqk3nTnpC5UZU1hOJco8jEB7Icm/t0yZF9bj0nUzjDz5BqffKWuWwQIdE8+N2zX1HredUzrVTbuWl/4y70w9h6loE5hC/QuQmSGlG5ltlFNHBdX1JU+382SYTL8rV07P49ks2dSRfjfdbHfW6VAlPdPpCfIJ0mlnEunXdUdJQ7WHL85k1zEjNX6G6ytJnPsUbjubTldVexaESZNdd4yuJ+QYWk5l0p+DTMNub9umdNTyOwPrZqJeymeJ9lA8lxydrcW2lEm/IzMpr2eT4veUWzf9/rMhXQ7VbQsAAABQnQYG9JRTc3CxwEGRjXmyMQY1o524bpwU5SClO2S9pLDjOHC04x4UwAQAAAB2Bs1vvwEAAAAAmkPzltwO4DAM4EftY9jPvXd2CGY/v4Il5QAAAAAAAAAAAAA+mhfQk6d32csjfOiTqAqXfICq8Mw6eYLn5wg61cuoXJLJpxxiaQYAAAAAAAAAAACq0NhTbsFg4OUu5y/yhsdF+/aBUvA+OnxirbXPCwAAAAAAAAAAAEAVGnkoBgAAAAAAAAAAAAAAwA9m6AEAAAAAAAAAAAAAMEQgoAcAAAAAAAAAAAAAwBCBgB4AAAAAAAAAAAAAAEMEAnoAAAAAAAAAAAAAAAwRCOgBAAAAAAAAAAAAADBEIKAHAAAAAAAAAAAAAMAQ8e2xsbG/1/9uNO0L79P83/yRnv7rS/paX0sxOUHzP3uHxjtP6OmKvhZC1d/Vzggd/2SOfnjsBS3e3tLXNKem6PxPT9D09wtkUAfmXR8cUp/DnvQ0hhyZDSmts2/T2b/dTZu/eE4dfa0pyHr4odYL8RkdSJ3ZfmUeSpAdBI3CrTM9saeNacPSDJfONsO2hMqslD3WOvLOB9/pfdsifYiD9M2DZ7TetEYMAB9R/dD1qR++NgAAAFADQzJDb5QOHSVa+eVqrhPaenecWhtLdPemvgCqcXOJvvj0S/G5Rfc29LVtCgfPzl+corb+3g+4E3b+kwlq6e/DxMpl1gvxubTUuGBj3fS/nEZp7qLooJ8d0d/BsMM6NHe0Q/cu6XrDn8ub+q8l4M6m0I25U/o7AIKdZI+HnWFu93cEy6t0XdvohYf6GgAAADAEDEVAr3X2MLVplR7nBupGaeZ0izqLzZvVVAsmyPZZflATAABAE1ADUfTwEd1fVlcAGBhRwGKJGjaJEwAAAAAAVGQIAnojNDndEp2i9Xwn9NQ+alOHnuywJXgAAACaS2cNbRIAAAAAAACgfl47cuTIN/rfzYT3Yjm3m+5d+ipnlgPve3OSTqzfqb6c6eMp6lz5kh7P8hIpfX1jia6nZsTpd43pr+Kv+WnLRy3J0l8MD618yPxPqH8z9t8cePno/GlrQUfWvcHPLJarm/7OjVt0/arbgeWlhLPWstYMmQWmq1BmhbjpcVmlhcQshsD056F1LHO5jaVrqhxfijSs0yHrvV7ZltCPEFwd8penwKozC96Zs8Uyk+W4z6ljGc/tvswDKVFOktT9ru4Uk6q3DnYZRDL7nGjOeu+KpxyCyzKAPNviLccIpQct/W55L4nfXtuVkFul9Fttw4sztn6kyyAv/aUJLvNk3qvg1XuLSG5WvRl0G+aWUxmdTeXXLacSZZ62Qf5y8sq4tH6od5HI0939tq4578yzb1YdKiMzScZzJa6+enUipha7YZWT0av4uY5MctswXYa+NOvfZcokh0J7UErPckjZCodUvlyd7aZuuvU8o27m2mPzDE++dd4o8cyi9AfWE00tumjI1bMkbn1MkSrXPqQfAAAAyKDxAb3ChpXJc2ZDkL8fF85Vi1pR8Eo7Jj7n0rqmGmyq4HRpR4nsvOUF0PL+5k8HX5t59lVCJlKewjlNOMHC0ZkT6UjLLu+dWha2Q2qcnAKZyWuf7KK7Vpmm0+/7XVmZFaPey8GzDCddO4G2I6Z+06rUkWCKdNo8n4neYXUw7PItllkoWo5jSQe8dXaKJm8vRd8j8upcoMy8ckg9t/4yDyW0nFJ5knumxTIMR5VfXgDI1F+7o6TSkdRhdZ/VydByTXa+QjB6YXdYtJ7puk+e98eoe7kDxzKK0x8/L63Hgem3O2iRzqf1xfd8vubaxhCKy9zIS/0tTUXdyKtvjP67tBqRLHz6lLYRPvmEkionee1t2nPNLUv+V77OpsrE5Mm2Z4Fl7tOXdFo9v6tsW7Rc+Z9Rm5idLrccZdosW6O+d6gj9OhJQmYZ5VSkHxr3PUmM7iZ1NLMNyMNpr0y9cQMa6TyF62e6PEMwebR/p99p+zKhelaCfNkLAtvNUNx66Hu+kiH/K5ZHSt76d24asu7LT79VTwrkmipfT50OJa1DaT2zyS0rXzr42plXdN16Vp3pBwAAAPJo+JLbfh6GYQfzmE26e0O89ehhOj6prpi9/BasRrtz9QHd22jRiTOj+kogpyaV4/x5ecfQR2tcdOU21mjZcng7V50Oq3AoZliernN40xfMyyeShe3wLIvvjsxocpfsZK7csZ2mzeTvRDnL/Q9vPLAcdnHPldXks2qWWTHC0fyRcOqF02c7YKrMhcMm/haPvdZPopxu8pLzFh181xyYECizUIxsnU5T52rJjlzdMut7mYdi5H8rUXdWLt+R5VTaHpQiWU6d22viygQdMgcmRPXc6ujqutk6PWnNnggg0gvrWUbPxqZoRryz8+ylvs5w5+x9On9B51/W/w5txD8WJJ+n0t+iMZOwkunnMojt9hYtLwpNGVN2hwmyjUGElPkW3f9MH1TwKV/X6dObrX/xabJ+1U6ig7pJjx+K/E/vjWVRZxsmynrPPvE/ZzuMlcu+PBborCBVJqLM7/Lm9Ed5O40kRWXePjMlfYIFywapchK6ZQ6d6YVtsYNCrAvCd6GxcZosa48ZK5jHdK4+svSsB9TWBjicmpJBHS6zZCAjrA0z9iFu+xjlG3ZuLCd0r5AAe2ZTpGf1Ub+vkaqHN5fls2x7oCiwx9L3EGmYtfXObIVj9gctmX6uJ3lyrbMNq9tXaqs2LbG9j0ibHcyrN/0AAABAPo0O6PX7MIxk0Ek4I7KjahybrL38tujFuvjfvnJOXntWOD9OJ7MbOmvsEAnHOecUNRn4LJRnCFoWG69SMk85g8vqnva597NPaMza/3CFfxs/q26ZFTK5lw6KTlV6D6xeOvaGgnIKlFkotcm2Zpn1vcxDkfJnG+HmUwVRytqDUhTII6ueK3u2m/aU6MBI+dNLeuG+T3fyWvtFJ1vqnHnuCI3x7DQThJGdH4ea0++WAQeG7I3/Q2xjEIMs80DcNixJvW1Y9Lujs3EAN4uKdViWnYf8MtfBnpRPsEUbHNAYV4GhXtiW1Dsr2mNJKm0q/b3Ss57Y2nfTs7YiQtuw5ef0xA1EZf22gCB7ZlFkW2qjL76Grq8uhWWu7ZsdWNfpjexNyfQX+et1tmF1+0rmdyc+fjszGFhr+gEAAIACGhzQU52PwhFY2Viv0l3XWawD2XAbTEdVdF4uvp/4qCULg0U6mnqUed6kzelkqZkqdp66ZD37WbFjvEkLn95So7TnjMySjlBr/27+r3CQzN/152N7j5LBke7AGwbnmNUrMz3TJqc8y9JEmdWPO/PMoqfB3nxkPacJmrP1gj+iY12JHJshgyMyaK87RmyPHy6J+m6Xs6cDnUPd6Q+xjeE0s8zDqL8NW7n8JV2Xs7LjZ86bGXCl4WVwyXTxzK7S6FnhrdMnE886f5GXWqpbhpOMgEwtlGgDeGllQq7i4w2Wi/bptKqzvvYgvA1Lz3SUgbmqp0cX2bMBUmu7OTkR2zv9qVzPry0JmcUzamXAyrMqpq7019kG1O5f8mw8OfvafuZUHOwU1N4GAwAAADk0N6Cnl0bkj8Caaf7ujIOa0FPrVQdOj47zkqZo+ZT18e210W9uLkXpWZAjqsmZE2qmSn86nUnHzlqGdokdQ3aE4qCeGrXkZR/6HudTfmlcvygXqKiTemVWdYZOFQYns75SZ+C8JGpW0yotePSi7iWf9owMDuJz52nlzqrQJ7VETnamSsqiJ+kvsI21MMAyD6M3bZiatcTPUAM3HEgrH9Sz9jGz0iSDhWXRs8KTS52tj700bqiof+AlpkQbYNWl6OPVHdU+cX3zzdAv1YYltpzQW7HkzkatRnqGWVMo2W5yMI8DVk5dl7avCnqWpFp2qwfbS62KKZf+OtuA3viXPFCtn8GDRTJ4Fwf1+tkGAwAAAI0N6AUt/3Cn/ddMcnlGvUEPb3BNBjH1v7uEZ05I581Kr3JskvsWVUMvo/DsbZS11CCCRzd1UC9a6hC49KEXMlMyyRg9TjixNllL18Lw5qMsVZeLZKDSVHGvJ5suZab0J6Z0mUezEpIj5lXILafUnoaGrOV+ISSXBFYlV6dLwsE5r14kljHpQJEsY2G2RQHz76IlciUDEHWm34fPNgbRkzIPRAep3CWB5eh14J4HbnRQr6wOS30SZVOwX24YYfWoF+2JS2F7KFH6U0jmssZ6qK0NcFi5bGboO0sUS7Vhm3JPY2lT9KqMfJn6CbNnvSG3PanZ11B616F71+ryjfUsSfb5pB46sqo5/bW2ATX7Sik4wC2DenF6S6e/Rr8FAADAzqOZAT2zoWyBc282vu7uMIwMTk3J5Qn2prZy2QEv26phZofZFDzaoJsb9HO7qSOcovLwRvSuI6A7CXZnWm+KnHKsOa8lg3xqg+4JmrNlIfIwJzcftpZJ84bYzmwN42xGS9eW1ebnqXQ51CszjXb2/BuNGyd2NiGf1tljcvZoVWdZOXtWPqoQKLNQog3XP3aWjpydKvn8cJm5HUhzIp5N6TKP9mzrUr6C/HLSHczTxxLyaV/gE/yqbgGgAy5VNuq2kfU8XZaVMM/6yF5SN0pzvHQoWvKm0t06PUsnSA/CcPBL2EppD8oGIOpMf6htDKIXZR6KDlJ1uaF6nW2Y1AN3qWXVoJO0w0KWVkCAT4mstOTWskF5MwV70p7Y+NpDs6dslE89M1F/y0bo8UfK37EP+qiT+toAFw70miWK1rNLtmGyvFh3he0pfRiGIcie9Yb89qReX0O9yx58YDvY5fYwckBD6LQow1ZKVjX7SnW2ATX7SuynuP5yam/GkumPBzLrGHAHAACw03jtyJEj3+h/NwbVsX9J0XHvXpQj3PJttlwadnbc/XWEE+Kc9qbwO+Cpk2ND4L1ooj01eHr+EhEfdU/xSYXq6Hv5zxTJd6bT5d2IWpB6Ji/LsJYhdfNOnxzSgRqVV7dsfQGd5KmBggCZlSbxTMZJX9HfK5DKq5VPv/779T1IZsGk60FSh/y6r6gms4SuyXS/ohnxDrL1qFSZx3nI0v8y5JUTU/T38uSXgZTXPucdHIgQHYeOU/e89dip62EU6UUsh1Raxfttm1Br+rVeFNvecNsYQniZ++tsdXLsbZ4MXXln1ONiOXrQ77UtkPuc4DJ3bAaX0QIdE7K2bGFwmQs8aRNPTbbrpWxLHiVk6qSL77m7X+jU9FosI0cWklTd9b9TEdtbbxuhSdeD4roehEz/7qSso3wny8CbPm+dMmnL8s1CCchjGT0rQaHtSJW7v90MwX0X5+XxbLIulrHHjLHJmXIpTL/fJqq0pn3+wjagBEV65v27xtWPVLoy2oDg9Ed1o3p5AwAA2Lk0MKCnnK2DiwVOpHQcCI0fACCBcczr7owBAIAff6AC1IkOxJE/eAJ6jwpQIegEAAAANInmLbltwmEYAIDhZFItc+NRcATzAABgm2D2TP4lgnmDQe8VWnW5MwAAAAB6QiOX3AIAQDniZVSVlogBAEBlMEOvt+jlxRWXW4JuwexIAAAAoKkgoAcAAAAAUBkE9HqCvd8ggnkDQAdS+Z+Ze4UCAAAAYJAgoAcAAAAAAAAAAAAAwBDRvD30AAAAAAAAAAAAAAAAmSCgBwAAAAAAAAAAAADAEIGAHgAAAAAAAAAAAAAAQwQCegAAAAAAAAAAAAAADBEI6AEAAAAAAAAAAAAAMEQgoAcAAAAAAAAAAAAAwBAxNAG99oX36fwnE9TS371MTtD8xfdp7pT+DgAAAAAAAAAAAADANmNIAnqjdOgo0covV6mjr/hovTtOrY0luntTXwAAAAAAAAAAAAAAYJsxFAG91tnD1KZVepwbqBulmdMt6iw+zw36AQAAAAAAAAAAAAAwzAxBQG+EJqdbRA/XaUVf8XJqH7WpQ09ub+kLAAAAAAAAAAAAAABsP5of0Ds1SSfGOnTv2qa+4GOEjv9ogujhI7q/rC8BAAAAAAAAAAAAALANaXxArz07QbSxRst5gbrJvXRwjGjlTl7QDwAAAAAAAAAAAACA4afhAT0chgEAAAAAAAAAAAAAgE2jA3o4DAMAAAAAAAAAAAAAgCQNDuipwzA6N5YDDsNYpbtXcRgGAAAAAAAAAAAAANj+NDegpw/DyD+11hyGUXACLgAAAAAAAAAAAAAA24TGBvRwGAYAAAAAAAAAAAAAAGmaGdCbnKCZgMMw2memcBgGAAAAAAAAAAAAANhRNDKgJ0+tDTgMg0/AxWEYAAAAAAAAAAAAAGAn0cCAHg7DAAAAAAAAAAAAAAAgi+YF9HAYBgAAAAAAAAAAAAAAmbx25MiRb/S/AQAAAAAAAAAAAAAADaexp9wCAAAAAAAAAAAAAADSIKAHAAAAAAAAAAAAAMAQgYAeAAAAAAAAAAAAAABDBAJ6AAAAAAAAAAAAAAAMEQjoAQAAAAAAAAAAAAAwRCCgBwAAAAAAAAAAAADAEIGAHgAAAAAAAAAAAAAAQ8S3x8bG/l7/u9G0L7xP83/zR3r6ry/pa30txeQEzf/sHRrvPKGnK/oaaB4NKyepWx8eogO71mjpN3/SVzU6re98cIim+fP9Ah0EAAAAAAAAAAAA6DFDMkNvlA4dJVr55Sp19BUfrXfHqbWxRHdv6gtgW8IBuPOfTFBLf+8py6t0/dMv6QvxWXiorwEAAAAAAAAAAAAMkKEI6LXOHqY2rdLj3EDdKM2cblFn8Xlu0M/PCB3/5H06f9HzuTCq7wHblZXLKmB3/eqWvgIAAAAAAAAAAADQXIYgoDdCk9MtoofrlLs689Q+alOHntzuIijz8I4M7CQ+lzf1HwEAAAAAAAAAAAAAGDyvHTly5Bv972ZyaorOn9tN9y59RfeX9bUUPMPuJJ1Yv1MxAFfm96M0d3GW2vobUcdJm/Wsa7to/uOpaGlo58atcrPAZN6JFi69ohn5nFVa+HSZ9vDzx8TfOQBppbd19m2aP20tRHX+bsvyxZn3ae6ovi6fu+QETN18+u4JxX2WYuXKl7Rgz7qU6ZvQXwR2+nkvO0uWKTaW6Ppn1pJs91me9PPS3VgGnvQ4yPv3Oe+xSaWxTpm5eqbJk5mFqxuldREAAAAAAAAAAACNofGHYrR/fIIOfOsp/fqf8w7DGKf3/novrf/qtxUPWXidvveDNo2/WqPFvBl+HDz56RTRjVt09R9/R4u/eEJPd71Jc+ffotHogAf9rPZ+mj71Oj28dJP+5coTWux8h96ZP2bdF8DkXpo+vptG3/qG7v78EX3rgyk68P0WjS7+B/2fpy2aevt12vwFLzHmIOIczb31n7Tw6Vf0byJdi794QaMfztJf2Yc4yOfto/FTh+jA8zv0xT/8Vty3Rt98/xi99wP7Pj4I4ji9YeVz8/AJmvvwO/p9JfA8a/HBH+nAqb309f1YFhxwOjv/Bt0z8jLpP/xClUnnJS3JfHFaRPq/tUTXf36Pfq2vLdoHVfA7T7+gqzJ//Hedx58k09+5rX/rSY+P1rt8cMZzWvIdiqGDebZuLD4YETL7Ni2VnjWqg3kcnIvysEVv/d1e2rTeXSgzDQcif/i2pRsiv1PnZ2jKdwgIAAAAAAAAAAAAGk/Dl9w26TCMETr+owk5A8qe2dS5+oDubRC1xd+Ss8d4dpY1o+qmWjLc2j+ivgcjnrq4HM3yatEaLUTv3017JsX/Tk3SiTGewWXPBtukhSurRGNTNHNKX9Lw7Kx4FtcWLS8K6Y7titLfPjMl5Rm/h/eZuyOePUEzZ8ul3/esNHr/wxsPrBloOv1HD9NxzmMZ+CCLxCy1LbovdIhE+g85sqiNNsvPWfKdSkcgk6osVu7YvxXySMwMDJTZpCgzrkNXLN0Q6Vq40aHW6cnUrEkAAAAAAAAAAAA0n0YH9Hp/GIbD0dnUoRhzJgA0uZcOjhF11tzAVDogJtl45aRnkxYqHbzgBInW3ecStWd5yeVLeuEux8wIInaeJdPQufoVfREtDVVB1LQ8t2hjQzxrvExAL+tZDln7H65wXls0VkfUST6rh+i0nvj47fIBSJdlldb2OUv/XAJlJoPdnjrUefZS/FcHhAEAAAAAAAAAADBUNDigpw7D6NyIZ6d5kYGNVbpbOlDmgZc4OodiuHuqucGwmAEHR1IBxJhSQTg9O6x1+qQT3NT79vWA1v7d/F868bH9PvHJ2zOvAF5mWtezguDZeJ/yLEY7H1MVZ8Bx8PeWmvl5zjwrGSgMlVlrnL9N0Jx9D38S+wsCAAAAAAAAAABgmGhuQE8vI80/tdYsgy04AbcveGbINYT0rMIc9OwwuSzXCW7KT5UlpAWo2WK8ZNjzPvHJO6jChzrswnnepaXMgGd9qFmY8n289FUG0qoG9bbo/md22pOz/0Jl1lnjXPPyb999eQfNAAAAAAAAAAAAoKk0NqAnl5FurNFyXsBBL4NN7jXWI5af0xOeMTU7qi8Y1EzCQQYVV+7wXnnjNOnOEMxalplLlaW1WfifJffV0/+WlFxaK4NU7hLnCLXMlx4+Gmyw6uaSDurVMHOTZ//poF4ko0CZYWktAAAAAAAAAACw/WhmQM9s5F9wGIY5cKG3h2EY9MEKR2cT+5q1zh5TB1Jc60NQMYuby3Rvo0UnPrIP5hilOV5WWTqwFedzvuQBGGn0/oLWIQ18Muvcvk6yXJdX6e5DUZ7nwvafU0GqrAM6VBCRjnIwU8OnE/d4ya3Ml7PfXebehkWI9LqyV3vhdWjDRI1DZWZ0Q+S/2kxBAAAAAAAAAAAANI3Xjhw58o3+d2Pg4Mj86Ze0EB3U4GOU5i7OUuvGrQoHTbiM0PFPTtKJ9TvFS0o5OJTYf4yXM9rp1M+iJbqeOJW0AvJdu+neJV4aqfLb5n3+RBqVjEj/jW/W77X2ueNlswnZ6LSvXAlYxjo5QfOpIBgv8Sy/TFMtgdVfZPpJ5oWcdKg8OWG3Db8cU/cm7tOykv8W8N8+F+8U+elE73TuSRCXqTdNGle+iXwyGWkPIf1eV88UoTJLpY3RugQAAAAAAAAAAIDhooEBPRWYOrhYEKiTwSkqCPoBAAAAAAAAAAAAALC9aN6S26E7DAMAAAAAAAAAAAAAgP7RyCW3AAAAAAAAAAAAAAAAP4095RYAAAAAAAAAAAAAAJAGAT0AAAAAAAAAAAAAAIYIBPQAAAAAAAAAAAAAABgiENADAAAAAAAAAAAAAGCIQEAPAAAAAAAAAAAAAIAhAgE9AAAAAAAAAAAAAACGCAT0AAAAAAAAAAAAAAAYIhDQAwAAAAAAAAAAAABgiPj22NjY3+t/N5r2hfdp/m/+SE//9SV9ra+lmJyg+Z+9Q+OdJ/R0RV/bIUj5fHiIpj9Qn9E6ZHBqis7/9ARNf79A7gBYtM6+TWf/djdt/uI5dfS1XKBng0XbzXc++E54mYG+EdT2gR2Naf8P7Fqjpd/8SV9tEiN0/JM5em9vhfTtYL8uNO+NshENbk+aX0+azbC3RcOV/i5sJgBgxzEkM/RG6dBRopVfruY6B613x6m1sUR3b+oLO4iVy1/SF5+Kz6WlAgdqlOYuikbt7Ij+Pnxwo3z+kwlq6e8AgDSoJ2DY4MGA8xenqK2/72g4MCLa6rlT+vsQ075wkk6MrdLdq1v6So8IlNmw6FmYTxvmHw8jaMOaxLDr2bClf4vui7S2Tp/cFm0AAKC3vHbkyJFv9L8bCztf86df0sKnS5Q9SMmBqllq3bhF13vtNNYAOypz3Lhc+ZIWImeNR2TY8XWvl4Ad2o+nqJP5++GSkw8pu31LdP2zXjfM2bJS5bdaoJM7k7D6Ogji+pVCdJp6r0/9pX/1ZEBoW+fr7FW2n/2CZ6Wem9BffHTo3qWv6P7yDihHi77ajowy6DSlbSxsy4cDVaYU6XNpysgh8N7mtlE2Yb7acOSlGjvJ9jWdLD1T161WOMuXSrXXHv85dU/cDiZRdSMOyGfdF+NPv/scJuNZIem3iOXSXT9BPacL+wkA2BEMwQy9EZqcFkbx4Xq+QTy1TxjlDj25PVxBqvbsqP6XYHIvHfQFGwAA9cEOJ89mtT/oMAwtHLxLlKX4ND4AcnPJSu8turchrj28Y12D894fuPNmZC4+V9SMCMwKqotRmhGd2s6NB4H6zB3s9zEjhQnyaQP9YwC6wq9nMtg0vWb5U3doZWyK5l37yYMnH08R3bil7+M2b0LUdWuWrAyYjdMTyx4vPGzRiY/fpuOT+h6G7+MgnNVeeu9LkFVPNmlBPyP3WSHptxFpnLODnAmUjQtdJdW5+kC8S6TpI7RJAIBsmj9DT46i7y4YndAzb9aFgb+8qa81GZXeg4tL1Dm9ix7r0RtuHOdoTVwTDYceYfaOUOqRIu8odMbf4tEiP4lZCe7MBW44XblGje9X9OKMSONRfd03OqfTFL/dHQGzyu/arsS9UbpSz3DQ7yWdz/QMHf0Oyhg99JI9Qu6doZdKo/13U+a36O74SSkvmbdnk1rWrkzyRyDl++kOXV87rMqVy8iSnZt/lV79ReDOQlH6waOXy7SH5WQCy4nyVGli3by739anpBziZ63TISsPqZkvIXoW4cqjyqhnoA6U0W2BW7eS+QzQbS2HlHwErp6ZcnefFZV3YD2ReXDvzcgfk7IfTlnJv7Nj/9krmskrc4N5d26ZF6CfkT8bJ0D+Frn1RJYT0cIlkUf5HC4Xq75UzouVRs/vZZq4DficaM5Kv28WYr4uGvJtS5jM9DN8OqP12Zc+P256XNy6XpT+QGQ6076FkWGUfuu+hD3w2CBXf7J1ItuepZ7hYMvVvTdX5rpcIrxpy05XFZQsA2ePRfbIeadVzx/PWvm1dC9MZuF6VsqeuXY0R2YqnSH6mm8TIjJ02FBkD2R68toTSaANdeWQ0Z4UvjMlT4ecdiqL4HqSend2WeXLVuma9B0jH0+RW0dzcN+Xrr8l3unagogM3S3QMxuVTntGWZYuW+l165RBlwcH0sw9sixTszYL6kuJ9Jt3xn5F+fSbNC4sjtNc3qzGUJ9Bl1dV3QEAbH8afyhG+8cn6MC3ntKv/zlnE9PJcXrvr/fS+q9+OySbJr9O3/tBm0Z/v0S//foYzUzypqe76b2/fZ1++49r9M332zT+B7URautd3sD3OS3Zm7juadHUqb309X3PRskZf/v6N89o8RdPxOcFjX6wXzaQV//xd/rak+SmqyvP9XWdlldrtOiOEsv3vEkHTon0PReN0j/8Vj37J8fpncMvrPtFo/d336F///k9+rV+1+bht+i9H++lbx48o3XZIit5jLf30/Sp1+nhpZv0L1fEvZ3v0Dvzx9QBH/df0lL0e/HOb4kG3XrmopbP17/Zkvlrv26nQaB15OvbS7QYvMHsCB0Qz3pDCNLdlFaWy3df0lO96TM30GfPv0nrosG9/k8mnSdo7kOTT13m32vR+KP/oP/ztEXT0/vowLv/Rf/+6SP61gcHafyPevNbbrx/qpwYU0ZPd71Jc+ffig47ke/ft4vGX3tEV3/13zT9g3E68Naf05PL/0G/f6tNUy2Tf3Y6TtK0La8Hf6Sp8zOJcnrjL9+kqYMiPR+06c9um/e65ank0T5+SDz/qX4e68gxeu8H8UbD8bP2S6dIykOWZdsqc0GInjFaHjL4I/WMf/PfNHNhhJ767s9E6xk59cnF0u3RB1myYNjRm6O5t74WjqLWWZG2tb88TH/xf5+H6/bNVzL/B773B2ez5lGa+XC/yPcj+jf9TlnuR5PPerprr3jWm0q2y2H1RNJx7nXtjMTk8T+FU/oV/Zu8X8jiw1n6K+sQE1nmb4nPB7voiS+Pjp1q/XCKpg++QfTd/66+cXqeHYwIkL/8bUA9mdxL08d30+hb39Ddn3OdnaID32/R6KKqz1Nvv14xLzqNGfovy7y9V+TVLfPkwTPcifjh21Y56fRP2RvAB9iWMJlt0aZIw5SwOVt2nRbINvu7q3T3n0JlsSXsqHi+TIt45kFb1/hjPSco/YHI8nyDfn8zmf6vR3eL6y3qGL2S9+2j8URbl7Z73Aa89bubkf1n+R/4sWszBAX2rHPb+r3Qb7tNkfm18ujem1UXWDfmf6CClNGzXp+kucnn8f3ckf3ZcXrDkq1qw6oebjBCf/E/jtD4cmy/MmGZ/K9D9AYHa37+hNb1ZYmu5/tEu+P6Gka3w2QWrmexPXPbMMeeWQEHI7PFByNCZt+mpVSetT2nN+jPTFufRaBPm+cfh9iDwvZECiTQhga1J/Y7t4Tvo9JWuQ0LJKyehPiqTEi7r3ylfQfbwnZwQMeTz+AKFdYGB7+T65oODqk6Ip4lfsd7NabqniaoH6ZR/h/FdjVDl1tnj9E7wgd4o+X6PRa67vMPlc6qOkSuH3/qMP3w3VamP1Em/Sm/omz6hXznf0B07/JDWp9gWfxX1E8wyP6YqD/TPxB+UMhhcCv/7e/XAACApuFLbrf/YRgrd1apNb2XWry8YhiXTSRGmDbp7g1RUkd5qYhhkxac0dSVa3xwR4sOvutOOefRQWsE7aaSR2t/mQM8NunxQ/G/RBq0jojn92ZTbrOs6FZi9Gzl8h2R/hadOBMvq26NvYzTMCZ+cyUeuWuNcz6F8/ajCSlXe9RPTbsXjon4WzRGO0b05JqRvbi6aC1r2rdL3tc6e1jIQcjVLoNl8V2W0+HUEgXp5EXv1bLUz4pIjJCrjXtpbJwmPc+K5CHL0lfmRcTySI5kCr0KGdnshkQZeGRxapJOjKVH8DtXlzyjwHm6vUXLi0Kargz1kqt7URkbku/sXH1UUbYBRHm0R5iF7K9wmU/RjLM0buVKWP3t3F5T+tM3m5dvW8LrCdez5SjNLVqjhUhHdtMepw7Uh1PmUn4TdMjIf3KCZrittOyJSX/r9KS2hSVsiyRfZioNrt6pNrtzI5ZRfZRNfzVa+3eL/3Zow8kA2/fYBpk6G9uDztWvkrMnhPzvptqiAdizSDec2R03lxLf22empB8V67P4jWzDxO+rHKKltxBZuZOfLw6EcoBBytfxFRIkZKbssfSd9JVekGzDlpWe2duktLn8nWWxotyve8tStyHu/R66PgwjyB4YQtuTfHtQjmSbYmzJWDJhfSbQVy3T7rOvZM3OqpTPkm1w0Tvbs8L+JHRL++0eH05R7jCJ1jjXyJf0wshC1xHbnsoBhmnRdsr3Ov6ljfytyMMzXV8mne8CZT9IycPbBpdJv7DPHyk7GMmnVPpHaU7asoAtBnjbDT7EkJcoFx7Qk+GLAwCAptEBPdPJelzg1MhgymKVEeRBMUJjwtGVjRI7iTROc8LJL3J8m4ib5s6zl+K/BR3b5Vf+stpwrwun5VM7wBQGB0nJ7uwKeXezz4zcU+ni+4lPYnmPDLwknQyFpxFOpCHdaTSdoM6a+6x0B5I21mjZdihT79f5TslV3Ot1LNPpkacnO05uqq6t8PPdZxXV20ACO4WlkA5UsjzPX7A6aZqidyrHOFkGmRToti84kvn81LUt2hAdTRUQrheZBts5N3g7cyXKnDu9vBdNDUGM9jmnLH3Oca78y9QTpzO+nv5NTyjQMzNg4co/YY/L2BamyB4vP6cnrHd2UKWXe9mWTX8VeHaFHJxJd8hc+8oBvC8yllYaOmuOdvTCnhWQpRtJdCA25Ud1YVs8HWEX2TEW8k4OJPnpv3/kymyLXvD0Jbs9121f/v5dMbI9tYNiXsJ82jz/OMgeGELbkyJ7UIbQdnPQeHzVUu2+2z7odi8RWC+gXBssyH3nCO3ZJ6968LxDENYP0wj7KX3jTF+bZ8K/TzNrBcF7iQqOZfsVI3T8E2E/xh/l2uHi9KvnKN/hJPFp3G5gNyY//eZdwRMHZNmoQZO5i/k2RLYldbRxAIBtSYMDeqqTVTjSLzsQvZp51Q+4MyIaAkqOxvaicz4o5Aha1NnmT94+NjXgjqTLTlTHM9MpDDlzQDhEyY1z9R8jcjouFRrhdHDOUGEWUE7Qodroeh8J6BSWRo5gJ8uzfGBJO8Z1BXSEY8ezeeLgSLlR8Z7iCXQZmmCnOBiQKMuCIEsmQ1xP1KwI7hTYdlZ8ZIcoSX22JT07V3Y+Hz4qnp3QBbXaRlHbTnxsy4v3WaoYpNCdPVv+iT2vmF7YswKkbuTUYYme+ZIevOIOrrqldvQssqEm6pDbelQ026aAIJ823z8uYw9ATLGvWnO7H0ptbbCx2fbMPhVA9gfhAvthjF7KK/0rnz/VnpCHWfAezMX2lW0py96dmWjgv6s9qfN9t5D0C5l8ZvkPV0jWm3l3VnJR+oU944MwErNiS5FczQMAAGVobkBPTzMvOuFLLV/JGg0aDuRIf+Fo1XDCDpIZgY873OwA9xI9Y0MvdVLLVwY4IlzUmSqFfxS1Ktmd44bgnf3XBDyzNbpEziw1wRHdqQsaFR8g6dlS25Om1xM1E4yXxNl21nyKZgQZKtgWOUvEzCzVQei+z6QyVLGN3GGsIisX3QF1Bguu85IsmwHYs6CZHXomkm/wSn5qmEmbQs8cYhnJWbaeWdLDgZqpJuUkl/1xIK1qUC/Qpy3wj+uxBzuLMF+1/na/W8q2wWpLAbJmtgu7ldoCQBPUDxNMTtC8nk2Xmt1mZrGeUyfY2rMT/YMNPGNOBVITW3gw2k61z6UDaypfThsQmn4b3orAHlwNSr9IMy/VFXIsM/tSyk0GLnVd7YWdBQDsCBob0Aua1j6A5Su1oEfDq6KWU1Sld8vzmGS5maVs9e5vGNJBUfvA8LJbPULXyyXZiU6tTdYyphz0MrbEPj0SLctSwetkYNMmbBlWGHU+K4Vx4FLyGDxKD7P2namAnFmq9EjNdAos6ww7GNSRLyARZLTpdmmldGSb0onvTz3pJWFbHdRpWwybcv+laB/YLmWVm4+epL8mZN5FfSmaUVvGnul7u50dqmRqb0Hhowd+QWDwUg5ociDs6Cyd/6TLfRADZRZUX1IEtOe8L1bmXl6i3C9wACVnaV2gT1vkH1fLn6ZBfnVwG8azw7g9qaw/4b5q7e0+Y9pDTyC43jY43u85EeTNCCSF9cNE2uXJwByU8sxO03Y7PXPbV584mKdmBSf2r4zQ29ikysnfBgSlv4iQ9Os6I22YLEf1UTO0zUxZp2xZZ1luchCoeFZf0ExrAMCOpZkBPdFAyA19C5xjs4lzncGiwZMcAXSdBzOKWB39fM+BCF2j98+Iy02/y3ZGohGp6pgOSv5G3arhb59Te2L0dkm27tSePpaQafuCGnkr9269JEI4BnNWB4xP1JIbI5dcNmwCm3N24ESUAS8NqGXj+jqf5UXJluWRXAIxmszTADCbh58QTpmtz62zUxXrlgos8bK3uaOhZa1Hhj12MKyeFKCDjCc+sjtKQvY8Gt/F0spoUMITRBsEPa8nvcaUk6OLSeq1LQa5zyDvSyl0omtZmdkQZ3x1uzfprwWZbu5Axuk2+8MlKWPPdJAtdYhBScwWFOecQBK315EcY9mmlppVJTMA66HUBvF5BMosV8/8+Npz9sdsXWRkEME7W1QFAMSvPIN/iiCfNsQ/DrIHPrLbk0EQ2oYpmQsqB9rCfdX6233x22iQ3hN4r7UNLhG4D9EzlhEHpbKCeRKf3daz8ISexYfwFAXzFPKgEmEn5iydaF/Qe9/ZgcmQ9HuQddrpxxSmX882TgRJxUfN0Naz7yz58Dvk8mSeGRm0Okvbjn4v9QYADA2vHTly5Bv978agglZ87HreqIVa4tK6cavifjcDRDeCnYxGizsCc/uWopNE5Xc25oxoQK5/9opmRN55yrn6vZKF33HzNbRxw2ngETsjx8T7HKKGNmrIbXj5krucw30Xp2edDiXKTt9DcZ6LSAU2pVyc35o9PbKWExSSrWNKRknZ5qdJ53FdpUXdS1peuvzsdJq0RyTfldARfa8qG58s0/rhOkzJ9OiLKfx65n+WW3/TsgzSM0OBPMJI632EXVYZ9TMhc32tqC6V1m1Tr3z6LPDKLEe/83Qy9TcLbx4y8xhe5hEmn5XrpqDAjirKyL+gnkgd5D3W0nU2rP5kodOobYOLV+/ydLRIPwrrUkmdjfTDZ/8rUJS+WmyBIFGe+poP/b6UTXJx0sV1ZIGOeeqFIDgPeTqZ/ltM+nkp3fDVPVMv9VdF9XL124U8VJ5i30aQp+spe8wU1GNDThl4bWOoTc64j1H3ZslTpbvIpy0j0yJ7UPR3RZg98MpMk/IvA+0Zk3quT76mLL2yD60nxo7JLwL+m+urGtx73TZRv9NXx3xE9S7LDhS9jwl8p7eOM0m9DNEzr/4Y3LJw61vR3xM4dSaVh7TcguqJTxZZ9bco/R78aQir5wnkuwPaKgDAjqWBAT3VcPFmp7nGTho4yjfWoHfkOGCNQTfAhR0xEEgFRwSUQ9crypCxtzMEwEAJ6/CDnUjJwEZDCAoG1E2QTxvoHweC9mSHYQJYWUFbnuUm9a9ePes/w55+G102GQN+AADANG/J7Q46DAP0FrV/xnZbkg22M2bPtuE9tRvsOMyeWyWXNoGdQLzE2F2aCmwCfdoqm/wDYJCnbAtbndofUS85Ngy7nm2jetKILSUAAI2neQE93kul8BSuLXXMOEYrQAY8wi6XtnyOTiYYEk5NyaVFK1cw6xgMC6M0p2d8YBY08MGHXvCpkak9/IBFoE8b5B8DkIFnr0+J8D3k0lkTUB52Pdsu9STyCVHnAQD5NPaUWwCqwEtI1OlSVfezAqC/cPBZnoqG5eFgWOClW/LkvuFbTgn6z8rlW3Jj/6zDIAAAfYAPb+DDZ44mT2M1vgfseJNQs3blXqzwCQEABTTyUAwAAAAAAAAAAAAAAIAfBPQAAAAAAECj+Jv/5z3as3+X/gYAAMPL//75Av3XH/6kvwEAQH0goAcAAAAAAAAAAAAAwBCBPfQAAAAAAAAAAAAAABgiENADAAAAAAAAAAAAAGCIQEAPAAAAAAAAAAAAAIAhAgE9AAAAAAAAAAAAAACGCAT0AAAAAAAAAAAAAAAYIhDQAwAAAAAAAAAAAABgiEBADwAAAAAAAAAAAACAIQIBPQAAAAAAAAAAAAAAhggE9AAAAAAAAAAAAAAAGCIQ0AMAAAAAAAAAAAAAYIhAQA8AAAAAAAAAAAAAgCECAT0AAAAAAAAAAAAAAIYIBPQAAAAAAAAAAAAAABgiENADAAAAAAAAAAAAAGCIQEAPAAAAAAAAAAAAAIChgej/B+hxVVwHpSp2AAAAAElFTkSuQmCC;" vertex="1" parent="1">
          <mxGeometry x="-246.92000000000002" y="-780" width="683.84" height="133.21" as="geometry" />
        </mxCell>
        <mxCell id="R_uyZLrXPGm5i9p8NuaK-61" value="queryIndex := 2" style="text;html=1;strokeColor=none;fillColor=none;align=center;verticalAlign=middle;whiteSpace=wrap;rounded=0;labelBackgroundColor=#FFFFFF;fontSize=14;fontColor=#000000;" vertex="1" parent="1">
          <mxGeometry x="40" y="-630" width="110" height="30" as="geometry" />
        </mxCell>
        <mxCell id="R_uyZLrXPGm5i9p8NuaK-62" value="" style="shape=image;verticalLabelPosition=bottom;labelBackgroundColor=default;verticalAlign=top;aspect=fixed;imageAspect=0;image=data:image/png,iVBORw0KGgoAAAANSUhEUgAAAooAAAGWCAYAAAD/iKLxAAAAAXNSR0IArs4c6QAAAARnQU1BAACxjwv8YQUAAAAJcEhZcwAADsMAAA7DAcdvqGQAAIRjSURBVHhe7b09iDtPmN/5+DA+jLj1BL7h4IYFGSzWMGCUrANl2vBQYOWzizLBhR3ZMNGAHSmfTHgnciIHwuEqU3CbKBnYRQYrGcOh22Bu78RydwZfPfXSXVVd3V39Io2k+X5A//9vNDXV9dZV33rqqaq/94d/+If/jcDNMlusaNI/0W7xQm9b/SUAIMCIXj8SGvaITrsFveCFcRi9flAyPNJ6mtBSf/fjzBa0mvTpsJ5ScjWJAlfB6JU+kiGJwQ/v8pn57/T/wY2yTBa0O/VoMB7pbwAAYbb09jKl6XSKgeXKYdG6Wq0gEkEhs+mQeoc13uULAIsiAAAAAAAIAosiAAAAAAAIAqEIAAAAAACC3K9QZCfo1Qe9XqnrHm9CYR+cj2tNIHPJMox5Fjsvs9+S+Xy80lWUXpquBc30V6BDrvxdbswl23PTMtRpXOiGrXwHa7RzP4910tB1veM9vQ1+4n1H2yjlfoXi8pMO9Js3ecxoIRp+KyF6yTKMedb2jV6majPC+qC/a0xM+XRQhnfNhcrnXt/lTttzBT9Rhjz4JmrDAedRfWqczvDr+/BfCur96ogSisb65X4Cir/N7NEj3fWWfuoq/SWtdifqDcaFs/TofJ2BZXILuy+ry9Bwifq6WtIB/4qOFbkrbrhtXA2XL8PReCCG+xPtVk3fio7TjPf0RviB9x1to5R4i+JpRwtZkOqzPvRomFjWBDYX6zONstnjO9G8rmDgs85WpKLKnjedftKzWf+IZLvZ06k3pGnZn1Xl65dTXYbKqhSsr5pLaVH1BX4laBvt+ZkyPNJXi7nwddU7VhguBd736yLqeBx5qPOjEFQvb5S98+bw2oMQBSv1b/LD1Ecd+sqiI2aJgl/cCfVZ7BU8V6ad1jQNHMRVlS958CwL4MmjTM+XyOekr4OR/r3+KU2L/kkoUCcPKl899YNF/oyw7FBgRcFh2jJd2dNERDKPRc8xuAcNl6fZUFmGfb8sQrR/lk247jRmyUv/aD8rpnzeaR5Xhv5zitphLj0GuwziyqcQ+YwB7Rcbekg4HvX3aZu101ZSPhnF6anXxirac/T7FdM2yp5l8uPnNfB9WflElrNICCWDvfj3F02tciw66Lu0PUf1CV29X348CtNPqbrnQ7nFRLAiX1lYr2/Q5SsSWPA3bv9flmYZvqqc/foMvaeR7TBt+7q/bcyf/iP63/7VI/2B/jHj7+gv/+0X/dmf87//If3Hv3qifyK/Z+zfRRKRr3A9qXbwqMsxqpw7prDeI99Bmaqyd5mJaBud5j2XHoOdrrh3+ZK08FHc0tdR/9PQe6CB/mczRjQeiCI87WkTUyizZ1WYvQEVuTMsPw9E/XGN5eRAvkS1spVRNlppLeNDrvs0MRYzfhn1S2Usaosdyb8xRtDt20v6O/kRAU7qVxbcQMSAcDTPMfG4y+H8ApmDaNP4Pp/ls7LnrEVXoBpzGkZ8soatG6PjPyRevHneClhYhqLRj0UFnHYrdyDwiSgfQ/368hH5mhO9p3kyVmJVhjHlE12GMT5mumMQb7r+e247/AvuqPXLX6N8qhjMx/S90Iewzz9Um+XEpe9IefkoyttGvTZW3Z4r3y9NeduoetaSEvHFiZ9lmSlmi2ygUcmOKZ+Ychb0hpSIchQVreISv+8Nk5p1GlOG5fVlU1qG3Fa9dhjsp06PNC7Kl2zLyv1ETSZEPeqf5Ud2Uhvai0jzS4u6/z9snEGxsk+oKudoX9DqdijbPkfSnzTffKRFIv3lgf7ZP/tP4nOgv/xb/sU3/Yd/poXgv/kf6a+ESPzHaZj/RP/2L4n++F/9U/qP/4bD1iHu/apEljO3+4Jy7piqeu+kr4ttG13k/cJjQZe0EIojehJtnU7f4l9bettwKetOoWmORmNSOnHjKPpCpNOroExY1naMzfK1V19I5GCYzmy2tJE93YP4l5jts1oSnbQ9u9i+vctG0B/Hv4yj17EoQdForBmUisca3LQ4y1kil0m92wtGT8TZPHw6kVASsmgUleHgQXxLdCxdW6pZPq0dmfN5WK6UQPgJ52jlp3WgTZr37F15llXaXfvhAaF3zAbZXu9otaUePchZXET51GkbJUS1Z03R++VMPEvaRtSzeFDQg7zsokSnzBaIw9qerce0n5hyVjjv6XKl6lRVfBRxfUIH77JA3nRx2tG71Q6D9Hp0DOWL26roh7IBTnzJadc/y4/8I1O/3gRf9/9uPgQRfULbcjbEtUORRxbQUjzU3yX7p3/yP9AfCFH4F3/2X/U3/5X+7C++xf8f6J9LEfj36d/9yQPRf/6if5GGIfrzP/vfpaD8J3/yj+hP9XexROUrAuddkfVC9PhUXC+tKK33jvq6GrTN+2XHgm5pLBRnC14KETPxd10RsoPQCplnW3IGee6t5qIhcOdTOoBpx9jhNCotuXxpfDGkrCpJ2rmdvm1ZydR9Gc1s+lOk2EZbOB+fZCMxjc3vS2uz/SKOtj+JmamEy3AkFbUNWzYs64GYsdYvn3r1FYXO608weGApHeJEskg6az8KZ5D1JjuF+OVTq20UEdeeDUXvl/u3RW2jxrNEP6W0omifSiVWT7AC7SeunP33NJz3YiLz1cG7zO/usyiOuEl6Qb5qtNXt20bE4g7YxX1bVZ/Qtpwz4tqhQFqi2KLOxhHfQl7OH/3jf6j/5fN39Dd/Lf73pz36oz8g+tu/+f/U1yn/lf7ir/+O6A/+Af2R/iaW6HyV0sG4U4vyeu+kr4umfd4vPRZ0SbxQlLOnTARIf5rcUQfZXarSBCxfop81mTLSMTZV7R5R+aqm2Kr2SHGTjgHJdpSKbCtNogM3yMYW+1KUwiJbCXs5aMpnFXd4oTLcyt7YRgt38fHN+HXKp7S+ImCfErcMbX+Py6JmsH0apwWrZ42eFTymfKTLgZOvZo711eVTr22EiWvPdQm3jXrPWiZqyZw7f9tSZ7ie9hObr/bvclv23+LhtVgSryxmy89KFBe5sZwjzd2Rt5CX8a///ZH+lh7oT/7d39ffaAvi3/5f9BeW/+Hf/JfMmujy39P/XNekeKNgLLCJ1RLd03jXc7kVTyAtjKpDjjaZarXf+bZ4MftjC29wKaJuvmoTu+tvT7KvPdh+Rvl0yQ65s5mFJeyN/1bOf0wTKsP9t/gbnri3qa1A+ZTVVwXS8XjYE8VolZ1uhz+CXp5nfxbVUSU1N31l5WOOVLI/9hJFDPHlU6NtBIlrz7UJto06zxKd84cYLE4HOgT8tK6r/dTJV8t3uSVNJrDSB80sP0tryon2RT5EZ0hzK7Q/p3QL4DKvNEtb/NE/kJtY/uCP+/RXf/VPxadPfyze83/7L/5Pitun8v/Qf6mzoeWWwVhg0e4EgTa08FE8B2qWmfNdKUQvdUY45VY6RDdFO2bnG3LRslERccslyooXM8NSg0zPdpgqQ7yQL3qAKfqTXBkWOqVbNCyfZvWl4xTiv/rotpjyqVmGOTKfk6yjEh+7Y+is/VSTLOuUj0Vh2ygrn+bLf1Xk20b8s0avc+1aklDCI1BvSPM0ooblE02d5V2mYRk2eZcL6lL6Lep/F6PyRcevyHxppC+hWn6Wy84Vmxjj+4S65VwT3nDAO1elkaHu8m3mf2g2qciPLRL//ER/zb6I/9xfov779Cd/JL77z/83/Wv9zdkwG0XPhRTaLJaq3dOajAWN+7q2FObrusaCunQkFIVgC4g15Ygt8reJVcyiUchlodBsWDzDX8OO2PWcYnVK3aIdUvvaQV6TDkg1Wqk0TfNSeNlavXHUnnjlIzov98/0IFP0gonw/rKl8hHS/hIhcmUo8v6u01wg1tONTnXLp1F96Tzb7SGd+ftUlI8kJkwZMQN9d+2nisUssnyi20Z5+US15yYE2kbUs0S+2MJw2r0r1xLtr9gbznX6I8unIWqHte3MXk1svrp4l6UflFWXbJGZPJ5ELOWYfIWW8ctRz+wNxIApBsLKcSKyT2hSzrFwmRjf1mZW8f9K/+VvxP/+8T8o2ZCiN7f8kydnh/Of/rv/if74D/6O/vLf/53+phtyxgfRnpyj186Aap9MhNGjwVgQ3dd1THG+rmssqEuLcxQ9uBJy5wOxWb7ujEshn+nUaCgutiiKiueZXcRLq0zR2XlRUfnSL42zqy5E7uWqyLsuL2f3oETnSf9k8J+fKx/uuHIJ5GU23pyjfxTw7jezXGlM8xnV9eWXoSL/HMZ+Vu3yEfjPyqc3I3uWnxZ+jjrzjY8ccJdqy8tHURwmLj3h+mScOm1QPg5Oe9JpNssaThuOK5/4tlFVhhXtOfb98gi3w5Jn7U3/5OfD/I3oiOURORXlsxlHlfPqKdA2vH4qrv0w1X1CfH1lhMrQ6VdknyIGXfFsEUg9K9TPF/S/4TrySOOrTi/jxxkswyblHNUOVT3k+5G6+OcjZvzn//Cf6H8x5kI+IudfPugfGD4+5/+oZ02MfL/cMuK6WNGTaNuDvcpruC5blEebeu+wr4tpG7XyXpqv8HvMOPWj85ARV0bnJEoo3g1OA9Pf/RTXlJY6XDLdt1pGKbpjCAykakA24kR/CeK58rYRHlyujFt8v7w030Q5O2iR+Ld5n8R/8x//Kf3Lf9LgUO3fAMaCH+XKfBTPjHGM/cHziAyVS0PXyiXL8IrqqxH6fLuQr1T9XaLA4dbbxjVwi2V46/X+p/+A/rH439/+9Sm3ceWv/6bbJeW7AmPBj/K7hKJA7hwNLJOclxG9LuwGPqMpm7u9GwhuhUuW4c/UV0cU7eIXs+M513/sDUQgyE23jSvhFsvwpuv9z/9fYhfFP/ijnuuj+Kf/iP7XP/6HuSNyQAbGgp/jdy09/yTadJ65S4R8CsH9EfZLcX3QwL1xe0uit8ltlnPYR/Fv//Lg3MQC7o3bHQsgFAEAAAAAQJBft/QMAAAAAADigFAEAAAAAABBIBQrYB+YmNPjAQAAAADuDQhFAAAAAAAQ5Ec2s6idavZp6NnJ48HbUsxJ5ZUn7tc7wTx3u4nEPfgSuxcBAAAA8FuJtCjytu5V7j7R+vCVOishvEiIsal1OfYnPRfeZSqezWrOuVtTpScYT8Gdw4Ww+Ez/fkrrA98z3UVeAQAAAABum0ihuKTV7kS9YUKrFhf8p5db566qWVISPFOQhaW+9sb6fXoJ/TQQT8sDOZfJgkRWRV6nnl+iEqcr/ckJST4n0fr9avWRXq6f4cYRDqPEdHkYAAAAAIDzE+2juH17oema79CZ0Kqu1U4yovGg3gnkSlgKQWiLPyHIxnIVenWmpeAtffER6g59mqzUxfjS8ijKoTecWwJOCMA50XvOMmmLPBaJQuCyZTQNt6GHuXtjy2KV0PCYhVnsyIsHAAAAAOAy1NvMskxoKpTLqTekpO5O4NGYlE7M33UYZLbQS8ueb+DgQd5ucvxqYzcsY0RP8lLGb7KvYT7Yl5EvP0lIRRqMjXrLWzKXK1FOdhh91+Ph086N+3ej17GylFrW0+3bO+1OQnROse8aAAAAAJel/q7n7Ru9TNdCzrCV7UyWLhaikz6ddu+5u5BHUsXZeMu5jaydGTMhTOXy+Lst/A7k6LsY9N2OKfrn/mRF4dV7bXE9fHqWUm3hfHxqlS8AAAAAgLrUF4oOZ7J0sU+iXN5NcqJqm1sXXlKil2l5Zbw20jqaCU254zrn+1iNOm/REqy5Ox05ncr/kcWiCmML7QE9sKmUl/adeEI7swEAAAAAzk99oSg3bZjNJEKgBTehBNAWtd5gHGcZWwqRKFRVf+JZLfffJLQWPT51ZF/zdj1nO6vjMcf08PJ0Go+0uvps6e1F/56X8Flop/6He/rmjDk+jNan5SYdAAAAAIC61BOKfJ5hMqSeFFd1zxVc0icrp96AUte+ClL/vMTyh9xuaM+7kmMF59kxm3R2tKpTILyEr8Xiw0B+gSVmAAAAAFwV0UJRLq3mzjOsxzJhK5u/G5iZ0SLouMcWOOMPacSi+O5db6hp6Y/YDVrg2QI4tbpaCJHtH6kzGg9EaZzoW++akRtgOF8tjiACAAAAAOiKSKE4o+lQSJrdIn6pOYjyJzSHWmd+eM/0WRiv+BtpebPEotxQs6Adef6FfGxO7K7qDlFnL1p5Sh5o4y89LxN6p3maVv6oG18sf0izUSjgpwjtCAAAAIBL8yNX+AEAAAAAgOun5a5nAAAAAABwr0AoAgAAAACAIBCKAAAAAAAgCIQiAAAAAAAIAqEIAAAAAACCQCgCAAAAAIAgEIrnQh66fUvnH47o9WOVOxS8Ep3P9MzHSx+CfnPlDABgZgvRX+DFBeDqgVAEktkioWHvQJv09O9I5CHh6j7qdf5yawAuyIwWYtJQe7IDfgR5E1V/gvoC4MrBgdvngi1dyZCO6ym1uszmAvD1jCKptFtYt8Q0gC0Ek8cdLRpe8diIc5Uz32vOV/3kONDauudclV1P/yTge9C9/MeEiULn1YpJ3pb00qbS7goWihN6vKYySevs1OL9UvnKWmMgLr9tlLaxLD6//XTWVmPR79nhBvpJAH4rsCj+esz1jO+tROJ9wgOyspZmH08kDva0SH+3poN3B3lMmCh4QNWCOE3L+kC9YQKLzFWiXDlWc6LN7qS/awALQBZ1fMe+rnd1Bap1X36gbayPfL2puR/fZbbw7qHXdNZW67BM5EpEfxJOKwDg54FFsTP8Wb/CnSmXWwbSjvrli6ZWuLzViAchXirWP7awVigLAt85nQmgHL51jQetwPS/3KIYkfdcOtTfuBaimHJmdLimFhGZ58fa5aryUW6djQnjEy5b3Q6Oqj6CZRi0uJbXRVfI9MS055yl1EuPVRdfU3Wnu0JZd/cy37ad1UU+72sq23DIAivLtu9aitMyath+OM7xt3pWk/o2VNc7Bd4RgS5T8dDg98f1mmhSbX110k78twPaLzb0kHB9qnpK68QpqxptrCitAICrABbFLuCOTnfWZkY/XexE12jBg50XRgShYeJtxOAZ/GpM38aSpa1GWRjugPUg4cRjWRiiGdF4IAbYw2ehSOSByiwNmedNP5/rbR6JzXsVMeVsmD2rQao3oPG9GNx6DzTQ/1QM6EFU3+l7r3+OQQ/gloVqOhUD//xMViPZnickVJh6Vqg9z4ne07QELGYS/k4IEjLpXtDu1KfJxyvR24v+bi2koxKGJi7+SPGxXInw3BzGXj5n9MwNxX8HWrafZaKf2wqVttN+4wrV2VRNEvvP4p14okfxz+OX96zthvac3we7xQiBOReCXNR9YJ4XzWDO/ROXf0/8+0PVCZsF07Kq2cZMWnN1AwC4BiAUO2A2FZ2vmE2/Fw4MooMeix5fdJz24LF9e5eDV3/sdqCHtTXzXn7Kwe/xSYUYvY7FAHagtdXTq3jEQDqto7oEozEpnVgwaghhppLtWeuWSY2Bpl7ey6guZwtdbmKUpU1E8DBKnKQ7uguW8mwGrNzoSP64bRMTxmeZsAgSwmhlBJQejGPLw6CFhVvnS0qaWF0jcdqPFmz9Z1OS+WfLTQ6i7AeeQpMCMI1oSxulhDzxXIQJ7wk/KQhPtFt5DbqT9tOSgAhkC5/U3SzM+LfbL9GSsv4hx+NT+n6NXudyw5rdd1SRb6s96h03af/U6x2t+HokdWntNla3LgEAlwRCsTUFs34bLcjylp9QB3mgIt0mIiqwAG7pS40W0aJLMngQXfuJigxSo/FA/L4sPRHUynsZEeXsIAYmtmQ0FUBCDNtWqdSClQq1ALOFWoIrsdBGhQmi8qOsbSxatcWmbv60sOhPLnWkkN9+ItqqTqOPbzXbSktiicuEx3azzwnQmWpUATHYsv10Di83ryh52Dh5fh0t6ZONecO50y6VKNQ/SIwv8iq+3RW0VUcAnr4p1300aGNb1SioSO8CAH4OCMULklseSontINVSo+iBLSuX+sgOvWOkNSE0EDSgfd5/mi29vYctXRJeXudKYD+tIotNTJhC2IJofOmEgOEld9kO6rocsABi0asGctV+mrgtdIe0klltWYpg/btO2b7RhkVVusSpJh+HzbWIwSK47hMa7G2LagYvc2cTCPWZ00bWsXjxZN7kBpY61udWbfX62hgAoDkQildB7DLknr6583d8f6xPx9aPPT/s7MtB9ZZgfxRtKXH9vgTsO6lML7QuqoOYMIWwNYnFE4tEbU2S51fycrQQCLX9C4XofdFtRvp4ssj4mYFcbZboyeXprC0rX8NzsJTmN738LJedW1rMz0lqmVM+nrbrxuhJLkqn7w6Lxaz8OCxl/qvSMnii3Xtku2vVVg3X08YAAO2AUGyNEm++eJD+dPrfxlk788syVG8mcWm4xFzE/lt24L7uMajloD7lkl2HNnk3GwokEeXsoCxwnd4Uo9PjLL3xoJpwGiwR5xMThuFw0vri+0JqS3LOuqsnDmViXroXlMCCUw/kuXZQmJ422C4Eug2cduS7CDYj3EYcpI+ksgrLZefC9neG9lNEYTmrZeV8+cS+O+oAfZlPUb+uv62y2vLGIv45PWIptq3WoayNaXzhCwC4HiAUW6N97frjdLbMVpLJ40l0jAYxu+Y1r/7E8dlRfkQBR/oSpKM/7yTtwsGsUMRpzMaDiWcJmC1q+LfF5T0nSs3SV0pMOVsYkdnVrmceQDk9B2vHaMygWmPgVT6hjC/OtWAQ9e7sVzK7Xx3BEC7DdLOD+M4/d1E9N+CrmorMPo29v2mKOsPP3ACkJz52HUnR1HTpWcdntZE8qh2xQJJWtqJ3r+v2U0JxvWfv+9zKkLlFqWhTijqpgI8TUu3Ntzaqj7tDXForuxKJddqYxEwYunFzAQB0C85R7Ah1Fpv+gZeG9flmosfNhEVO/LgdslqG6/IswWrCz3Rx8sbI/KnQZukwhHNmXUXeGTcu/v2Knj6Ub5aJJ6qcJbqM2MeqwfJZKF9++ebKxUY/dxARJk1bxUAdep5dxjLNA/Fdr6eFh4rHnDNowubzFn6eiDE9r9Opy0iCbSNXH9kzFJyWT3q227xuO3Ht248vkHZTzqVto/v2k1Kz3rPfG9xwuWdZ72cx+X6lqj1P30mmQ53JqcuZdF68OopvYwKdv85vVwIAdAKE4q9HD4hRgwu4ZtTgXC7662IG/HNNQn4ELUxwwPN1IAXqpa/+BABEg6XnX8+SVmp9+ULHpYCbQQiqOVuFxCTinuYQ5tgntfwNfpSZOoLn+neeA/B7gVAE8jw6dd8qdiUChpcVV/L+YLa63ZWlWQgTZSG9Mivnb4Qtu0IlsmsAFjMAuF4gFIFkmegruc7tuQ9ugOxok3tZmuVlcLnbN9rXEZwbeWLBwb2xCQBwfcBHEQAAAAAABIFFEQAAAAAABIFQBAAAAAAAQSAUK1C+TV3eTAEAAAAAcBtAKAIAAAAAgCAX3cxiDu91OdFu8UJm41vw8FVzq4d3o0E+vpLT/wOEbyJw03O1hwYDAAAAAJyZSIsi395hXRzfChZz5r5RdSTLMCk7v088W57IuqZpKhJVetQxbyYu/nzSc91L/Fl8pn8/pfVBXZ7fTV4BAAAAAG6XSKGobu/gi/RXnV7fsaW3DV9NX3R+Hx/8q+9btQ4+my34nmMWnJnlT7GkpOU1UOo8QZGi4dTzS1TiVJ7FFhLNfHis9fvVKiR+3TjCYfRhx6VhAAAAAADOT7SPIt/eMVXXd9CqrtUuguNXXt6NXuc07AlBaIs/IcjGchV6daal4C19HfU/U/o0WU1IKFNleRTl0BvOLQEnBOCc6D1nmbRFHotEfadyGm5DD3O7LDlMQsNjFmaxowqLKwAAAADAeai3mWWZ0FQol1NvSEknO4GFMJJOggf69FWfvGqLl5Y938DBA7FXYkhYdsOInh7F/07ftFdfSJzbHJafIsW2FTRvyVyuRDnZYUZPxNEenIy6fzd6HStLqWU93b69q+X5KfZdAwAAAOCy1N/1vH2jl+layBm2sjWxdPHfmWVVY2HzxCALUSEgT7t3b2mZ9RbLLRtvObeltXMmhOmwd6Lduy38AkK2iu0XOYZJ/XN/sqLw6v2IxgMhgQ+fnqVUWzgfnzq34gIAAAAAlFFfKDo0sXSZzSzKF5D647zYZJ9Eubyb5ETVNrcuvKREL9PyynhtpHU0E5pyx3XO97Ga9C7Z9MN+lDacTpVnFosqjC20B/TAplJe2nfiCe3MBgAAAAA4P/WFoty0YTaTCIHW+Hb9Lb29q+XZoNhcCpEoVFV/4lkt99/ib9jA1pF9zdv1nO2sjscc08PL02k80urqI/L8on/PS/ic99T/cE/fnDHHh9H6tNykAwAAAABQl3pCkc8zTIbUk+Kqg3MFt28kNz2HrIqC1D8vsfwhtxva867kwfhKlmL1krEok1WdAuElfC0WHwbyCywxAwAAAOCqiBaKcmk1d55he8ymj/ASNlvgjD+kEYvaEslLxmfYfV0fLfB6A0r3tqRWVwshsv0jdUbjgcj5ib71rhlZFpyvTo8gAgAAAABoRqRQnNF0KCTNbtFiqbmACqui9O2TljdLLMoNNQvakedfKJTZab/pTMTGos5eZMunTkvyQBt/6XmZ0DvN07TyR934YvlDmo1CAT9FaEcAAAAAXJqLXuEHAAAAAABuh5a7ngEAAAAAwL0CoQgAAAAAAIJAKAIAAAAAgCAQigAAAAAAIAiEIgAAAAAACAKhCAAAAAAAgkAongt56PYtnX84otePVe5Q8Ep0PtMzHy99CPrNlTMA4BqZLUT/hY4EgBwQikAyWyQ07B1ok57+HYk8JFzdR73OX24NwJUxo4WYWNSeEIG7R96M1Z+gbQDggQO3zwVbupIhHddT6voym67h6xlFUmm3sG6JaQDPyCePO1p0eMVjJRcpZxYX6kpGvp3opW4h6TT29I98L7hfRqoO0hDBMHY6FKd8nUU863ejyvCxST2ei7TOAvXJdFWnfjwCpz3zXf58vZWN/6yuwqT4bfpA62lC7qscE6YjdNoPN9BvA3ApYFH89ZjrGd9bicR7Zrbw7u2uAw88YnBmIctWV2l5PfLVk+buci0SB3ta6N9P+RpH/y5zHuR5sOS71k08B7428iO7+jLiWeCaUO4eqznRZnfS33l0VaeBeKbrA/WGSWZBWybZ7+Qn0A67CiPgdr8SbVqoPiusKwBjwnSKSDuvjPQneGcAMEAodgbPei1fPW/mrvDCrKxBXiA7RdmZuuHySyF6gCmIpw6j17EQQRVLzjzIWOlp5scTkffc4Kf+xs1/TDkzOpw3ONVGCLSxUImHtRjs9FfxiDRM+tJqY1sn5BKXKPWxztf27YWmjrVlSSsWDr0BjXXiZ1ORT7bKWBGld4xPudQiniXFJpe7KUNVB9I3K1dWXjm3aGNlRLd5mfaS9Mg26uVHflSbUu2Lf1ainwVSFkY/T7fz/Ptm4gy3z6ZtjN09BvuFrPu9/s4lok4jmT2LXIv2s7IV1nIl2o8oi4eB/sLHtMMHKgrROIyoz7mYoJZa7qrCnKk9NylfAO4ZCMUukB2WWs5KZ70L7mws5CDkhhFBaJh4GzF45r0a0/dCx6Nn/VkY7vASGh4zy5KKp7jjK2ZE44GQWYfPwhm67HT1Uox53vTzud7mkdi8VxFTzobZsxQEttiqjxDkcyHQDuviwayM0RM9iv8dvzwRvt3QXo6bxUOry4zkOL/fuEt3synJ1er+c61nDebcvpTIHMw/aEKiLbEZJS0rbmOu9XI63dDDvKXoLkK2ectqFGrzc6L3NC0Ba6qEv1up/MhwnMc+TYRgIBbj8jsl+Fl8mbj4I5dfjXAajL18qvLPvSct29gy0c8torP2o8mJuQE9iPZz+g7L1HNiJj6OcPWICcN03p5N+ebaAQC/EwjFDjAd2nthpy8EhzJLOQPD9u1dDkz9sdthHdaWn9LyUw5sj08qhLEAri3louIxlqUajMakdGJBTyyEmUq2N6NfJjWEU728l1Fdzha63IS6ok1E8BCj17nc4GOXdS22X3QU/zN1l+PxqTDvAx7BxV9LjRAQDNJCxtqKB0T+bcSzFD3qHTdp++r1jlb+eiS1h36e2y6WlAR9zLrBaWNasPWfTXvOP1tZfYQw8BSaFIBpRFvaKEVVYu2yMeE94ScF4Yl2vmLpoI2V0qL9+CwTFshCNKeWNC2eyt4nbdE77VaFE8lmYUb0pBo0DRzrr23NjQnDnKM91203ANw3EIqtKbD22GhBlp+5hzqkAxXpNu48wxbALX2pESV64JAMHkRXeqIig8JoPBC/L0tPBLXyXkZEOTuIgYAtB43FjfHdLBkAK1nSJxs2hnPH8qUEqP4hxGxBE5HXfD0zyu0gediQ7av1Oop/ljNgnr7zy55aoPQnlzp2yG9jEe1Zp9HHt77JZf0aPm3bzT4nQNWybUgMtm1jVTRsP0FUWpUllgWXtrD5aZdWey3K2K3Dm+BJWodRlkzRwOj501j4xEdbkpUQjAmjOEd73qoGSEUaHYDfBITiBcktIaXEdkhZ52lm1+YjhUXHSKtWqONtQPu8Xxa5gSXWelkCLy9mg7P6zGkjLWZsLcnFzsv0XJni2bY/okK5HUi/ttzvqp8VD4sKXspTg6uKq4lrQ3dkPobmI+pH/65Ttm+0YXGWLjuqCcphcy4xWE7t9lMItx3uJ3jHsBBc7LIh+xGvXq3jrvizpjOGEeLRacZ6IwmXfUpMmEqurz0DcEtAKF4Feomxkj198wAhOk/TATufji0be37Y2ZdfYvN+QaRF70S7927Kkwd7u55ENYV9w9gKo0yJtLbrMrWIKD8+23ozUutzaRlGP6uSLb296HikHyiLlZ8ZXFkk8tFBjp+s9jU8B0tpxtPLz3LZuaVVvSXt65St0CysrWNlpJDjMhT1WuJ7qpas80v8NvXD6H6slJgwdbie9gzArQGh2BrVofmO5dKfTv/bOEdnPleG6s0kLg2XmIvYf8sOs8gnXi2/9CmX7Dq0ybvZLCCJKGcHZUFpsiNVLjXKgSSz4vi7ZR0/qXSZLfJIDS0+nJ3mHIfcwW0N5ilqCZKtjK6bXGwZNjhI3YZFhR5cc22lbt6jsN0MdB5zeW9KuB05SB9JJWpkWygs3+ZtrBVFdVpYF3olIrc6oMXYxX3xivqxzC8xLkxDytqzxp+AAfCbgVBsjfa164/T2SlbQCaPJ9ERGcRsltez+hPHR0b5GgWc5EuQTvy8S7QL57FCEacxmwom3sx7tqjhuxaX95woNUuwKTHlbGFEZoMdqb4FR32UBcvslnWsetKXk6kW1WoX+SPtFpYYLBWJClPvc6sizG06RZttgs+KQZS9u2HA5DHgzyr9XJnujhNR51YaIaQFg12PUhA1XXrW8VntKI9qazwpkJblovezRRtrSlmdFrdDPdEQ7cfZ72Z2zRcK4cwSWTzRaBYm1J79PiEmTBR12rPETE66cbsB4NbBzSwdwR14qmt4aTghuauQlwrTcTwnflxhoJbYjp5YULsT3Zsk1Hf+QFl43lgJ4We6OHljZP5UaLMsGIJFVZrmirwzblz8+xU9fSifPBNPVDlLdBmxr18nS/KhetCUCL1c+VhlZ8iVr42d/vQ5hlD7KXmW/nt1iw0P3kJoko5f149pQ/l6zedNoeMRQZ36jiTYfnJ1lj1DwWn5pGe7Prz0l+PHF0i7KevS9tOujQXzbtBxioRWtp+UknbIhNqZne9Qevxy6SqMpKI9S8rCnKU9C5x49XcA/GIgFH89erArG4AAKMEMwueaqPwIWixQSOCAu0YK6ktfRQrAFYOl51+PvjXBWxoGIAohqPiMPLZ03dM8wxwNVbycCu6SmTqa6qd2uQNwjUAoAuKz5vjIiZwvIgCF8FLfSp6Rx1a3u7JGC7GgLKRXZuUE54WtyEIl8jI5FlcAyIBQBBJzb3DZERcAZGTHjdzL0iwvg8sd7tG+juCekCcoHAKHhwPwy4GPIgAAAAAACAKLIgAAAAAACAKhCAAAAAAAgkAoVqD8lrq8dQIAAAAA4DaAUAQAAAAAAEEuupklfzo+c6Ld4oXkRjN9mn4xVlhBPr6S0/YDhG/ECD3jCg8EBgAAAAA4M5EWRb69Y5W7L7MZLObM/bnqSJZhos/vWyb6e/M7Dr62vjMCTqVHHeFmfsefT3que0E/X5WV/v2U1gdOT1d5BQAAAAC4XSKForq9gy/JX3V6fceW3jbytvpa5/fNFuqC+XUqHA1LSlpeu6TOE+T786eeX6ISp/KctZBo5sNard+vVqHDq904wmH0QcalYQAAAAAAzk+0jyLf3jFV13fQqq7VLoLjV6S8E4Js3GdD4OpMS8Fb+jrqf6b0abKakFCmyvIoyqE3nFsCTgjAOdF7zjJpizwWifpO5TTchh7mdllymISGxyzMYkdePAAAAAAAl6HeZhZeGhbK5dQbUtLJTmAhjKST4IE+Y1Xf4IHYKzFaWNZmRE+P4n+nb9qrLyTOTQ3LT5Fi2wqat2QuV6Kc7DCjJ+JoD05G3b8bvY6VpdS6EmL79q6W56fYdw0AAACAy1J/1/P2jV6mayFn2MrWxNLFf2eWVY2FLX6jyEiqOBtvObeltXO2SGjYO9Hu3RZ+NYSsYftFjmFS/9yfrCi8ej+i8UBI4MOnVxbawvn41LkVFwAAAACgjPpC0aGJpctsZtGbVfrjWmJzm1sXXlKil2l5Zbw20jqaCc3JI29u8X0fq0nviU0/7Edpw+lUeWaxqMLYQntAD2wq5aV9J57QzmwAAAAAgPNTXyjKTRtmM4kQaI1vzt/S27tanq0lNvff4m/YwNaRfc3b9TxtsBnGHNPDy9NpPNLq6iPy/KJ/z0v4nPfU/3BP37ld3tan5SYdAAAAAIC61BOKfM5hMqSeFFcdnCu4fSO56bmOVXG7oT3vSh6Mr2QpVi8ZizJZ1SkQXsLXYvFhIL/AEjMAAAAAropooSiXVnkNlC1eHVq3zKaPeKuitkTykvEZdl/XRwu83oDSvS2p1dVCiGz/SJ3ReCByfqJvvWtGlgXnq9MjiAAAAAAAmhEpFGc0HQpJs1u0WGouoJFVkTfULGhHnn+hUGan/ebiS7Tq7EVeRtZpSR5o4y89LxN6p3maVv6oG18sf0izUSjgpwjtCAAAAIBLc9Er/AAAAAAAwO3QctczAAAAAAC4VyAUAQAAAABAEAhFAAAAAAAQBEIRAAAAAAAEgVAEAAAAAABBIBQBAAAAAEAQCMVzIQ/dvqXzD0f0+rHKHQpeic5neubjpQ9Bv7lyBgBcI7OF6L/QkQCQA0IRSGaLhIa9A23S078jkYeEq/uo1/nLrQG4QWa0EJOP2pMmcNPIm7H6E9Q7AB44cPtcsKUrGdJxPaWuL7PpGr6eUSSVdgvrlpgG8Ix88rijRYdXPFZyxnJW5dLTPwn4jnM7b3z3OV8HZOOHiaS7Z7HIsa+PPFn16v/Oo2Ha7w9VTo+7Bb20eSGqCNWp5EBr5y79sjqtgX5X0lZWWt/ZM/lGrrQcotMsSJ9Xll4/b03j6Qidv8MN9NsAXApYFH895nrG9/N2wDeGFG6DPS20tXTKVyv694svE/27kjARdPYsHlB50OX72HW49YGvlvzQ12MuKXHiMB8Rl/jtT1x/CVj8+PVhCaXKOo2EBZCeUKXxHPkK1IXoAfLMFrZ486lIs2iR7MaymhNtdif9XR5u9yuRN6EMW8XTKeI945WR/iRcLgD8RiAUO4NnxtpPjz/2zD3FC7NyO3vZccqB3w2XXwrRHWhBPHUYvY7FgFCx5MyDjJWeZn48EXnPDVrqb9z8x5Qzo8PVFG2G7dsLTR1ry5JWPFj1BjQujNCEeaCB/iaGrp41m4qyYCuRZQpJ7yGfFteZagMn2m9ECqQw4box5azqSfpv5cqzvE67Ivq9kGkvSY9sx15+5Ee1O9UG+WclknrDxAqjn6ffhdDypIqzW4HRtE5dRLlNRA3vFo6VTC61ipyOA+U4FgVwWKsJRF3YjWWwX8g2vdff5RDPmIsJapnlrjKeM7XVwnIB4JcCodgFssNSS1XpzHjBnY2FHGDcMCIIDRNvIwZbiVZj+jYzdjG95QErC8MdXkLDY2ZhUPEUd3zFjGg8EDLr8GnN4l1kp6uXYszzpp/P9TaPxOa9iphyNsye5WBfLrbuiRk9iwznrIKzKckV7f5zgYBRFmU6bByL8mDObVAJksH8gyYk2hubWtLy5HboWrqm0w09zJsJ80rke2FZn0LvxZzoPU1LkeWNv1up/MhwnMc+TYSoIBbs8jttYbXbmfjI5dflSoTnYhh7+VTlX/Yu1adpnXqMnuhR/O/45cQiZigb2su5hj2tEZPQuRCnol6bLr0uE11WJRgBvCp5Rkw8TOdt1ZRLro4B+J1AKHaA6fTeCzs10fmqKbrT8W3f3uWg0x+7HdZhbfnhLD/loPX4pEIYC+Da6sVVPHUsDJrRmJROLOitU8uCN+tfJjUGkXp5L6O6nC10uYlRlthQ1gWDBx6dj+SPtynaSnLarVqLhdrPCogBaSFjbcWDpvitbkIOxpq4c0bsHvWOmXDs9Y5We+uR1BX6eW7bWVJS6PPWHqcdasHWfzZtPv9sZRkS4sGbKUgBmEa0pY1SS5FWYBPem4DIiYlfjjEo4ZpZuiyLZMM6zbH9Ei0p60NyPD6l7+DodS43tdn9S56SNEcxoieVMRo4lt2wpbacc7TVum0CgPsGQrE1BbN+Gy3ITt/+AkqoQzpQkW7jDjZsAdzSlxoJokWXZPAgutIT5ZKlGY0H4vdl6YmgVt7LiChnB+2P15VwmS1I+vD7ZS+tnHqg42VwTxA3ovWzlGtC8rAh1+fLJ2xNZJxB9fSdX/rT4qM/udTRRH47jGjzOo0+vmVNLv2XlpPLdrPPCdCZapz1JiU5v1Nt3Qwui8bWaYglfbKBbTh34lWiUP8gMf7KJROdWmkuYkByHtSf0POnFZe2EtcVi+doq1vVuOKEOAB3DoTiBckt/aTEdkhZB2vPwvkjhUXHSKtWqONtQPu8/yC8dM4F7PmKSazjgfizJq6bJm4AmtbPUq4J0rer1CrEQiFkTYyFhTiLBDUAq3bYIt8dkPkYmk/ZhowWiHrYsPBKlybVJOawaTsp2dLbe8gKGl+nRfAyrlqKz8pnThtZf2zZ43TLDSyxFvuUojRHICY6Tnb0RpLul3yvr60CcEtAKF4FJUuMDnv65o5ddLBGLDifjpf99vywsy+/xOb9h2ArnjLv0TqifJcJ+7c1GDSZNs9KrSbKj8+2NI7UOp9XzsXWxHiESHjRbU/6irIQ+ZkBmEUiHy/k+NJqX8NzsJQmOr38LJedW1reDboepd9g7Toth8ViVjYcH8mJp7T2Syu2mDS8N+hD7DRHofuxi3I9bRWAWwNCsTWq0/M7SelPp/9tnKMzfypD9WYSl4ZLzEXsv2WHWdS/q+WXPuWSXYc2eTcbUiQR5ezAVphV413PEhZucld14Gy3uqTLxgX+XK2fpZYX2RLpGgjD5dzOmhiArZ16AM61p6q8N8J2RdB5zOW9KeG25iB9JJVIl8vO0e9wBbrNq+XUenVau5y1wOUTD2QeRN25vofu7u/CJWEnzTEU9WOZ72LjuUsMZW1V00SIA3CvQCi2Rvva9cfp7JStG5PHk+iIDGI2y2tV/YnjI6N8hOoN1tJBn3eAduEYVijiNGbDwMSbec8WNfzS4vKeE6VmCTYlppwtjMhsuuu5kXBjPzIeXPPHDSl/TyYgvDt6lmkbc6uyzI077uaEDqyJon584aDyGPB5lb6wTHdHjqhz/kzetfCw61qKJiV06qPjs9paHtUeWURJS1wXCpXTzG3eWpKNr1NT/kz15E6dZvBIOxEXx+JbG9XH3f0d9IcNpDmGUL6a9IdR1GmrEjPx6MbtBoBbBzezdAR3vKmu4aXhhOSRDLxklHagOfHjCgO1fHb0xII62sG9JUIf96B/MpSdSVZE+JkuTt4YmT8V2iz5hSi/0SEvity4+PcrevpQvlkmnqhylugyYl+/BkvyuTzb6DiFUsvl3cmzTYkY7PRZ6XMMxeUcbC/679VNNyxGhSghXYa6Ds3f5es+/yyFjkcELSyfEoJtLFev2TMUnJZPerbfHS/95fjxBdJuyrphGwvlq6xOspAF5VzSxnLPst7hYvJ9T0yag/VlsMuqIl9V8Uzf6QxtVeC8A/o7AH4xEIq/Hi2oogYOAJphBuo4keai/rZ8MvMjaEFBDcQvuF7kxO3SV5ECcMVg6fnXo2/48JaGAegMIaj4zEe2Yt3TXMQcH1V6qxG4LWbqaKr2O9gBuB8gFAHxOXJ8LEXOFxGAVvBy4Eqe+chWt7uyWAtBoSykV2blBM1hC7FQiexigMUVADIgFIHE3B/b6FgXAIJkR5Lcy9IsL4PLHcHRvo7gVpAnKBw6ODAfgDsDPooAAAAAACAILIoAAAAAACAIhCIAAAAAAAgCoQjqwQ7fq/jL9X8etaGi8FaJInQ+01sq2tzw0oSbK2cAwK3CRwKt0NmAAiAUrw4+17CBsAFBzC0WtY8w4Wu+9A0VvCMcgNsHfQsII2/K6U/QNkAQbGbpCrYAObcMnGi3eGlwRVr+NoSrQufzFm4tUAc188ksTeoh40cO4D1jOeduqQjdLJJrz4GbSaLRh7rrn7JbMfzvPYI3nmR/U5yemDC/kWvpW2rWe9oWm/apgtL2HJ+e8nfn8vF0Sq2bi8BvAhbFLuAXTCkSfUcqf96J5pGX84MzoO4zPu3eW4nEe0MOUIM9LdJ2uqYD3x1uL63r9swiNW3P64O817iuxYGftxKDnlCGWVzpDStLStLv7I++Y3i/yQ2G6o7ncmLCgJ8ktt71OZxzog1fCtCUyvYcl57qd+ey8XTOMtHn6WLcAi6wKLbGu2NUfxtGh00nktkMOTfD9DCzXxWu/D7otCN6+aKpNTNtZl0Jz27dWacfxp35x6enuHzqEi4nDz2DTim4xrDcohiR907v79bhOrQqqDRmltdwfnXdHGtc9djQKuqnJyWNb000KbCMFYWR3w9ov9jQQ8LlrOrpa6rv2S616DRvh2VEvxc5a5iXHtmOH938SJTldi/Ls6Jv+ZrKdyHUR8j20PfvRr5MOxx/q/QUtokImrbnmGf+WBg6U3vWbU0EyL9b4NcCi2JX9B5ooP8Zhl9W3THpGeJiRzRM1G0ofDuKM2sUL2o2k2xwYDHPUEXnIHp3FYeeQdfyV+ZOQ8TBg22aFpFoZ27Pg5QXRuXL24gh0zOm70VResrLpx4jGg/EwHj4LBSJPHiYZRbzvOnnc73yic17FTHlbJg9qw6/N6Czno2ea88DehBFevre65+rkQcYiwFrVUMkcjtgSzAdNt5AJgb2uYiv9BrA6jCDObdBfbj8/IMmJNobm1HS8tSDKk8aTF1MxWA8P9Nmpsr3VKRnTvSepoV9ZnuB94K/EyKB8yPDcR77NPl4JYrpW5YrEZ6LYezlc0bP3OD8d6nzdpiv92XS4UHttdtzUTusy3nj6bw9bze0D7YD8JuBUGzNlt423P2KTpl3xxYohNHrWIQQs3JrBNu+vcsXfDitoyricaxReiDoP8c/ywz074U9nBiYx2K4EJ2Q3aGrfIlnjd3O6LC2ZrHLTzloPT6pEJ2Wz2hMSicWqAUhzFSyPUvXMqlh+aqX9zKqy9lClxud9rSJCB7DgEdMOtKXjm+ZsKDg9mzEiB5sYtMoGdHTo/jf8YsGLMr53dCfsuVr1Q5OtPPU5eh1Ljcl2e3DpzpMj3rHbKDt9Y5W2B49sJIYPREn2207S0o6spqFKH9P88+WGw9Eev1blKQATCPa0kaO+FUTWIMJ7wk/KQjz9dF1Oyyq9y5o0p5j0+O/Oz7njecc7bluuwG/AQjFLhACQ83gxb/7Ez0g2n4eRRauLX0dxf8en6JFRTwHcnVS3WcpS0KpP4wWZPlZeaiz8dNj03H5DB5EN3miImPBaDwQvy9LTwS18l5GRDk7aP+lroTLbKGWqpyyV89Qlituy9oiUeuZymLD78PzZ2a9MhazsFgssr6o70+7ldc+bGLCcDat356+KddEtl9iuOZkX+poogbvqU6jz9FTGWqVosT1wmO72Yu3xhWgM9U4A2Kwy3bYldWtiLrtOTI9wXfH5vzxnKM9b1UDJD2HBwBCsTuye22l6V/OYM3LmQ2atmWFP7KDuHH8ASojtrO5bPnI2XuoU21A+7z/ILx0zgV82tHCscKxxYXLnv3SRHvmZXBZNw3cAMSA7EStHeZDS1tF1he5OaXCmhkTJg4WFWrSx4OraodN3B+6g33T3PdC5FX/rlO2b8SLI1ndqEnMYdPRpKSAc1oTFfXac1R6Ct+djIvGU8j1tWdwe0AongNpYVT+QLwESUKSfLO1kWex3FH5n66sQ1dH8VKKy2XLZ88PO/vSSmzefwj2i5QqXAyeTvmykz8LER5UtTVKninJ7blHw2hfPV2n0RRYTaS1RQyS7yVtICZMLaxJn/QVZUvUzwyuagNDTy5PZ++E6lvOwfJTKkW1/CyXnVta3is5tzWxbnuOSE/hu2NzwXgquZ72DG4TCMULMBIvavwSqhpge9LBJBLjWF5K3SXOcDqkP53+t3F8zvs9Vm8mcel4CX7/LTvDoiJUSyt9quGumadN3p36iihnB2UdaXVTDA9QCcdvDZ4p2rqbs7hq4ecLbI5LWin8IzWK6jTzXbTbYaE1kRutHNiMNYQ/yqLGS9j8c0yYxrCo0INrrj0V5r0N9nuq29Kp7oagIiL6FukjqZafZbmWLIe2boeCzqyJhXVRrz1Xpqf03cm4WDx1KWvPmpF6Qa97ogsuCoRia0SHGegs1QvOE0E1U5QO6LzDsdJRRA+w/XFwxpcTOWbpogJ1tlydG0q0r52VDrZuTB5PopMx6I08/Ynj/6I2FdTr3OLLJ4JCEacxGwYm3qxalGX84+PyXl1fMeVs0Xa3aeUAtSQ2KvFuXGcP0Wyqji3yhIPy92TywtvU6dwq5HDbKLaa8M7XzJJmPsqiZnbvxoSJRtSP7z+p8hjweZW+sEyfxt7fNMV9T3VfYNe1FERKBNenvG9RqPbIAltaaYve4bbtUNKdNbG4HdZpzxXpiRR3F4snhjrtWWImJ9245oD7AOcodkH64tuEOgGehec7+dzuW/GyuucJqgHP7K41y1EKfs6KnkT4wd4+c8xNjfSBabCEq85Q0z/w0nBCMg/ioVmac+LHzbtKT5dnCVYTfqaLkzdG5k+FDpahxq6LqrwzVfXFRJWzRJdRF/XpY8UZCufk21A16OXejeLyia/nUNvx8cLodKgzHfX7Zc4+1XVonp+v+4K8We9psGwqCLaxXL36fQGn5ZOe7bx56S+nvG+RmDorbWPt2iFTVe/B8jH4z61ohzHtuSo9se/OReI5S3sWOPHq78CvB0LxDlEdQ7lIun/0QGaJPwC6pkoUlHG176kWCzh0+fchReylrysFVw+WnsGdsqSVWl+usZwMQA2EoJqzpUZMRu5pLmKOj4p3UwF3wUwd03PuXe7g9oBQBHcLnyPHR7HkfBEBaAUv9a2y+93vSSUKsaAspL95NeIXwlZkoRJ5OR4LMMAHQhHcNctEX2/V3OMeAI/suJF7WZrlZXC5W9zybQO/B3nKwsG9ZQoAA3wUAQAAAABAEFgUAQAAAABAEAhFAAAAAAAQBEvP14Q+liI98Sp0RllMmCsDx/UAAAAAtwksiteEvINUOcnzbt0gMWEAAAAAADrggkKRD0AO3MXJFrLO70sFl4IPaM3u1zUfHEcDAAAA3AORQlGJPP/OyGa4d3Fmd3SCm4WXv7WVU1k6ezRMumovAAAAAPgpIoWiuuWCL4pfNb3mYvREj3Si3e5A/VQp8gXkJL9z0QfahixU0gLJPxsLpfpdatn6eBV/bTBhzMezdPGdmP7fy4+2bsrfhwWPCl/TCppaT83HS0+nVOTdoPOYfjq4xkSdXcj38E+98nHTlCvXqPKJyVdJ+wEAAABANNFLz3zLxVRdc+GJsZpsPunQH6uBezal4XFDb5tvISEf6UlGykIgEd+vUwvVYkc0TNzBfjAf0/dCH6Y8/6AJifCcvt6A5NnKUgCpi/PdeFbelW7K+iX/XobjOPs0EXmk5UoJnsHYy++MnvlS98Nnjc0ZIl9zonedFv4oy9sZRExk3qXY1QfsmnDTz+cOrrzb0tdR/zNFlKlIE5lnibrqDedW3mPKh9uGvr85Dbehh7k/OahuPwAAAACopp6P4jKhqRh1T70hJY19Cpf0KQQA35QxE2rr8OlKrdHrWEiKA62tqwG2b+9SEA6n5ok96rHA1Ft9e72jFb4nvh/R65gvrXRPmlfxCMkydoUuX1uUXcO1pc2e1eGDyJ/5txafhtmzSOOJdqt4mcj5TrzdycuVKEuR3m5vDYnM++iVVDDvFgZRx+1vZRjR06P43+mb9uoLifOspZgwOHmPKB9plWZ97iTY+bu49gMAAACAGOpvZpG7btdiKGYLUQ0rzeBBDPlH+hIjOgsAGsyFUDmQPeazwBsP+JJ931KnLVSPT+pHgSMWPEFCozFxNKdv51tBJgIH+hvmyImykNZTfZTLdrPPiTkWuHTa08b9s/psv0SJdExk3s3F/55O74TZIqFhTwjpd1v4NXiWXz765/7EtwobqttPbHMFAAAAQBOh6NDQSrPdCGEnBvTdyhrQxc9Cwjzw/3h52/FDW9GEl3pr4gvADLPMHYEQxhu5om2Wn9Wy82FT/+zC9D7V9DMRcvs8VOV9wAXtC+ymSAuzVVePvLnlJbX4xlJdPktKpGuAEosqjD1Z6bb9AAAAAL+d+kJRbjjgAfxAa/YBa7ROqS7Vz19AvqdvIQJ42TTzQbM+L28qWGuUZTOW5aft+8jLzvWtY+rQ6Z5cfs3yxJbZS6PyvueC9iyrjfF2PXM91dSINcpHtR35e3aD4MlK6n9Y3X7qpgsAAAD4zdQTirxJgm8FkcKg3i0bI+m0Vs5i1tESIVss2epkn8MjKVqarEBuasn8Kmv/vXmuKLdabo1NiMz7Vha0e1TRz9GwfNgNQovFB6l4scQMAAAAdEm0UJTLgrx+x9aari0z2vfs8WmkNjDwUmaLrbcsON94vbg/cXzZRq9z5TtXW60p/z4+HmjSb/b3UsDYm2JSy2zXROZd7+juTzw/UzEZaL/ruS6R5SPS5h+po3wtT2RcMrtoPwAAAABQRArFGU2HYjh2dgefCbNZJuBnVmvs5x3a64Ply7bS9w3X951j1KYWQcNNLOpsQV4m1elJHmjjLa3aPnrSp87y/TMCKSZMXN7VEq45HNuEWz1/drDruT4x5cP5eqd5llbxyeWrq/YDAAAAAPp7f/iHf/jf9L9BGWzhSoZEQiznfSsBAAAAAO6Plruefw/mOJkNRCIAAAAAfgkQijHMFnpHbr0NPAAAAAAAtwyWnkswR7YwuRtMAAAAAADuHAhFAAAAAAAQBEvPAAAAAAAgCIQiAAAAAAAIAqF4Y6hzFBeEIwEBAAAAcG4gFDtjRouVdeg1AAAAAMCNc9nNLHxXtLxOJM/t7ypmoTihxxYHcs8W+rYVhxPtFtnNI2onNt9GgqN6AAAAAHBeIi2K3VrLWBROp+4HR89oTjtaWOVirtiDpRIAAAAAlybaopieKXhYN7/vWVsUy6yH8jmDPS1evmi6mpAxsPE90zlLnW+htNMmf/corXFfU9tSd1DWOP23oXiVZU+F21ekxz5rMUQw3QXI5z4KofjyRtlfjOj1I6Fhz0qPtCh+0nNZ+egrB7OUuZZJhbKCZiUYCmOer38MhgEAAADAPRLto7h9e6Hp+kDUn9Dq41XIhzPSG1KyGtP3QlvWxHN7w4QW1g4OFlVGdBrr2/Tz2QkjIpLWuAkJASnDLGh36tNEpJ+WK/FvEWIw9vIyo2dWTofPbGlXpmdCQp3l0iPLRca9FhJUCbY0PeITKxKL2dLXUf8zReQhl545ZUZHIQDnRO9WOpRl8sMNwyKRxXUabkMPc7tuOYwQiccszGJHXjwAAAAAuFfqbWZZJjQVSuEkhdN5d94e1pbVavkpRdjjk1Yno1caCzGXs0yK9PmWSinc0i+3tNmzOnwQaTf/HtDYFj2zZyHDTrRbuRE5z9Iis/98ib3HI3p6FP87fdNefSFx08Pl06NBmpElJY5VkpMs6s0OM3oijvbwaefT/bvR61iUxYHWVqFu395F3oXonF4i7wAAAAD4Servet6+0Yu0nrFVq5llqT9Z0Wplf/x4DuToF4/ReCAkT3kYw/HLtegpC6DaCLLd7F3xJJixOfG0p43zZ/6ztJXv8em8llXBbMHLvkK4vtvCLy7vDtsvcgyT+meuC9cKaxjReMCuBpZlVXK5vAMAAADgZ2l5PE4zy5KzXCw/9XzeBg9CwHgWtkYI0bs52MvPatn5sHGtcRdFWmszES19FmuWD6POW7TFuO2LyCwpkUvxtnC3BfuAuJilq4ETj+3vCQAAAIB7pr5Q5E0SUnTw5goh8vy13guw/1bLxwP9cxuWn1IpquVnuezcwFrXJd6u56m3hByD2WDjCnLlQ+mypbcX/Xt2KWDhn/of7omLWURixWF9GqQLAAAAALdFPaHIO4V5J60UMz93jt9Wrn32qRMXQelvqJaf5bJzbqk1hLI8nvYbSywpYdV76EK+tkEvGYs68twsy2GXAi0WVRawxAwAAAD8dqKFolzK5DVHtjD9tDXJbCaZeL6NQsiG/e3KUJtaeBfzpJ/fxBJitlAW1Y2zHqyFVX/cyG+zO3Q67E06qRXYQpSVfzaj8v080bde05cbYHgpvH6hAgAAAOAOiBSKM5oOhYRwdhA3J7+ZpWhDRRFqydQcRp3G8/xZeD5jGWpTiyC3icXAG3ey5yi/wbxFdZmwz5+bpp84KDuXjuSBNv7S8zKhd5qn6eSPOp/R8oc0G5cCforQjgAAAMD9c9kr/K4VfTg1BQ7HVv5+uDIPAAAAAL+Plrue7wNz3I67lAwAAAAA8LuBUJwt9A5hWAwBAAAAAGx+rVBMzxnU1wD+wCk/AAAAAABXDXwUAQAAAABAECw9AwAAAACAIBCKAAAAAAAgCITiuZCHXN/SeYMjev1ocO6jzmd6xuLH62Vvcrm5cgbgepktxDuMlwkAYAGhCCSzRULDXoMjguSh3Or+53X+Mmlws8xoIQT4TxwYD34OeRtTf4J6BwCkYDPLudCHeB9vYEe1OlSczxu3bmVpAFsj5K01l7zi8azlzGLJvvrw1LqMbgeV98fAIfSXxa8DD753vnZ78+M8FByon4XjW6ny5XDJeGKf1QF8pz9OgwAAaGBR/PWY6xnff4kAikQuaYuBme82Ty2mfC2id784ODNLSnT5ux91JeVpv6klEtWxWBMSKsuKKyy41J3uYS4ZT51ndcIykasD/clC9A4AgN8OLIqd4c/4Fe6s3A/jWqikZW+wp8XLF02tcHkrBPsT8lKx/rGFpUs+s+qKQm1hSGHxFDA1lFsUI/KeS4f6G9eqFVPOjA7XyOJUlBdd7kc7/+X56orotqEtrGnT8NMj6/JRfvc1FXlME64sVHtZD9lf+8jnfU1lewhZx2S59X1rV7u6CKHaS00reB3rcxp2TTTx2uAl46kKI38/oP1iQw8JtwtV32ndOmVeo63q54oAuToGAPwuYFHsAu5URQfMg0A641/sRDdswQO0F0YEoWHibcToDSlZjel7oeMRU/veMLHCcGevxYoTTxNL14jGAyEKDp+FIlE6t+tlKPO86edzvc0jsXmvIqacDbNnNSD2BjSuXS4zehZ/nLNWzaZKnPefRQj5hRp4LavjdCoG7PmZNvTItmFZlkJtY070nqalyArK3wkhQSbdC9qd+jT5eCV6e9HfaYudXdbiI0XDciXCc9GOvXyqcsu1p1Z1EUJZwemwqSXIZ1MhoIVwWlWJO54QzEVYUa8hcXbJeGKfNZhzn8H12BP//lB1y2bBtMxrttXthvbBOgYA/DYgFDvAdObvhaOWGDDGYqgUnbQ9O9++vcsBtz92O+vD2prlLz/lgP34pEKMXsdi0D3Q2hp5VDxi8J/WUV2C0ZiUTiwYhYQwU8n2rBnLpNgCkqNe3suoLmcLXW5C7dEmIrjD6Ikexf+OX9kfsgVLajS5Y+eRZHXocG75LSnpyGoWwqkLLdj6z6be88+WmxOEMBx4Ck0KwDSiLW2kKniggf6mHBPeE35SEJ5o56uaNnURQL0DgeeUMqInVak04MmPtVPf37gxep3LjV32O5ZxyXhin9Wj3jETzb3e0Xpmjx64Umu31bptAgBwr0AotqbA+mSjBdnpe6+/MIQ64wMV6TYeOMIWwC19HcX/Hp9EiBoMHsQwcqJcsjSj8UD8viw9EdTKexkR5eygfdtaizZebl5R8rChnF/Y9ou42PuTSx3P49dFRL3rNPrYIpjZSktivN/bdrPPCdCZqqCAGOyqLphm1kTR2OlB/JmoLHr+NBY18dFW2Ux4GZ/dVUFZXDKe2Gd5AvD0TblXukFb3arGpSZFAIBfC4TiBfEH54zYzjgbOGzrAn9sF8KuGPDDQoNOA9rn/SdQy/yDvW19s2EBxMt9agBWdfGzm12k5dNpG7ZPWods32gjVzbN0qQS8ofN+aypTDNrooW/DKw3bph8yI0nMVbrC8STEhOmkutrqwCA2wBC8So4UqGOctjTt+joeeBIrQv2p+Mlzz0/7OxLT7F5vyCp9UX5A9pL5iO1FmileUtvL7r8pb/kz+2MVhs8eqJ5WG1C+xqeg+WnVCtq+VkuO7e0PlfS1JrI6HenhO1sISZcQoS+l71Hl4snLkwdrqetAgBuBwjF1qjOvCcdgTKkP53+t3EMz3zJDNWbSVwaLjEXsf+Wg4WX9BS19NSnXLLr0CbvZhOEJKKcHdgauGp4U8ySWAPxjlHXcFWRZj58XA/AuTKVG3HYitPlkSP2crxOWy7NTQmXt4P0kVTLz3LZubAu29RFRpQ1sbCci96dzA9Q5kGKJ/5781EWWV7q5Z95v8+l4olJc2PK2qomPykCAPxGIBRbo33t+uN0Zs6WncnjSXTCBjGT53W6/sTxD1LO7vWW0eTmBN792oVTXKGI05jNEhPP6jBb1PDJi8t7TpTyTmlnPT2mnC1a7rQ15Ty3Mm5ur0k3Cog0upsKRJqkX2fA71P6gzJ9Gnt/0xR1Pp+5TUeLCju/epe4XYrx6Pis8s6j6oTFj7SgFbXjTnY9x1kTVfkz+QlOqE7tdrhMbEus+bi7v9m6fKl4mJgwUdRpqxIz8ejG9QQAcLvgHMWOUOfH6R94aTgheRwFL12m/kU58eOeN6eWDrs8S7Ca8DNdnLwxMn8qtFnuDOGcs1eRd8aNi3+/oqcP5SNo4okqZ4kuo1OLs/tYaCW2xbIqzUw+jII3xaizL51yiSRYzrm8Zc9QcFo+6dluP7oe4tqKH18g7aaMSsu5fV2Y/FemO62zgnqIqFOX0PsnuGQ8ZWH079Q5i7q+SJezV9fxbVXgxKu/AwD8SiAUfz16ELfEHzgP0WIngPrbioPRfwItKHAw830hJ2SXvo4TAHCVYOn517OklVpfvtARL78UIajmbM0Rgvye9Lg5Qkktf4O7YMabcURTPfMOdgDAbQChCOQZenzcRs4XEXSAOodxpa1ud2W1FYJCWUivzMoJmsMWYqES2cUACwwAAAZCEUiWib7+q/luAxAkO5LkXpZmeRlc7uSN9nUEt4I8ReDg3qIEAPjdwEcRAAAAAAAEgUURAAAAAAAEgVAEAAAAAABBIBRvDOUf1uXtHgAAAAAAYSAUO4PPI+SrubAZBAAAAAD3wUWFYrpb0vngSBYDH3KL8gEAAADAtRApFLu0lvG1Ueb+U3UkyzCBGErha87S8pnS+sDlA0slAAAAAC5P9PE45voxvlmi6aHBwWvI9H2k7h2y/h2zJ9otXsg92ktfPad/Mrj3msbcm9zkWVmYtFwKqHOvb/jaLJM+dS/rPs2XusPXpKnwDl79Y918ZcSUDwAAAADukeilZ769Y6qu76DVx6uQD91y/DLKg8WLECZHIUi1VW2xI9fqyCJICz4TZioCnfSv44l4lhFTLJDNs6YbepirMpDlIr9bkygdKdiycF0csrylr6P+Z0qfJiJNQi2q54h66Q3nbprnRO9WOpRlMj5fipjyAQAAAMC9Us9HcZkoQdYbUtLJzlshRPhSUSGxPrXZb/Q6FjLoQGvLarl9e1dL1FP1RHl7wGlH7y1FWMyzaPREj+J/B5NAyZKSi12WP6InTsDpm/bqC4lzI8byU+TCvlUln77lioW0FSYiX1HlAwAAAIC7pf5mlu0bvUjrGVu1mliW+O/MRg1j0TLLwyMaD3qsXqzlYkZb1R6fxH9m9Cy05Wm/aSnUqp8ls7b9Iv6xP1nR4ge00WzBy74n2r3bwi8T1tHofKRU5iuyfAAAAABwt7Tc9dzEsmQ2s/BGFvFjf2yJzQE9sC8cL2+nYlJ9pOGxU2KftaREp5VFlQpzxqVXaa210sI+i9P6PoH5Hea2LyJTla9L1gUAAAAArpH6QlH7B8olSRZ81rJkPbb09q6WQzOxuadvFo+O35z1eXlTwTqh+lmZNhNpfdHfS19IkeZz+el5u57ddMRhNtjw8nQaj/ahdCnLV53yAQAAAMA9Uk8o8g5l3kkrxYy9m7gh2zfasHpJrYoxy5pKwPQeBvpnhfRb1P8uZPZsWdUaLqHy0rsWVW4Swum6PHrJWNTRqk4F5fKFJWYAAADgtxMtFOVSJq85soWpQ2uS2WRhrIryZ15+LXQI3NJmLxSZtWTNaZs8nkQ8GVupcvr0bKLRx/DYVD9LIP7OP8NwNB6IFJ/o295dYoSVs5T+E+h09AaU7m1JrcAWEfmKKh8AAAAA3C2R5yiqo1Tc8wfro5ZE/bMNWbOw35t9Pp8+ukX+NsPe6av+Rv1bitfVkzw38GiFMUuwCl4qX9HTR0KDvZ2P6me58TAcV8ii6p85qI7LaXeOoku4DP368dPB6VXnLtp1GJev6vIBAAAAwH0SfeD21aMPmLaFIgAAAAAAaE7LXc8AAAAAAOBegVAEAAAAAABBIBQBAAAAAECQ+/FRBAAAAAAAnQKLIgAAAAAACAKhCAAAAAAAgmDp+R7RRwWlJyTyTTq4cg8UgaOlAAAAFACL4j3C1/HpO5nX+QuezwAfyr3K3fTyO7hk3n9zOQMAAPgJIBTBfSKvLVzRavXxw1cqAgAAALcLhCK4M/j6QiEQ50SbnX37NwAAAADqAh/Fi+LfwWzdb639xMQXubuh1Z3M/Cs3bHZLs31PtkvR/dFxd0YLSp6Vvyvaxb3n2r8z2kvzbEGryaP87mtq3eNdeK92GM7v+Fs9N1dutSlOc628V9VXRd73tcq5pI2l+PlS4P5uAAAAPrAoXgwenMUAflxL30H+LHZEw0QvjW43tD8R9QZjMdTbjGg8EKP+YaMHexHPnOhdx6H8EHtZPJ1S/qzt24v+fi0kjRIsJhx/UvHCQkgLUPM7lfcVLWYqiILjFkKJTBktaHfq0+Tj1SuTYpaJ9dxWaDF1yOprOt3Qw1ylJTrv0fVVnHeq86yyNsbIJXm3LqYiEGyvAAAAQkAoXojR65j6bCGyTDbbt3chBoRAmLJa2tJGKUUa2wJiNCapEz/N3y0p8ayDyxUP9D0aOH/YBV08a0Sv4z6bqxwBp/JO1B+7IlCKoLSMTJk80EB/czFGT/Qo/peVO5Mvj2riy7Bt3qvbmJCS0yH1Tjt670RMAwAAuHcgFC+CsQp+ekuoW/o6iv89Pmkr1UYM866AGI0H4psDOXrFZ/tFHM1FqPssLXRP33v9hSEshI5froBRlrv4pefO0PnsT3yrZwcUlGG7vFe3MbY4PgvNftpvHOEKAAAAFAGheBEG9CDGcKE6aCV34mafzB+NWdLngY2KZvlZDf6n3coZ/Nk/zo0n72/WFV09yxdBGY/05BrWroQlJXL5V4lFlfdmy/uXqa/YNgYAAADEA6F4Efb0LQQHL7+mfmH2x1qaXCqlqJafpTXuRPtNJrLMJgreeJDFoXzXuuYyzzpSoYb8cbb09qLzLf34Qr6F5VyuvqrbGAAAAFAXCMWL4C4xl7JcSZ8yXn6Wy86nPWU6US8vnna0Osda7OzZsnTVeZYSKb2HgDed3qTTf/bXb4uWSq8UPsRci0U3myV577y+yp4V08bCfy/9FvW/AQAAABsIxQshNzD0hpRUOrwp373eYEpTITIOG3sjhBYD9oYXvYu17uriVkbUp1S/ySNa7FjqPEuH7Y8D1rYtvW0OcknUzvrodU7D3ol2Z1G8HSDKw78BRfmLnsh1tyzPe1f1pSh7Vkwb036h1t+zxXPyeBK5AgAAAPLgHMWLoo9c0T8ZcufXpefuhc4Q9M/J4zCf9CziNecfmuXOELyz1uw+dsNxPCt6EnEP9iZM9bMy/LDus/JC1Mub/n3bs/zK8s6WvTp3XufjCtUHU5b3iDKslfeKco5oY/JsTROAl6oTkn8jEoZzFAEAADhAKAIAAAAAgCBYegYAAAAAAEEgFAEAAAAAQBAIRQAAAAAAEARCEQAAAAAABIFQBAAAAAAAQSAUAQAAAABAEByPc4+k5zBqap4fCArQ5XrEeYMAAAB+CbAo3iN83Zy+43d9jkugc/Ahz6vcTSYAAAAAuG0gFMF9Iq/KW9Fq9RG87g4AAAAA1UAogjuDr7gTAnFOtNnhBmMAAACgDfBRvCj+Pb0n2i1eSF0JrPzfxBfeHcr8K75zmH/lhs2u+7Xi8ZD3+j7mfRRVnEfv7mJ1T7Bzj3PJs0rvVRaU30HspVned/wov/uaWncRF96vHIbzO/5Wz82VW21i7uYuzldR2Suysn6nOSWDvQj3RVMrLrf8AAAAgMsDi+LFYGEgROJxLX0H+bPYEQ0TvTS63dD+RNQbjIWctBnReCDE2GGjxY6IZ070ruNQfoi9LJ5OKX/W9u1Ff78Wck4JGxOOP6nIYRGoRZH5ncr7ihYzFUTBcQtxRaaMFrQ79Wny8eqVSTHLxHpuG+TStZvmqUi0Y6OsyNf+myv0gQY6eIjjl05rb0jJakzfC/2s9UF8lXjlAwAAAFwWCMULMXodU5+tY9Z22e3buxBCQhxNWQ1saaOUIo1tVTQak9SJn+bvlpR4FqrligVMjwbOH3ZBF88a0eu4z2Y4R8CpvBP1x64IlGIzLSNTJuVi6xzMpkPqnXb0Xig6q/O1/Trqbxm9JG6U3+iJHkVJfu/Vj8xhbVk+l59SfD8+dV2nAAAAQDwQihfBWAU/vSXULUkt8fgkxdL2bSPEgSvCRuOB+OZAqU4Msf0iW5KclbrP0kL3ZCsiSVgEphY2jbJaxi89d8OMnoUGPO03jkh2iMgX7b+FFHwkpfUG9CDCU/9ZxM4/Poh6tamoYwAAAOAHgFC8CEYkTGgld+Jmn8wXj1nS54GNimb5WQnM027lCCX2vXPjyfvRdUVXz/IFYIYRUrdJWb6UqO7RAyvh2TP1Dzvanez8HqnwzwEAAIArAELxIuyJ3dV4mTL1d7M/1vLuUilFtfwsrVYn2m8yNWE2kPCGiiwO5SPYNZd51r2KpczuysvHo6dHOny+0ddRWYz5Zzp9i5YBAAAAXC8QihfBXWIuZbmSfotSTPCy82lPmU7US9inHa3OsUzJVi/9z3rPUkK4J01nHnqTTv/Z35VRtBx/DYTzI/0W9b9j8pVOEEgIfxEVr1LzRIAtxjLm41fx0jYAAABwBUAoXgi5CYR3tlZuY1U+br3BlKZCcBw29mYSLTjtDS96d27d5WC10aJPqc6Rx9PYsdR5lg7bHwd2Xm/pbXOQy+521kevcxr2TrQ7i+Jti/YztPLD1tXJ48na9RyTL1UuveGEhkI0SsHPm1REO5gMewH/RgAAAOC6wDmKF8U/c0/hnssnSM8uDJ0h6J/FyGE+6VnEa84/NEvGIeyz+dxwHM+KnkTcg70JU/2sDD+s+6y8EPXypn+fK4ualOWdraN17ryW5yCaJLPbQEKy/kTCszRW5Mukxy4LE6/JqwoTcaYlAAAAcGEgFAEAAAAAQBAsPQMAAAAAgCAQigAAAAAAIAiEIgAAAAAACAKhCAAAAAAAgkAoAgAAAACAIBCKAAAAAAAgCITiuZCHU6+cw5ivGz4HcUUf+ROzy9H5TO+C/ngVMV2QmytnUAnqFIC7hc+RXeHlvikgFIFktuDDsg+0qXu48/aNXvQ90OtzXDgNfh3q6sozXVMJ7hA+nL7BJBf8CPKWsv4E9XVD4MDtc6FvVzm2vGnkEqibQYh2ixdqcwmIvHHksd7tJ605YznnbnkJ3eyin5+GKr39JbuZx7m1JpbSZ4Vv/UmxwpbnKz6e8xC+kaaruoiKp4rcbTyCYDx+WZ5y71h8evy4vJuNfjXhNvNj+O1QUO99b/IOZn9TfiOWoaj9FMTTNR3dxAUuAyyKv54ZTcVAddq9txKJ94YcwAd7Wmhr6XS6lnc0J/bSOnd2WqSqMFNaH0WY1UKUap7ZoqTzr6LyWUtK9PfuR6Rb/Pa038iBpTpfcfGcjdmzKKMT7eXF2Iqu6iIqnhiWSfqMwnhYLPCAy1c/6nDrQ4+GyYdzf3hMejjcSsTFV0dmz4RIvEoC7XC6PlBvmNSwoNV/B8v7Fp6g+HGF20+rPqoO4h3iFaj+JNxXgusCQrEzeCZm+ep5M0qFF2aVDRqMHBDkIOGGy3cwyp+wKJ46jF7HomOoWHLmzs9KTzP/koi85wSW+hs3/zHlzOhwdUWAZvv2QlNn1r6k1e5E1BvQWEYo4hczYp512zNiuawiSnTsV4gQDmPRAx/WqrOvR81nWaj6zYRXdb7COPFIEcT1Z+pC1aX0PcqVuVdfpW1VtGtZSBtn0tJVXTTNezUmngca6G9mU9Eu2fJjJWiZLGh3EmJxqlp5VHpEWc/FRK7Q8nK2umhOdD8m016SHtnvePmRH9VPqD6Df1bihsVYFkY/T/ddIZGm4gz3OU37jdmzSImod8dtYrkS9c7Nw7SOZvjvckqrvsWiKJ4ztbGY/gtcBxCKXSBfJLX0kc7YFvwSWMgOyw0jgtAw8Zz22aKwGtO3mQHq2WgWhl/EhIbHzFKh4il+IYsZ0XggZNbhUwxRYWRnoJcIzPOmn8/1NhrE5r2KmHI2SMuUoLUIKGD0RI/if8cvr9PebmifGxSEAJoL4XBYN1tmqfUsG2Ut9oVXfcLxDObcTpX4Gcw/aEKiTbKZwBZwPIhbVrXpdEMP84JBeDQm1RxrFlLj8jkXM5J6wbf8zKYkV5n7zyJEHEZwVvlrdl4XbZH9mGUFDfVjc6L3NC15i6uCv1up/MhwnMc+TYQ4IRba8jttabP7BfGRy6ZGpA3GXj5VHeX6vi76DWvCoBjQg6j30/de/9yEone5Zd+SUh1P523MvJ+5ugHXBoRiB5jO/L1wNDaWkrXj87F9e5edWH/svkiHteXHtPyUneDjkwphLIBr621W8WSWimiqBuZ0hulZM5ZJjU6pXt7LqC5nC11uYrQmfwLelAH39nQkqUe2X+JfWb3keHxK8zV6ncuNQnad1aLGs2yMBWJXoTKcfAUIx9Oj3jEbtHq9o5W/HkltpgWc276WlDhWtIw6m1ia1oVPVd6jEO8JW/1Ou5USHQHhKq1frJt4YBW/LUqqm54RPamIaOBY1HwLWfd10QVOv6EFW//Z9FH5ZysLkxAhnkKTAjCNaEsbpf49MVaECe8JP+3ikHs3WvYby4RFqxCyqSVNi6fYfquAonc5rm9RYjtrP/nl3up4ztHG6tYl+CkgFFtTYD2w0YIsP6MMvSgHKjaoFFkAt/SlRsrCATHI4EG84icqmujKgbs0PRHUynsZEeXsoP18uhoIZwuaiOdnZb+kT55MD+eOBUR1uPoHifEB1SKiEbHPsom0Juby5VMcjzMgnL4p14y0gOtPYizHupxi6rdxXXhU5r0Ead3WAy+7P3gToQwxUfpYUfKwoUq/wlx6lCVKFCA9f2aWMmOds8Vit3XRBX6/EdFH6TT6+JZiuWRfw0dzu9nnBKhaIg6Jwbb9hvp7ZR3l9qEtbK36oaJ3MKJvyfnTaoussyQcEY/gHG1sqxpF4cQJXAcQihcktzSWEvuiZANHNjtUHznAdIy0boQ6hAa0z/sPIgZwuXPw5Puc2QOC+sxpIy0nbAXiHEvn8JbWBCbmWTZR1sSCfNnEWiXD8KDJA5MaPFS6C1wkpIUn4nimFnXhEJH3UqxjofizJn4n/byxNSmhwd62iBVQlh4hNJyv9EYAXrKLp0ZdXIjMx9B8xLuif9cpoq42urxUdtWk87DpaBLpwHXO/THvKhZtg11jZH/dvKyL3sFmfcuW3t5dy21XfdQ1tjHQDRCKV0Hs0teevnng4xmqNUiln66sZ5o9P+zsywItl/3ODVuOeAAXImYdKF8WKHYdiCCZP5IY/Cd90cG/d1Mvpc9yKLYCplTkSxERTyViYHrRaZb+pCzm/MHDuCdUWPba1IVNVN7roZYc9eCbWlaUj55taRyptWS3zRemR7/vnRFTF5eBRSIfC+T4Pmtfw3OwlCZnvfysJyWtVkqCsPWYxa6oR2PxlBMK1TaGjfxBC97BNn2Lbp/Sd7fjPuqa2hjoDgjF1qjO3HeYl/50+t/GaTfzzzFUbyZxabjEXMT+W77IXtJT1LJAn3LJrkObvBvHcklEOTuomX3T3YsSHsDlrmqr46/CsozJ5S3ZUZrZNX+U1cTs0HR8zfh5MkzkkREFVrhKK2BkvtpZEwPwoKkHD6caYzaxtKyLlNh46taFg1oKZ+ugW3SBNl+anqL3PfNdbExRXTCt8l6E7TqiyyFXPk0J9w0O0kdSCXn5Xhb2O236Db3ik1uF0YLfn3RHlHOhNbFu32Kj+1V+32LiaUxZG9MEJ07g6oBQbI32teuP01kTz5YnjyfxghjELIvXPvoTx3dD+VDVG4ilwzfvKOzC0ahQxGmMA/rEmxGKWWj84+PynhOlZikuJaacLYzIbLp7MVZQWKgd4o+0W6jwvoXLtpqYHZqOtUn6hDLV4tx/VkaFFTA6Xx1YE0Ud+oOVyqPrF1u5s7eDupDUiKdOXYjQqSXJiFLzns6t/Jvbj9JNABHpCcXTpN+IrQuJ9F1muju6RJ3PZ8pHC2D73eSyaLz0rOOz+oY8qv9g8SMtaEVl16rf0BMEUV/OvkKz290Tp9VtrPgdrNu3pHA5c7+q3Rli4ommThuTmAlDN+5N4HxAKHYAO1fb/lHScf1lI837KexUvD5Yvhsi3PAoBoiat6GYpYyAn2J97WjEV9FxHWoZwff9Wj1/pj5Ttp+R1HXyWAz1c9ppxORdhFkIVZqGkat2yt/FEFXOhpa7FzNLJTt+Z+mWH21t8H2s1BEezW+3UU73TH5ZLPZZygLBY1J4IIzJF1MVTxSiTt9p7jwj3+arNyl1VRexeWfq1MXK+CHaYk9bU0RjTcMpv7UsTFR6AvE06jei6kKjJ4jtcPMkb2yy8p6eKWn6leSBNlqgNCEXn/j4oiWt07I+ofWuZ+4vRe6tvo4nvO7ObUVZG2O6eAdzbVVMTORh4F5aOqFOG2PMSsJZfEVBl+AKv1+PPr6B/R7P0XkAUIa0HPOkoNzCBy4LCwzjQ1i3W1B/ywLhyupUW3BJiLbwDnVwSdjqf/ErX0EjYFH89ejbILylYQDOT+QmFnBZhKDicyFzu61vHLUMmvfpBT+AmCDKFXBYE28CCEWgl3RZK2J3GrgkeockLNlXgjrzkZcn2ep2V/UihImykMJy/eNoP0lejserfxtAKAKJ8fHxb0UAAPwWsqNN7mVpNvXRE8KkyTI66B7pm3soOqAeXCPwUQQAAAAAAEFgUQQAAAAAAEEgFAEAAAAAQBAIxQqUj0uXNxQAAAAAANwGEIoAAAAAACDIj2xmMYe5ZmQ3FgQP4ZSH8vL1Ddb3+vDULJYT7Rb1biuQz+Kj7x3ceK728FgAAAAAgDMTaVFUF6X7VyLVR53TpY7pMvdK8ueTngtPexbPlidzrmlqRCILR3PWVxrHO9G8wRIxi880juy6uvZ5BQAAAAC4bSKForq9gy9UX7W4viO9zD5n+VtSEjzgSl+2z2Iu/b2+zUF89+5EwmeAtbf6qfME+criqSc6lVg2d1jmhCRbOK3fr1ahw6vdOMJh9KG3pWEAAAAAAM5PtI8i394xVdd35C7Qj2NEY74BvMZl60pYHmgduguy90AD/c9u2dLXUf8zhS+4lxfSKsujKIfecG4JOCEA50TvOcukLfJYJOo7ldNwG3qY22XJYRIaHrMwix158QAAAAAAXIZ6m1mWCU2Fcjn1hpTU3Qk8GpPSiZu86Ashr1zi1WXfSrilt40QrFK8rVpZOMOM6OlR/O/0TXv1hcQ51X/5SUIqWreYLCnxxOxyJcrJDjN6Io728Gnnxv270etY5EoIY8u6un17lzemDKdd5xMAAAAAoJz6u563b/QyXQs5w0LtTJYuFqLyLsj38OYUFqxTtUQsLZxyibabI2xmQpjK5fF3W/gdyNF3MWy/yDFM6p/7kxWFta22uB4+c8JYWjgfnxpYcQEAAAAAmlNfKDqcydLFPolyeTcpEFVMdi+pXBLXFsbaBkZpHc18AuWO62m93dNMeqdo+pmIFNksKdHilsWiCmML7QE98BbuVPhmn/zObAAAAACA81NfKMpNGyyC+EgbIdJib1nXFrXeYBxnGVsKkShUVX8SYbWUFka2cgqdNa7pP+ntek53VtfAHPfDy9NpPDo9Lpa45SV8Ftqp/+GevtlC6vgwWp8G6QIAAAAAaEM9oaiPpelJcVV3h/GSPlk59QaUuvZVkPrnJdd8M4rZpLOjVZ0C4SV8LRYf5K4cLDEDAAAA4LqIFopyadU/z7Amy4StbP5uYGZGi+CaMVvgjD+kEYsibGDXtdoIIpK3ubTlTQs8WwCnVlcLIbL9I3VG44EojRN9610zcgMML4V3vkEHAAAAAKA+kTezqKNdHncLeqnrvBcgfyNKxc0s6S0sOlzuVhYmiyOW4LM8wjez+OXBZx/yJhj1W5WWT3r2yswsUWeE0qzi9t0SnV3XAAAAAAAX4Eeu8AMAAAAAANdPy13PAAAAAADgXoFQBAAAAAAAQSAUAQAAAABAEAhFAAAAAAAQBEIRAAAAAAAEgVAEAAAAAABBIBTPhTx0u8Hd0z8GnwW5yh0KXonOZ3o3deAw9LNyc+UMQPfwmbArvAQAgDMAoQgkswUfGH6gTd0D1fkqQn0f9Tp/uTW4Wfjg9wYTB/AjyFud+hPUFwCgcyAUgbwxZtI/0U6IRVz+YqPEUmotXflXT4KLklqvW9RDjAW8lpU8ayOOSON78e040s+Z7q3nCZuYqfWGCazrAIBOgVD89cxoOuzRafdOHdzOeD9IsTChPt9tnlpMQ/eUg/Oj3CJWc6LN7qS/awCLt2RIx7WqT1mnxyEltniLCWMxW+Sv28zgyVcWj/qccTK2TKRVvz85kxgFAPxKcIVfZ8Tc0eyH4YHkJRVo8i7owZ4WL180tcKdcnds+3dLu/HUIXyXtQcPnvbl3CyeAhdPl9+dHZH3yju1s+/Ky5nR4U7ld3kXEc6LLvejnf/yfHVFdNtggevcg+6lR9blo/zua2rfua7uHd/LenBvUbeRz/uayvaQb5e63Pr+Hebt62L8rZ6l2gk1KONQWxLo8hIRiu8HEWHy3x/Xa6KJ93dWOQfTKf92QPvFhh4Srk9VT2mdOGVVo40VpRUAABoCi2IXcOesB5jUcrDYie7cggcOL4wIQsPE24jRY+vFmL6NJSK3nMSDhhYrTjxNLF0jGg+EKDh8FopE6SQvRi4WYuZ508/nestbsXmvIqacDbNnNbD2BjSuXS4zehZ/fNpvXFEzmypx3n8WIeQXagC3rI7TqRj452fa0CPbxoSEClPPCrWNOdF7mpYiKyh/JwQJmXQvaHfq0+TjlejtRX+3FtJRCUMTF3+k+FiuRHgu2rGXT1VuufbUqi7YUKaf24bREz2K/x2/vHi2G9pzXh4GcWFSxKRhLgS5qPvAnCmawZzfdS7/nvj3h6oTNgumZVWzjZm05uoGAACaAaHYAbOpGDBOO3ovHMzEoDIWQ6Xo7O0Bb/v2Lgfc/tjt9A9ry1qw/JQD9uOTCjF6HYtB90Bra3RS8YjBf1pHdQlGY1I6sWCkE8JMJduz1i2TGoNjvbyXUV3OFrrchNqjTURwh4BgYEuW1Gg8iIvfyurQ4dzyW1LSwGoWi1MXWrD1n029558tNzkIYTjwFJoUgGlEW9ooJUS2FCrGhPeEnxSEJ9qtvMbRpi66YvtFR/E/8x7leHyKCmN+M3qdy81f9nuYRwnyYv/EHvWOm/Rd7/WOVnw9krq0dhurW5cAAFAOhGJrCqxPNlqQnb73+gtDqFM/UJFuExEVWAC39KVGuGjRJRk8iOHoRLlkaUbjgfh9WXoiqJX3MiLK2UEMpmx9aS3aeLl5RcnDhnL+ZVpY9CeXOp7Hr4uIetdp9PGtZltpSYz3n9tu9jkBOlMVFBCDXdVFG5b0yYa64dyxrirBp/8dEUZh/HpXxeUlJlO2JTa12nobcRwBePqm3KvYoI1tVaNQkxkAAGgJhOIFyS1ppcR26gN64AGrP7GsFOpjuxB2xYAfFhq8GtA+7z+BWuYf7G3rmw0LIBYAaiBXdfGzm12k5dNpG7ZvW4ds32jDoipd4lRC/rD5STFYDi9hq6X4rHzmtJH1JxqoTHdMGLmBJdaynbKlt/ewdbec62tjAIDfBYTiVXCkQh3lsKdvHrAcfyXr07HFZs8PO/sSVmzeL0hqxVH+gPaS+ehJLkpbaRYC4EWXv/SXZJHxMwO52ujRk8vTWbtQvobnYCnNb3r5WS47t7Q+XwAWglnZcN2SnHzZFu/SMLOFOkrqvcG7ptuV6+sYw/W0MQDA7wNCsTVKvPmdv/Sn0/82DuaZL5mhejOJS8Ml5iL233LQKRq31BJWn3LJrkObvJtNEJKIcnZga+Cq4U0xagmSd5667nYVaeaz7PRAnitTuRGHrUFdHl1iL8frtOXS3JRweTtIH0llIZPLzoV12aYualK3nLXALT1o3goj8ymFGj/DfJTVljcW8c+Fh17r9lzoExxDWRvT5CczAADQHAjF1mhfu/44neGzZWfyeBKduWFLb7xO1584fkbK9yng/F+C3JzAu1+7cIorFHEas1li4lkvZosaPnlxec+JUnm8CA+rhphytjAis+lOW13Ocyvj5vaadMOBSKMvCpRfZ8DvU/qDMn0ae3/TFHWGnxE5ehJh51fvErdLMR4dn1XeeVSdsECSVraidtyyLuqgyp+pnuCoHf18hE2xb6Yfxrc2qo+7Qzy4Q5vrgttz3V3SddqYxEwYunEZAQAAnKPYEer8OP0DLw0nJI+14KXLdGDIiR/3vDm1dNjlWYLVhJ/p4uSNkflToc1yZwjnnL2KvDNuXPz7FT19KB9BE09UOUt0GZ2and0n4cE9sS2WVWlm8mEU+gxGHsOduowjWM65vGXPUHBaPunZbj+6HuLaih9fIO2mjErLuV1dlLWxXBmkdRZRV1Y7NsSEyZN/R0Npdspcp5MP9k6WupxJ58Wro3xcRW1M4MSrvwMAgBZAKP569CAeNSCCNpgB/1yC/kfQwgQHPF8HciJVeOg9AADUB0vPv54lrdT68oWOePmlCEE1Z6uQEOT3pMfNEUqlPn7gMsx4o41oYle88xwAcHtAKAJ5hp66IxY7KbtHncPI9wez1e2urLZCmCgL6ZVZOX8jbNkVKpFdA7AwAADoEghFIFkm+hqxc+82+HVkR5vcy9IsL4PL3b7Rvo7g3Mjd/wf39iMAAOgC+CgCAAAAAIAgsCgCAAAAAIAgEIoAAAAAACDI71561kd7pCeUtTlzDwAAAADgzvjdFkW+DkvfrsC7fovhswZLruYCAAAAALhDLioU092SzgdHsgAAAAAAXCORQrFLixpfP2XuSFVHsgwTiEUAAAAAgGsjUiiq2zv48v9Vp9d3bOltw2u+/vl9+pDiUqujEq9FYZT1ciFC2dQTvJkFVN2rLPNvPTMfj07Tx6vIAQAAAADAbRO99My3d0zV9R1nEULHL7OFhMVWQsPjWlsdp7TYkWd15DD6fuLUOrmhh3m36ZJ5lnGvieUs33qQPS9wgPLsWQpK6g0I51YDAAAA4Nap56O4TGgqVNupN6QkZ61rghB8fDmpkGGf+naH0etYiK0Dra3rHrZv72qJeqqfOHqiR/G/g/kjyZKSn96xvPyUgpJOe9pg6zQAAAAAbpz6m1nkTmG2sPVp0mgjCv+dWb41VkFzV+yIxoMeK0Dv7tgtfR3F/x6flMVw+0X8Y3+yok5XwlsjxCpbG3HEDgAAAADugPpC0cGy8kVjNrPwRhbxY39sic0BPfChhry8nYpJ9ZGGxxQWZOrvWSyqMNgQAwAAAADQJfWFIh9SLTd3aMFnLRHXY0tv7zs6OWJzT98sHh3fQ+vjWOrE37/o73k5nOPB7mkAAAAAgM6oJxRnC1rxTSZ8g0m6XNyC7RvJTc+pVdFbYo6Fl8O1WHwY6O9CmM0mtVECtlcaOYNdzwAAAAC4H6KFojwqhtd/2drXoQ/ecuVaFeXPvFmmzPlQCFb/aJrReCBiOdH3Xv28lYqzT88mGha57vp1DbSAdZbJA2DXMwAAAADuiMi7ntVxNI+7Rf5ImBqw2EyGR1p71sjZgn0QT7RbvJCKXh9/I3+bcVhPyax0q7jSW5oFvBTuxuuG4d+v6OkjocFe5SMfRwYfhePmlc92TMgOng+j0407owEAAABwB0QKRQAAAAAA8NtouesZAAAAAADcKxCKAAAAAAAgCIQiAAAAAAAIAqEIAAAAAACCQCgCAAAAAIAgEIoAAAAAACAIjsfpjPzZj/a5jwAAcC5yZ8LiLFcAQEfAotgxfAi3uZsaIhEAcAm2by9pv7Pma1EBAKAjYFHsjOrba7qa9SOechBPOYinnFuPR9509djsWQAA4AOL4oWQnf1gTws9659O13TgO60/XqnOtdCIpxzEUw7iKede4wEAgKbAotgZ9e/DloPAkKw7rpuBeMpBPOUgnnJuLR5YFAEAXQKLIgAAAAAACAKh+IMMHtjv6EhfLaf9iKccxFMO4innXuMBAIAYIBR/itmCJnyWzuGTWm2ORjzlIJ5yEE859xoPAABEAqH4E4jOfsW9Pe9ebHOGDuIpB/GUg3jKudd4AACgBhCKl2b0Sh/c2dOB1m2czRFPOYinHMRTzr3GAwAANYFQvCTc2SdD6nFnP02aLx0hnnIQTzmIp5x7jQcAABoAoXgpMIiVg3jKQTzlIB4AADgLOEexM8rPUZRnm/HKUQj2OYpcTkI85SCechBPOfcQj/wbnKMIAOgICMXOqH/gNgAAdA2EIgCgS7D0DAAAAAAAgkAoAgAAAACAIBCKHdMbJrRareRnMdNfAgDAGeH7n02/U+jTCAAADYCPIgAAAAAACAKLIgAAAAAACAKhCAAAAAAAglzv0vOVHFjLvj/J8Hiew2512o7rKTW/unVErx8JDfZXfCxPWgeaGufI1eaSzwrRSZ0CUIOfbvMAdIw84onWNEUnehXAonjjzBYJDXsH2uREIp/ruKKP15H+uSkdxLN9o5fplKbisz7o787FJZ8FfjG/9P3qlK7KENwby9WOTv0J2saVcFmLoj/ztThcqQXmmi2KKm1Eu8UL5Y2J3Al3cQB4V/EoLnkY8I8cPHwui+JsQSt/O2vAcqTahPWGBa1Lqk6z2E4FbaiCUkuW/wwPEXb68lUZ5qJ1Vwu8X+3pNu+tibDMxr1f1VTGE3rfJd7KWESaFf77WDOeyP6nU/Qzr1Ub/CYiLYrcyLqb+XHF8+zX/qAh1GVGU9HRnHbv9Qd4cHssE++dWdOhN6Tk45XMWykHn8GeFiVh5IDAA8Zhnca1PvRomHxQrdebO3EtiNN4juJZq4VomcySEv29+xFpEr897TdRYdC0wUWobM+R71cE8fHwBM6EMR9L3EWkmeHnrcQ7L5Rh83gi+p/OEc9kC3l/4uYHXJ5oi2I6A+IBpqmq07OWUmtL7KyOX7SXL5pas6STPTNtPNNyrSsq32xR/KTnomdJlK9gNkkMWWn8ZymazJiydLmWzrSeCnDTXZz3WvH4ZV1ioerE4qFnmikFbbL8WbH1bpev+hvXAhJbpzpch7PwojZgo8JkVudwmei2e4x9t0PlINDtQDzMezcy/PSEcMIQxzmg/WJDDwmXs6qnr6nIBxe6U57lddoFKm33+X7JNFX1q0xVeuT7+ejWk0RZsfYxef+aync892yBzGPf9zlv836dtz3HkIvHKsNwvJFp1j8Xj7lt8677Hxn+DO9pRDrA+Yn2Udy+vdBUyXtanXMWEetvw7OZ1Zi+zYxLBObDrtNDrqPi0Q3Wsq5Mp6Khz/389Wkiwok3wnrW3LLAcDx6oNXxLHbkWmm4wesXMn2WCHTSv67HiMYD0dEePnMCQdaTjF9bZezniU/6snFH5KVHpVkdFB4dD+d9TvRu/a6RhSoSHiTMckSans/neoebV+Q9mjp1OntWHWNvQOOzvTxVzOhZJCJnqZtN1QSn/yxCRDB6okfxv+OX13FvN7QXme89DPQXPsoKTodNyaAaDjOY87u+oN2pJ/79oRzd+cVOyzP2XW7Hvb9fql/1+zqrX41OD38nRALXkwzHdSf6UTF2UEzelysRnqt37NWfasO5vq/N+9W4Pf8gkWmeTYWgFyJtVTT/6zjvnb+nJh25dgAuSb3NLGx+5oFQdiY/bw4+rK1ZyPJTdjqPTzWak35JDp/2W7SkJDAjdSxE8lniRdA90uh1LDopMcO1pmzbt3f5sgynqpTMC/tuj35NGY1J6cSit7+KEb2ORbcqXtZsQDJpFnphXGdwzZeXdES2yqczhDBTyfZmx6JdRhnCJN3lvVad6vYpVBptOmgCXBZzIahOu1VusmAzeGAFeCQ5DgQGBbYKSF0gZ1OPFPX6bL9EjCXv2uNTsAzVe3KiXeGoVRSmR71jJhx7vaP1rvVIjmU13uXzc6Pvl8bt65Rg6z+b3j4+PVIAphFtaaOUB8VJDxPeE35SEAbaUJv3q2F7Zpz3qwXheJTYNjfurOwxNyLN3A6f1AtPA55gp/FYbmRN8x7sf87xntZtN+Ac1N/1LC11PBNkK1uzWW1/4jZa5wWI5kCNdZJBvyScnnJLUtmziqx7W/pSb6D4T4ElpymDB/Haneh7r3+uixaap1wEHb2Uuly7ZjQeiHy3rPfO8l63TkVnyLPnNsJFWjD1O5MIkeoJkRyzhVr2CVieud2+fqwoediIGX3x0nWYJX2ykcCxqnPy5pbrhU9zayLjDCynb8o1/eh3+QLc6Pul8N+vrB8r7OoL0uNbqZQVNb6tbTf7nACdqZcuIAbbvF9N2rOg9P2qQSienE+gtsimY25Mmgck9Wd/Qs+fVlzaSqzEYo28R/Q/53hPt6oBxk1iwVloeTxOZjGrg7NsKD91B6qu4M6FX0BbvNYVv9nLmAlf9ZEv/xWTW25IqfdSSquUk3fb/6Q75Kw71Pk0oKu8XxTLnYI/a+I2V9BeeemTGyD7BuXMrbz8o87ebOpvvEzMkmNW73PayHeJLRh+6Ta3JsbSxbvcLbf2fsVysfSI9r5hEZMuO6rJ2WHTYrJVQN32XP5+1SA6ni29vbuW26o0pwhB50StN4mYco3Oe53+p5Dre09BNfWFopxVcMfAzsSiwbR5Sa4C8QK+6MYv/cv4hanTcPf0zS+UeBnNC+R8xAz39ohfSlEOzT1P/Cvfo67Zc0GffQmi/TLSpVgmXM6BJUh+R5WJgta2hSWdzSsfNNsaMFJrVLXyzgOM3da5qSst70v5dtbEeNq+y5fiOt+vGC6dnqU0d+nlZ7ns3MFKUgHR7bno/apL3Xj0+2v7DZanWY9NEcS/yxmF/U8lt/KeAkM9ocizHzY58+znx6yAZ4RnTLrhxvvwRizN6BfWdwyWPm7637XYf0ekMfxMiXYQzvyODKFl9JJ4THjRHhoZgWqiliD6lEt2HWrl3cM4zEvq1ilb8cTs+ZwbwRgefPgd5cEn946qZaZ8fRXkXU4KecYf6RqiB3L/8PfzWxMDlL3LdfMV5P7erzC2i0XX6SnLu0b6SCoxIpedC9/PM7xfofZc+n5ZVLWx2HhsdP9T6pvupLlobMp8FwvFacG73DkRY26TSSzolmihKJcbePbDlrM2s6hrQghf/2xI5QdXz/9POnPzBp9Cpwvtm9Qfp7MmLs/J40k8qQGFA5GN7iSsZ2aIGR2v6fQnjp+I8kvxB+vyeOTvbIdz2UGeaSnKONZPvNmnqMd4v7S4vOdEqVkiSqlZp7qTzznnN4Z9DJVlP+3MIwYf01bnVgGa233szViMeheYanGudqPzcR7+cy9kTazzLksfX6ZP43yjjuQO368As4XdxrpOT1neDeo9Y5+6Sb9kItHx+xVszzXEXem7UyOeFP4bPf4WLeKF0hx638PtMKP4XbYJ9D8x1B5zzeSkG5cj0IzIcxTVlnY+6qHUeb4K/YKUnaNoljZC8C46fr4KU37GXUw8TD6c+/LGPMv+zu8w7R2E/AKmWoMFd0Lyb0TkheVRRDhdPvwy22c7unnnl9YVP0UdV1k8/u84DnXmZN26iMUpR0aWpUp19LMi8u7Gxb9f0ZPIq32vdnyd6vbB1vgGE61Qvvyyy5WLjf3cdKAyFNR7yYCWS49VBzYmnP0e+JSGcfoM3dZI50XXofm7fBkV5Mtqs03aX8Z9vV/BeHLttTo9Jt9ldZ5RUYaMaYel707H71egPUe/X0zJuxMTjyiUXF345RmTZknF+x4TT6htOPV0lvdU4MSrvwMX57JX+IEO0R1jUecAACjEDFZxYuZ3oMqkavL5A2ixgEOXfx9SVN/MlZT3S8tdz+DnWNJKrcPWWHYFALDw4DPg2HICkXj9qKXJC/jLgetipo4NOscud1APCMUbhs8l42MOcj57AIAAvCS2khvy2DoFS/wNIMSCsvxemZUTnBe2IguVyMvbeE1/HgjFG2eZ8JlUTY4oAOC3kR3LgSXM64aXweUZe5ZvG/g9yNMjDhUXCoCLAR9FAAAA4AKw+K2CJzIAXBOwKAIAAAAAgCAQigAAAAAAIMj9CkU+u+mK75Dkbf+8DOEfPnpVXLIMY57FDs7ytgP9OfctJ7Gk6Wpz0wco5Mrf5cZcsj03LUOdRnOygvIdrNHO/TzWSUPX9Y73FIAGEP3/fr+AK7OaxUgAAAAASUVORK5CYII=;" vertex="1" parent="1">
          <mxGeometry x="-91" y="1230" width="352.22" height="220" as="geometry" />
        </mxCell>
      </root>
    </mxGraphModel>
  </diagram>
</mxfile>
